<?xml version="1.0" encoding="utf-8"?>
<!-- Generator: Adobe Illustrator 24.0.2, SVG Export Plug-In . SVG Version: 6.00 Build 0)  -->
<svg version="1.1" id="Calque_1" xmlns="http://www.w3.org/2000/svg" xmlns:xlink="http://www.w3.org/1999/xlink" x="0px" y="0px"
	 viewBox="0 0 635.67 431.56" style="enable-background:new 0 0 635.67 431.56;" xml:space="preserve">
<style type="text/css">
	.st0{fill:#DEEEE2;}
	.st1{fill:#B3DDE1;}
	.st2{fill:#5E315A;}
	.st3{fill:#FFD400;}
	.st4{fill:#F59C1B;}
	.st5{fill:#FFE097;}
	.st6{fill:#694283;}
	.st7{fill:#53215A;}
	.st8{fill:#FAB517;}
	.st9{fill:#E94788;}
	.st10{fill:#F7C2DB;}
	.st11{fill:#FFFFFF;}
	.st12{font-family:'Montserrat-Bold';}
	.st13{font-size:15.0113px;}
	.st14{font-size:15.3447px;}
	.st15{fill:#CB3A8C;}
	.st16{fill:#F7BBBB;}
	.st17{fill:#522B68;}
	.st18{fill:#5AC1D6;}
	.st19{fill:#3EBEE5;}
	.st20{fill:#63C5E6;}
	.st21{fill:#5BBBEB;}
	.st22{fill:#8BBE23;}
	.st23{fill:#76B72A;}
	.st24{fill:#B7CD00;}
	.st25{fill:#60B22F;}
	.st26{fill:#D9C7E2;}
	.st27{fill:#CBD500;}
	.st28{fill:#F6A022;}
	.st29{fill:#F19000;}
	.st30{fill:#FBBC0F;}
	.st31{fill:#FAB708;}
	.st32{fill:#D2E9E2;}
	.st33{fill:#936CAC;}
	.st34{fill:#5B3670;}
	.st35{fill:#522A6F;}
	.st36{fill:#C8ADD3;}
	.st37{fill:#B09DCC;}
	.st38{fill:#5AB031;}
	.st39{fill:#F18938;}
	.st40{fill:#C5B2D7;}
	.st41{fill:#EFE3D2;}
	.st42{fill:#543159;}
	.st43{fill:#7A6384;}
	.st44{fill:#649FD6;}
	.st45{fill:#4D95D1;}
	.st46{fill:#6AC9F3;}
	.st47{fill:#55B3E6;}
	.st48{fill:#D0E6F9;}
	.st49{fill:#5783C1;}
	.st50{fill:#BAC7E7;}
	.st51{fill:#F59D24;}
	.st52{fill:#55AF31;}
	.st53{fill:#593661;}
	.st54{fill:#50C2E8;}
	.st55{fill:#BAE1EB;}
	.st56{fill:#887FA5;}
	.st57{fill:#8DB0BE;}
	.st58{fill:#5F4C83;}
	.st59{fill:#FFEBBD;}
	.st60{fill:#FAB714;}
	.st61{fill:#FCC984;}
	.st62{fill:#DE3A8B;}
</style>
<g>
	<path class="st0" d="M621.11,251.81c10.52-17.44,24.22-45.11,4.69-56.46c-6.74-3.92-15.57-4.87-23.83-4.11s-16.14,3.11-24.03,5.22
		c-34.23,9.18-69.32,15.25-103.59,13.99c-8.64-0.32-17.36-1-25.54-3.27c-10.76-2.98-20.13-8.46-29.31-13.87
		c-5.9-3.47-11.92-7.05-15.92-11.97c-3.89-4.78-5.57-10.47-8.19-15.78c-5.59-11.28-15.88-21.13-29.15-26.92
		c-13.27-5.79-29.47-7.33-43.83-3.58c-7.81,2.04-14.95,5.57-21.19,9.87c-11.16,7.71-15.56,18.2-22.77,28.52
		c-8.41,12.03-22.96,21.18-39.49,24.85c-16.53,3.67-34.85,1.82-49.74-5.03c-13.27-6.11-24.73-16.21-39.96-17.21
		c-16.22-1.07-30.98,9.33-36.76,21.57c-5.78,12.24-4.47,25.85-2.15,38.82c2.32,12.96,7.45,26.53,3.4,39.05
		C91.21,345.1-29.6,316.02,43.76,404.12l25.26,14.01h492.89c11.4-11.32,24.44-22.05,30.25-35.85c5.81-13.8,6.12-29.68-2.79-42.36
		c-5.11-7.27-13.24-13.77-13.92-22.1c-0.49-6.03,3.13-11.75,6.98-16.95C594.78,284.23,610.59,269.25,621.11,251.81z"/>
	<path class="st0" d="M30.28,320.58c-2.87,0.19-5.81,0.09-8.5-0.92c-0.79-0.3-1.58-0.69-2.16-1.31c-0.78-0.82-1.14-1.97-1.32-3.09
		c-0.91-5.6,1.98-11.31,6.24-15.05c4.26-3.74,9.72-5.82,15.17-7.39c8.59-2.48,22.5-0.88,18.94,11.46
		C55.45,315.37,40.41,319.91,30.28,320.58z"/>
	<g>
		<polygon class="st1" points="339.33,246.51 326.91,246.51 326.91,219.34 322.38,219.34 322.38,246.51 317.02,246.51 
			317.02,253.37 313.2,253.37 313.2,417.57 346.67,417.57 346.67,253.37 339.33,253.37 		"/>
		<path class="st1" d="M591.57,246.42v-9.52h-1.35v-16.95h-5.67v16.95h-4.44v30.22h-15.39v-12.93h-8.43v-18.68h-5.75v-22.9h-6.02
			v22.9h-5.2v18.68h-5.38v163.94h27.96c11.4-11.32,24.44-22.05,30.25-35.85c1.52-3.6,2.65-7.34,3.35-11.13v-16.82
			c-1.01-5.05-2.98-9.93-6.13-14.41c-2.72-3.88-6.3-7.54-9.16-11.37c-0.92-0.37-1.59-1.17-1.9-2.79c-1.53-2.5-2.63-5.12-2.86-7.94
			c-0.49-6.03,3.13-11.75,6.98-16.95c4.08-5.5,8.54-10.82,13.07-16.11v-38.34H591.57z"/>
		<polygon class="st1" points="230.78,302.44 222.97,302.44 222.97,312.73 214.9,310.54 214.9,288.65 211.08,288.65 211.08,309.51 
			203.23,307.38 203.23,342.23 195.65,342.23 195.65,418.18 237.07,418.18 237.07,316.55 230.78,314.85 		"/>
		<polygon class="st1" points="189.24,418.05 189.24,326.51 184,326.51 184,312.37 177.17,312.37 177.17,418.05 		"/>
		<polygon class="st1" points="481.48,418.13 481.48,259.39 475.55,259.39 475.55,243.08 470.35,243.08 470.35,235.52 
			467.84,235.52 467.84,230.95 461.66,230.95 461.66,220.09 460.12,220.09 460.12,230.95 453.95,230.95 453.95,235.52 
			451.43,235.52 451.43,243.08 446.23,243.08 446.23,259.39 440.34,259.39 440.34,418.13 		"/>
		<polygon class="st1" points="398.05,418.13 398.05,205.67 393.99,205.67 393.99,189.91 390.79,189.91 390.79,205.67 
			374.37,205.67 374.37,223.28 360.11,223.28 360.11,418.13 		"/>
		<polygon class="st1" points="428.97,390.36 428.97,379.63 423.1,379.63 423.1,387.87 414.9,384.4 414.9,418.18 431.3,418.18 
			431.3,391.35 		"/>
		<polygon class="st1" points="510.03,390.22 510.03,378.61 498.17,378.61 498.17,390.22 493.06,390.22 493.06,418.13 
			520.96,418.13 520.96,390.22 		"/>
		<polygon class="st1" points="286.09,332 286.09,353.57 277.07,353.57 277.07,418.18 286.09,418.18 290.61,418.18 297.38,418.18 
			297.38,332 		"/>
	</g>
	<rect y="418.18" class="st2" width="609.68" height="13.38"/>
	<g>
		<rect x="370.94" y="274.98" class="st3" width="189.68" height="70.79"/>
		<g>
			<polygon class="st4" points="424.8,274.98 393.95,345.77 401.04,345.77 431.89,274.98 			"/>
			<polygon class="st5" points="409.46,274.98 378.6,345.77 381.31,345.77 412.16,274.98 			"/>
			<polygon class="st5" points="445.59,274.98 414.73,345.77 417.44,345.77 448.3,274.98 			"/>
			<polygon class="st5" points="478.5,274.98 447.65,345.77 450.36,345.77 481.21,274.98 			"/>
			<polygon class="st5" points="513.75,274.98 482.89,345.77 485.6,345.77 516.45,274.98 			"/>
			<polygon class="st5" points="548.99,274.98 518.13,345.77 520.84,345.77 551.69,274.98 			"/>
			<polygon class="st4" points="370.94,333.96 396.65,274.98 389.56,274.98 370.94,317.69 			"/>
			<polygon class="st4" points="460.04,274.98 429.19,345.77 436.28,345.77 467.13,274.98 			"/>
			<polygon class="st4" points="530.53,274.98 499.67,345.77 506.76,345.77 537.62,274.98 			"/>
			<polygon class="st4" points="495.28,274.98 464.43,345.77 471.52,345.77 502.37,274.98 			"/>
			<polygon class="st4" points="560.62,286.79 534.91,345.77 542,345.77 560.62,303.06 			"/>
		</g>
		<path class="st6" d="M421.52,418.18h-8.14l-20.49-72.41h8.14L421.52,418.18z M510.04,418.18h8.14l20.49-72.41h-8.14L510.04,418.18
			z"/>
		<g>
			<polygon class="st7" points="403.98,356.19 401.04,345.77 392.9,345.77 395.84,356.19 			"/>
			<polygon class="st7" points="535.72,356.19 538.66,345.77 530.53,345.77 527.58,356.19 			"/>
		</g>
		<rect x="374.35" y="366.56" class="st3" width="186.27" height="9.93"/>
		<g>
			<polygon class="st6" points="379.77,418.18 362.11,418.18 365.84,264.89 376.04,264.89 			"/>
			<polygon class="st6" points="569.45,418.18 551.79,418.18 555.52,264.89 565.72,264.89 			"/>
		</g>
		<g>
			<g>
				<g>
					<rect x="399.18" y="270.77" class="st8" width="36.26" height="4.21"/>
					<rect x="404.44" y="266.25" class="st3" width="25.74" height="4.52"/>
					<path class="st9" d="M417.86,247.19h-1.1c-5.35,0-9.68,4.33-9.68,9.68v9.38h20.46v-9.38
						C427.54,251.52,423.21,247.19,417.86,247.19z"/>
					<g>
						<path class="st10" d="M418.91,258.44c0,2.3-1.87,4.17-4.17,4.17s-4.17-1.87-4.17-4.17s1.87-4.17,4.17-4.17
							S418.91,256.14,418.91,258.44z"/>
						<path class="st11" d="M424.06,258.44c0,2.3-1.87,4.17-4.17,4.17c-2.3,0-4.17-1.87-4.17-4.17s1.87-4.17,4.17-4.17
							C422.19,254.27,424.06,256.14,424.06,258.44z"/>
					</g>
				</g>
			</g>
			<g>
				<g>
					<rect x="496.12" y="270.77" class="st8" width="36.26" height="4.21"/>
					<rect x="501.38" y="266.25" class="st3" width="25.74" height="4.52"/>
					<path class="st9" d="M514.8,247.19h-1.1c-5.35,0-9.68,4.33-9.68,9.68v9.38h20.46v-9.38
						C524.48,251.52,520.15,247.19,514.8,247.19z"/>
					<g>
						<path class="st10" d="M515.85,258.44c0,2.3-1.87,4.17-4.17,4.17c-2.3,0-4.17-1.87-4.17-4.17s1.87-4.17,4.17-4.17
							C513.98,254.27,515.85,256.14,515.85,258.44z"/>
						<path class="st11" d="M521,258.44c0,2.3-1.87,4.17-4.17,4.17s-4.17-1.87-4.17-4.17s1.87-4.17,4.17-4.17S521,256.14,521,258.44
							z"/>
					</g>
				</g>
			</g>
		</g>
		<rect x="411.24" y="288.65" class="st11" width="109.09" height="43.46"/>
		<path class="st3" d="M515.35,328.92h-99.14v-37.09h99.14V328.92z M417.21,327.92h97.14v-35.09h-97.14V327.92z"/>
		<text transform="matrix(1 0 0 1 439.3437 307.8394)" class="st6 st12 st13">ENTRY</text>
		<text transform="matrix(1 0 0 1 422.8779 322.6226)" class="st6 st12 st14">CHECKING</text>
	</g>
	<g>
		<g>
			<path class="st3" d="M131.46,238.52c1.47-1.44,3.15-2.86,3.71-4.84c0.45-1.59,0.09-3.29,0.11-4.95c0-0.36,0.03-0.73,0.21-1.04
				c0.34-0.58,1.14-0.74,1.78-0.56c0.64,0.18,1.17,0.64,1.67,1.08c1.9-2.38,4.83-3.91,7.86-4.1c0.68-0.04,1.38-0.02,2.04,0.17
				c1.19,0.34,2.16,1.18,3.09,2c2.78,2.46,5.78,5.39,5.78,9.09c0,2.24-1.16,4.36-2.77,5.91c-1.61,1.55-3.64,2.6-5.7,3.47
				c-5.89,2.49-12.25,3.67-18.59,4.49c-0.6,0.08-1.22,0.15-1.78-0.07C124.79,247.59,129.89,240.06,131.46,238.52z"/>
			<path class="st6" d="M87.03,236.12c-1.62-6.47-0.09-13.66,4.03-18.91c1.08-1.37,2.4-2.88,2.12-4.6
				c-0.28-1.75-2.07-2.77-3.55-3.73c-1.08-0.7-2.09-1.5-3.02-2.39c-0.29-0.27-0.58-0.58-0.65-0.97c-0.13-0.77,0.72-1.41,1.5-1.41
				c0.78,0,1.49,0.4,2.21,0.7c0.72,0.3,1.59,0.49,2.25,0.08c0.5-0.31,0.8-0.9,1.34-1.12c1.18-0.49,2.37,1.1,3.62,0.86
				c0.76-0.14,1.24-0.9,1.49-1.63c0.25-0.73,0.39-1.53,0.87-2.13c0.49-0.6,1.51-0.86,2.01-0.27c0.22,0.27,0.28,0.63,0.33,0.98
				c0.15,1.06,0.3,2.13,0.45,3.19c0.8-0.69,2.14,0.06,2.43,1.08c0.29,1.01-0.1,2.08-0.44,3.08c-0.34,1-0.62,2.13-0.15,3.07
				c0.56,1.11,1.91,1.5,2.97,2.14c1.68,1.02,2.72,2.8,3.7,4.5c0.84,1.47,1.68,2.94,2.52,4.4c1.48,2.58,2.98,5.22,3.66,8.11
				c0.68,2.9,0.45,6.15-1.31,8.56c-1.38,1.88-3.51,3.03-5.6,4.06c-3.49,1.71-7.2,3.26-11.08,3.22
				C92.45,246.89,88.46,241.81,87.03,236.12z"/>
			<circle class="st6" cx="122.52" cy="248.63" r="9.08"/>
			<g>
				<polygon class="st9" points="113.13,261.41 98.64,255.5 108.28,228.34 125.24,235.26 				"/>
				<path class="st15" d="M108.28,228.34l-0.2,0.56c0.57,0.64,1.47,1.3,1.89,1.7c1.66,1.57,3.45,2.99,5.36,4.23
					c1.89,1.24,4.05,2.5,4.76,4.65c0.83,2.51-0.66,5.25-0.45,7.85l5.6-12.08L108.28,228.34z"/>
				
					<rect x="115.76" y="218.1" transform="matrix(0.3778 -0.9259 0.9259 0.3778 -140.218 251.9644)" class="st3" width="3.21" height="24.42"/>
				<polygon class="st16" points="116.7,253.69 119.77,247.07 105.61,235.87 103.1,242.94 				"/>
			</g>
			<path class="st9" d="M77.34,254.3h12.84c4.39-2.31,7.4-6.92,7.4-12.23c0-7.63-6.19-13.82-13.82-13.82s-13.82,6.19-13.82,13.82
				C69.95,247.38,72.95,251.99,77.34,254.3z"/>
			<path class="st9" d="M122.87,254.3c0,0-1.54-3.24-0.84-5.06c0.7-1.83,16.99-4.42,17.97-4.46c0.98-0.04,5.05,9.65,5.2,10.49
				s-20.91,3.94-20.91,3.94L122.87,254.3z"/>
			<g>
				<path class="st6" d="M158.99,223.5c0,0,3.28-11.33-0.84-19.9c0,0,6.84-4.21,9.51,0c2.67,4.21,0.28,5.9,5.34,5.97
					c5.05,0.07,4.63,2.18,4.91,4s-12.22,10.02-12.07,14.14C165.97,231.83,158.99,223.5,158.99,223.5z"/>
				<path class="st17" d="M172.99,209.57c-5.05-0.07-2.67-1.76-5.34-5.97c-1.01-1.59-2.6-1.98-4.2-1.85
					c0.18,0.45,0.42,0.93,0.68,1.46c2.18,4.44,3.21,9.4,2.82,14.34c1.37,0,2.52-1,3.4-2.05c0.88-1.05,1.66-2.24,2.84-2.91
					c1.32-0.75,2.9-0.73,4.43-0.88C177.28,210.56,176.34,209.62,172.99,209.57z"/>
				<path class="st6" d="M175.78,243.12c1.99,18.7-8.88,18.32-18.68,17.83c-9.79-0.49-17.31-9.27-16.79-19.62
					c0.52-10.34,8.88-18.32,18.68-17.83C168.78,223.99,174.68,232.82,175.78,243.12z"/>
				<path class="st17" d="M141.68,249.54c2.55,6.41,8.39,11.05,15.43,11.41c8.51,0.43,17.82,0.76,18.82-11.41H141.68z"/>
				<path class="st3" d="M157.55,223.48c0,0-1.97-2.89,1.26-3.73c3.23-0.84,12.64,3.79,13.2,5.48c0.56,1.68-2.64,2.96-2.64,2.96
					L157.55,223.48z"/>
			</g>
			<g>
				<path class="st18" d="M69.3,211.45l-1.47-8.91l-8.1,1.34l1.47,8.91c0.31,1.88-0.17,3.81-1.33,5.33l0,0
					c-1.85,2.43-2.62,5.52-2.12,8.53l5.27,31.9l19.27-3.18l-5.27-31.9c-0.5-3.02-2.22-5.69-4.75-7.4l0,0
					C70.68,215,69.61,213.33,69.3,211.45z"/>
				<path class="st19" d="M65.44,257.07l-5.27-31.9c-0.5-3.02,0.27-6.1,2.12-8.53c1.16-1.52,1.64-3.44,1.33-5.33l-1.3-7.86
					l-2.59,0.43l1.47,8.91c0.31,1.88-0.17,3.81-1.33,5.33c-1.85,2.43-2.62,5.52-2.12,8.53l5.27,31.9l19.27-3.18l-0.17-1.05
					L65.44,257.07z"/>
				
					<rect x="57.99" y="198.68" transform="matrix(0.9866 -0.163 0.163 0.9866 -31.8999 13.0188)" class="st20" width="10.84" height="4.55"/>
				
					<rect x="59.53" y="226.81" transform="matrix(0.9866 -0.163 0.163 0.9866 -37.6252 14.4535)" class="st20" width="19.53" height="19.53"/>
				
					<rect x="59.64" y="228.16" transform="matrix(0.9866 -0.163 0.163 0.9866 -37.9554 13.1392)" class="st21" width="2.95" height="19.53"/>
				<path class="st11" d="M73.52,235.5c0.5,3.06-1.01,5.85-3.38,6.24c-2.37,0.39-4.7-1.77-5.2-4.83c-0.5-3.06,1.01-5.85,3.38-6.24
					C70.69,230.28,73.02,232.44,73.52,235.5z"/>
			</g>
			<path class="st3" d="M104.35,254.3c0.26-1.05,0.41-2.15,0.41-3.28c0-7.63-6.19-13.82-13.82-13.82s-13.82,6.19-13.82,13.82
				c0,1.13,0.15,2.22,0.41,3.28H104.35z"/>
			<path class="st17" d="M158.99,223.5c-0.78-0.04-1.54-0.01-2.3,0.06c-0.71,1.04,0.04,2.83,1.67,3.99c1.61,1.15,3.6,1.59,5.42,2.36
				c5.5,2.36,9.01,7.58,11.97,12.89C174.56,232.65,168.68,223.99,158.99,223.5z"/>
		</g>
		<g>
			<polygon class="st22" points="166.13,396.52 85.95,396.52 69.95,267.48 179.46,267.48 			"/>
			<path class="st23" d="M179.46,267.48H69.95l4.32,34.8c29.05-19.94,88.97-22.48,104.01-23.29L179.46,267.48z"/>
			<rect x="63.22" y="265.55" class="st24" width="122.82" height="10.14"/>
			<polygon class="st22" points="193.43,254.3 55.14,254.3 57.8,265.55 193.43,265.55 			"/>
			<polygon class="st23" points="81.34,359.35 85.95,396.52 118.83,396.52 106.6,359.35 			"/>
			<polygon class="st25" points="81.34,366.2 85.1,396.52 111.93,396.52 101.95,366.2 			"/>
			<circle class="st6" cx="87.82" cy="382.22" r="14.3"/>
			<circle class="st26" cx="87.82" cy="382.22" r="8.86"/>
			<circle class="st11" cx="87.82" cy="382.22" r="5.25"/>
		</g>
		<path class="st27" d="M151.41,353.57H97.16c-4.95,0-8.17-5.21-5.95-9.63l27.12-54.25c2.45-4.91,9.45-4.91,11.91,0l27.12,54.25
			C159.57,348.36,156.35,353.57,151.41,353.57z"/>
		<path class="st11" d="M147.8,346.05h-47.03c-2.04,0-3.37-2.15-2.46-3.97l23.52-47.03c1.01-2.02,3.9-2.02,4.91,0l23.52,47.03
			C151.17,343.9,149.84,346.05,147.8,346.05z"/>
		<g>
			<path class="st22" d="M132.03,320.06c-0.28,0-0.54-0.15-0.67-0.42l-6.36-13.02c-0.14-0.28-0.4-0.45-0.71-0.45c0,0,0,0,0,0
				c-0.31,0-0.58,0.16-0.71,0.44l-6.21,12.42c-0.18,0.37-0.63,0.52-1.01,0.34c-0.37-0.19-0.52-0.64-0.34-1.01l6.21-12.42
				c0.39-0.79,1.18-1.27,2.06-1.27c0,0,0.01,0,0.01,0c0.88,0,1.67,0.5,2.06,1.29l6.36,13.02c0.18,0.37,0.03,0.82-0.34,1
				C132.25,320.04,132.14,320.06,132.03,320.06z"/>
			<path class="st22" d="M118.83,340.03h-9.94c-0.8,0-1.53-0.41-1.96-1.09c-0.42-0.68-0.46-1.52-0.1-2.24l7.31-14.62
				c0.19-0.37,0.64-0.52,1.01-0.33c0.37,0.19,0.52,0.64,0.34,1.01l-7.31,14.62c-0.13,0.25-0.11,0.54,0.03,0.78
				c0.15,0.24,0.4,0.38,0.68,0.38h9.94c0.41,0,0.75,0.34,0.75,0.75C119.58,339.7,119.25,340.03,118.83,340.03z"/>
			<path class="st22" d="M139.68,340.03H131c-0.41,0-0.75-0.34-0.75-0.75c0-0.41,0.34-0.75,0.75-0.75h8.68
				c0.28,0,0.53-0.14,0.68-0.38c0.15-0.24,0.16-0.52,0.04-0.78l-5.96-11.92c-0.19-0.37-0.04-0.82,0.34-1.01
				c0.37-0.18,0.82-0.04,1.01,0.34l5.96,11.92c0.36,0.72,0.32,1.55-0.1,2.24C141.21,339.63,140.48,340.03,139.68,340.03z"/>
			<path class="st22" d="M134.61,343.69c-0.19,0-0.39-0.07-0.53-0.22l-3.61-3.66c-0.29-0.29-0.29-0.76,0-1.05l3.61-3.66
				c0.29-0.3,0.77-0.3,1.06-0.01c0.29,0.29,0.3,0.77,0.01,1.06l-3.09,3.13l3.09,3.13c0.29,0.29,0.29,0.77-0.01,1.06
				C134.99,343.62,134.8,343.69,134.61,343.69z"/>
			<path class="st22" d="M116.67,327.86c-0.29,0-0.57-0.17-0.69-0.46l-1.71-4.05l-4.07,1.66c-0.38,0.16-0.82-0.03-0.98-0.41
				c-0.16-0.38,0.03-0.82,0.41-0.98l4.76-1.94c0.38-0.16,0.81,0.02,0.97,0.4l2,4.73c0.16,0.38-0.02,0.82-0.4,0.98
				C116.87,327.84,116.77,327.86,116.67,327.86z"/>
			<path class="st22" d="M132.18,320.42c-0.08,0-0.17-0.01-0.25-0.04l-4.84-1.72c-0.39-0.14-0.59-0.57-0.46-0.96
				c0.14-0.39,0.57-0.6,0.96-0.45l4.14,1.47l1.53-4.12c0.14-0.39,0.58-0.59,0.96-0.44c0.39,0.14,0.59,0.58,0.44,0.96l-1.79,4.82
				C132.77,320.23,132.49,320.42,132.18,320.42z"/>
		</g>
	</g>
	<rect y="396.52" class="st3" width="193.73" height="35.04"/>
	<g>
		<g>
			<path class="st28" d="M211,249.94l-0.02,0.01c-2.24,1.16-4.91,1.16-7.16,0l-0.02-0.01v-11.47l0,0c2.3-0.95,4.89-0.95,7.19,0l0,0
				V249.94z"/>
			<path class="st29" d="M203.81,238.47v7.98c2.34,0.72,4.85,0.72,7.19,0v-7.98C208.7,237.52,206.11,237.52,203.81,238.47z"/>
			<path class="st3" d="M213.04,243.72l-0.03,0.01c-3.51,1.82-7.69,1.82-11.21,0l-0.03-0.01v-17.96h0c3.61-1.49,7.65-1.49,11.26,0
				l0,0V243.72z"/>
			<path class="st30" d="M201.78,225.76v11.76c3.57,1.58,7.45,2.19,11.26,1.78v-13.54C209.43,224.27,205.38,224.27,201.78,225.76z"
				/>
			<path class="st6" d="M220.85,234.29l-0.05,0.02c-6.35,3.29-13.91,3.29-20.26,0l-0.05-0.02v-69.22c0-3.02,1.82-5.74,4.61-6.89l0,0
				c3.57-1.47,7.57-1.47,11.14,0l0,0c2.79,1.15,4.61,3.87,4.61,6.89V234.29z"/>
			<path class="st17" d="M220.85,234.29v-69.22c0-2.74-1.51-5.22-3.87-6.52c-1.04,2.91-1.13,6.82-1.77,9.33
				c-1.91,7.57-3.19,15.29-3.82,23.06c-0.24,2.9-0.38,5.8-0.27,8.71c0.09,2.18,0.32,4.35,0.58,6.51c0.99,8.43,2.29,16.82,3.87,25.15
				c0.29,1.55,0.62,3.11,1.13,4.59c1.4-0.4,2.78-0.91,4.1-1.59L220.85,234.29z"/>
			<path class="st3" d="M199.36,206.14v4.08c12.51,3.11,22.03,0,22.03,0v-4.08C221.4,206.14,211.87,209.24,199.36,206.14z"/>
			<path class="st31" d="M212.39,211.55c4.26-0.16,7.3-0.87,8.47-1.19v-4.08c-1.22,0.33-4.45,1.09-8.98,1.21
				C212.04,208.85,212.21,210.2,212.39,211.55z"/>
			<path class="st3" d="M199.36,181.13v4.08c12.51,3.11,22.03,0,22.03,0v-4.08C221.4,181.13,211.87,184.24,199.36,181.13z"/>
			<path class="st31" d="M211.84,186.58c4.55-0.12,7.8-0.88,9.02-1.21v-4.08c-1.17,0.32-4.22,1.02-8.48,1.19
				C212.17,183.84,211.99,185.21,211.84,186.58z"/>
			<rect x="203.73" y="177.48" class="st22" width="2.69" height="41.86"/>
			<rect x="202.48" y="180.66" class="st32" width="4.92" height="7.31"/>
			<path class="st3" d="M212.39,157.19v-6.56h-3.43v6.56C210.1,157.06,211.25,157.06,212.39,157.19z"/>
			<path class="st31" d="M208.96,155.52v1.67c1.14-0.13,2.29-0.13,3.43,0v-1.67C211.25,155.39,210.1,155.39,208.96,155.52z"/>
			<rect x="205.08" y="148.5" class="st6" width="11.19" height="2.13"/>
			<path class="st3" d="M210.59,145.86L210.59,145.86c-0.99,0-1.79,0.8-1.79,1.79v0.84h3.59v-0.84
				C212.39,146.67,211.58,145.86,210.59,145.86z"/>
			<path class="st33" d="M203.83,160.95c-0.26,0.29-0.51,0.62-0.6,1c-0.1,0.38-0.02,0.83,0.28,1.09c0.31,0.27,0.76,0.27,1.16,0.18
				c0.64-0.14,1.21-0.48,1.74-0.87c0.8-0.6,1.51-1.32,2.09-2.14c0.21-0.3,0.42-0.67,0.31-1.02
				C208.18,157.18,204.4,160.31,203.83,160.95z"/>
			<path class="st33" d="M201.95,167.1c0.24,0.31,0.67,0.47,1.03,0.33c0.23-0.09,0.4-0.29,0.55-0.49c0.22-0.3,0.41-0.64,0.49-1.01
				c0.18-0.9-0.73-1.95-1.65-1.38C201.66,165.01,201.47,166.47,201.95,167.1z"/>
		</g>
		<g>
			<path class="st34" d="M333.13,388.55c0,0,3.82,3.32,6.33,6.99c2.52,3.68,29.8,8.32,32.31,12.58c2.52,4.26,0,10.06,0,10.06h-68.11
				c0,0-2.13-10.86,1.74-14.82c3.87-3.95,1.35-12.85,1.35-12.85L333.13,388.55z"/>
			<path class="st35" d="M307.34,399.19c3.44,0.9,6.96,1.54,10.5,1.88c2.09,0.2,4.21,0.3,6.28-0.07c1.96-0.36,3.82-1.13,5.7-1.8
				c3.79-1.34,7.52-1.89,11.35-2.4c-0.82-0.43-1.42-0.85-1.7-1.26c-2.52-3.68-6.33-6.99-6.33-6.99l-26.37,1.96
				C306.76,390.51,308.06,395.12,307.34,399.19z"/>
			<path class="st36" d="M372.09,408.73c-3.78,0.99-13.36,1.56-22.38,2.15c-10.84,0.7-27.59-0.42-32.37-3.24
				c-4.77-2.8-13.02-2.57-13.08-2.57c-2.23,4.72-0.59,13.11-0.59,13.11h68.11C371.78,418.18,374.06,412.91,372.09,408.73z"/>
			<path class="st37" d="M303.28,415.38c0.17,1.66,0.39,2.8,0.39,2.8h68.11c0,0,0.49-1.15,0.82-2.8H303.28z"/>
		</g>
		<path class="st22" d="M253.5,144.09c0,0-23.5-2.58-32.54,11.94c-9.04,14.52-6.13,74.88,0,77.14c6.13,2.26,22.01,1.61,22.01,1.61
			L253.5,144.09z"/>
		<path class="st38" d="M220.96,172.78c7.47-12.01,24.82-12.32,30.61-12.07l1.93-16.61c0,0-23.5-2.58-32.54,11.94
			c-4.84,7.78-6.25,28.68-5.58,46.78C215.88,190.02,217.59,178.2,220.96,172.78z"/>
		<g>
			<path class="st3" d="M294.69,153.09c11.09-0.78,19.21,3.59,21.7,4.06c2.5,0.47,6.25-4.06,6.25-4.06
				c9.06-9.68,20.78-19.16,20.78-19.16l12.07,5.41c0,0-12.74,20.95-17.4,25.77c-5.22,5.39-13.88,12.61-18.2,14.02
				c-12.89,4.22-23.36,35.18-23.36,43.06c0,7.88,6.76,38,16.89,55.73c10.13,17.73,12.95,28.99,13.23,37.44
				c0.28,8.44,4.5,34.06,6.47,44.75c1.97,10.7,0,28.43,0,28.43c-12.67,8.16-27.32,3.07-27.32,3.07c-4.22-9.29,2.79-25.32-1.7-35.44
				s-4.5-36.46-7.55-42.88c-3.05-6.42-7.55-15.9-10.12-21.68c-2.57-5.78-6.29-6.03-6.29-6.03c-2.79,0.28-5.02,21.46-4.46,28.7
				c0.56,7.25-4.18,26.82-4.18,36.79c0,6.43,0.33,32.93-1.6,37.95c-1.93,5.02-5.51-1.16-11.83,1.82c-4.39,2.07-18.55,2.02-19.12,0.4
				c-1.41-4,0.51-21.78,1.34-31.26c0.84-9.48,5.29-23.41,3.62-39.57c-1.67-16.16,0.84-41.24,0.56-44.31
				c-0.28-3.07-4.46-11.43-6.41-20.9c-1.95-9.47,1.64-32.42,1.64-32.42c-10.95,0.84-13.8-5.32-15.2-9.59
				c-8.08-24.7,9.77-57.18,18.64-59.36c8.87-2.17,8.87-8.14,8.87-8.14c-8.51-41.44,20.63-40.54,20.63-40.54s13.27-0.73,18.36,5.59
				c5.09,6.31,5.91,20.98,4.48,25.26C294.07,140.29,292.14,150.8,294.69,153.09z"/>
			<path class="st3" d="M294.69,153.09c11.09-0.78,19.21,3.59,21.7,4.06c2.5,0.47,6.25-4.06,6.25-4.06
				c9.06-9.68,20.78-19.16,20.78-19.16l12.07,5.41c0,0-12.74,20.95-17.4,25.77c-5.22,5.39-13.88,12.61-18.2,14.02
				c-12.89,4.22-23.36,35.18-23.36,43.06c0,7.88,6.76,38,16.89,55.73c10.13,17.73,12.95,28.99,13.23,37.44
				c0.28,8.44,4.5,34.06,6.47,44.75c1.97,10.7,0,28.43,0,28.43c-12.67,8.16-27.32,3.07-27.32,3.07c-4.22-9.29,2.79-25.32-1.7-35.44
				s-4.5-36.46-7.55-42.88c-3.05-6.42-7.55-15.9-10.12-21.68c-2.57-5.78-6.29-6.03-6.29-6.03c-2.79,0.28-5.02,21.46-4.46,28.7
				c0.56,7.25-4.18,26.82-4.18,36.79c0,6.43,0.33,32.93-1.6,37.95c-1.93,5.02-5.51-1.16-11.83,1.82c-4.39,2.07-18.55,2.02-19.12,0.4
				c-1.41-4,0.51-21.78,1.34-31.26c0.84-9.48,5.29-23.41,3.62-39.57c-1.67-16.16,0.84-41.24,0.56-44.31
				c-0.28-3.07-4.46-11.43-6.41-20.9c-1.95-9.47,1.64-32.42,1.64-32.42c-10.95,0.84-13.8-5.32-15.2-9.59
				c-8.08-24.7,9.77-57.18,18.64-59.36c8.87-2.17,8.87-8.14,8.87-8.14c-8.51-41.44,20.63-40.54,20.63-40.54s13.27-0.73,18.36,5.59
				c5.09,6.31,5.91,20.98,4.48,25.26C294.07,140.29,292.14,150.8,294.69,153.09z"/>
			<path class="st31" d="M292.71,161.42c1.08,1.27,1.77,2.82,2.65,4.23c3.16-2.8,3.91-7.42,3.93-11.64c0-0.31-0.01-0.63-0.02-0.95
				c-1.46-0.07-2.99-0.08-4.58,0.03c-1.36-1.22-1.44-4.79-1.01-8.5c-1.93-0.23-4.02,0.38-5.79,1.3c-2.51,1.31-4.76,3.18-7.45,4.06
				c-5.53,1.82-11.23-0.76-16.77-1.14c-2.58-0.18-4.66-0.18-4.15,2.91c0.41,2.48,2.57,4.66,4.74,5.73c2.96,1.46,6.42,1.51,9.7,1.19
				c3.29-0.32,6.56-1,9.86-0.87C287.11,157.87,290.56,158.92,292.71,161.42z"/>
			<path class="st8" d="M296.26,252.23c1.81-1.01,4.01-2.49,5.35-4.36c-0.4-1.42-0.78-2.82-1.14-4.19c-1.73,0.51-3.94,1.82-5,2.24
				c-7.36,2.91-15.04,5.2-22.97,5.8c-4.85,0.37-9.73,0.1-14.59-0.17c-6.69-0.37-13.65-0.81-19.51-4.06
				c-0.29-0.16-0.59-0.33-0.9-0.44c-0.02,3.13,0.13,6,0.58,8.16c1.03,4.98,2.66,9.65,4.03,13.4c0.4-0.85,0.81-1.69,1.26-2.5
				c1.51-2.73,3.59-5.33,6.48-6.5c1.91-0.77,4.01-0.87,6.07-0.95c5.32-0.22,10.64-0.44,15.96-0.65c3.28-0.13,6.56-0.27,9.8-0.77
				C286.79,256.44,291.75,254.74,296.26,252.23z"/>
			<path class="st31" d="M343.42,133.94c0,0-0.82,0.67-2.18,1.81c0.53,0.62,1.12,1.23,1.41,1.67c0.84,1.29,1.55,2.66,2.08,4.1
				c0.99,2.71,1.31,5.67,0.51,8.47c-0.76,2.68-2.43,4.99-4.07,7.24c-3.74,5.12-7.49,10.25-11.23,15.37
				c2.94-2.41,5.88-5.12,8.16-7.47c4.66-4.81,17.4-25.77,17.4-25.77L343.42,133.94z"/>
			<path class="st39" d="M240.29,205.11l0.12-0.54c0.03-0.12,2.78-12.4,2.95-19.76l0.67,0.02c-0.15,6.54-2.32,16.9-2.85,19.36
				c12.07-3.13,23.89-2.82,24.01-2.82l-0.02,0.67c-0.12,0-12.19-0.32-24.35,2.94L240.29,205.11z"/>
			<path class="st8" d="M239.72,222.79c0,0-0.93,5.91-1.58,12.98c10.33-10.8,29.14-19.88,29.14-19.88
				C257.2,219.53,239.72,222.79,239.72,222.79z"/>
			<path class="st8" d="M286.44,291.61c1.65,3.71,4.09,8.94,6.44,13.92c0.55,0.51,2.68,5.77,2.69,5.67
				c0.31-9.47-4.98-22.86-12.39-28.75c-2.95-2.34-3.87,1.27-3.87,3.88c0.28-0.45,0.56-0.72,0.86-0.75
				C280.16,285.58,283.87,285.83,286.44,291.61z"/>
			<path class="st8" d="M304.11,356.18c1.47,3.3,1.7,7.24,1.51,11.36c1.53-1.19,2.42-3.22,3-5.14c0.46-1.5,0.83-3.12,0.34-4.61
				c-0.33-1-1.01-1.84-1.68-2.65c-1.45-1.75-3.31-4.6-5.09-5.25C302.73,352.32,303.35,354.48,304.11,356.18z"/>
			<path class="st8" d="M247.73,336.16c-0.18-3.44,0.18-14.46-3.43-16.28c-0.15-0.08-0.29-0.11-0.44-0.16
				c0.02,0.23,0.04,0.47,0.07,0.7c1.62,15.64-2.5,29.18-3.52,38.63c0.22-0.14,0.37-0.37,0.49-0.61c1.14-2.29,2.28-4.59,3.41-6.88
				c1.36-2.74,2.73-5.53,3.26-8.54C247.95,340.76,247.85,338.45,247.73,336.16z"/>
			<path class="st8" d="M271.52,351.07c0-3.45,0.57-8.06,1.29-12.91c-4.07,5.72-2.74,19.91-3.78,24.45
				c-1.04,4.58-3.06,9.72-0.47,13.63c1.1-0.6,2.01-1.39,2.79-2.32C271.62,364.91,271.52,354.74,271.52,351.07z"/>
			<path class="st8" d="M327.27,322.36c-0.28,0.74-0.45,1.54-0.53,2.23c-0.49,4.17-0.49,8.4-0.07,12.58
				c0.13,1.22,2.78,12.19,2.63,12.3c0.65-0.48,1.2-1.06,1.69-1.69C329.6,339.34,328.09,329.49,327.27,322.36z"/>
		</g>
		<g>
			<path class="st6" d="M266.1,388.55c0,0,3.82,3.32,6.33,6.99c2.52,3.68,29.8,8.32,32.31,12.58c2.52,4.26,0,10.06,0,10.06h-68.11
				c0,0-2.13-10.86,1.74-14.82c3.87-3.95,1.35-12.85,1.35-12.85L266.1,388.55z"/>
			<path class="st35" d="M248.3,397.35c3.46,0.04,7.11,0.04,10.1-1.7c0.91-0.53,1.75-1.22,2.72-1.63c2-0.86,4.28-0.48,6.43-0.14
				c1.31,0.21,2.78,0.53,4.27,0.78c-2.48-3.31-5.7-6.12-5.7-6.12l-26.37,1.96c0,0,0.92,3.28,0.78,6.75
				C243.11,397.29,245.7,397.32,248.3,397.35z"/>
			<path class="st26" d="M305.06,408.73c-3.78,0.99-13.36,1.56-22.38,2.15c-10.84,0.7-27.59-0.42-32.37-3.24
				c-4.77-2.8-13.02-2.57-13.08-2.57c-2.23,4.72-0.59,13.11-0.59,13.11h68.11C304.75,418.18,307.02,412.91,305.06,408.73z"/>
			<path class="st40" d="M236.21,414.99c0.17,1.87,0.43,3.19,0.43,3.19h68.11c0,0,0.57-1.33,0.9-3.19H236.21z"/>
		</g>
		<path class="st31" d="M287.63,181.42c-3.25,0-6.49,0-9.74,0.01c-3,0-6,0-8.98,0.27c-2.61,0.23-5.3,0.71-7.47,2.18
			c-2.17,1.47-3.7,4.16-3.1,6.72c0.17,0.72,0.5,1.43,0.48,2.17c-0.03,1.27-1.05,2.26-1.99,3.11c-1.91,1.72-3.83,3.44-5.74,5.17
			c2.13-4.11,3.12-8.79,2.84-13.41c-0.09-1.5-0.31-3.03,0.07-4.48c0.58-2.24,2.53-3.91,4.66-4.82c2.99-1.28,6.34-1.3,9.59-1.31
			c8.5-0.01,17-0.02,25.5-0.03c1.51,0,3.16,0.04,4.34,0.99c1.94,1.57,0.79,3.56-1.02,3.93
			C294.44,182.45,290.41,181.41,287.63,181.42z"/>
		<g>
			<path class="st6" d="M243.19,203.7c2.88-0.66,5.71-1.14,8.33-1.48c1.06-1.89,6.13-11.7,5.22-25.18c-0.93-13.72-7-26.61-7-26.61
				c-5.34-1.94-5.7,3.18-5.7,3.18S257.41,179.76,243.19,203.7z"/>
			<path class="st41" d="M246.37,163.32l1.46,10.04l10.62-1.54l-1.46-10.04L246.37,163.32z M255.54,169.78l-5.51,0.8l-0.76-5.21
				l5.51-0.8L255.54,169.78z"/>
			
				<rect x="250.98" y="186" transform="matrix(0.175 -0.9846 0.9846 0.175 20.1246 406.1434)" class="st41" width="2.84" height="10.12"/>
			<path class="st6" d="M300.54,152.24l-6.18-0.33c0,0,3.7,13.79,2.54,30.59c0,0,2.81-1.72,4.45-2.02
				C302.64,164.26,300.54,152.24,300.54,152.24z"/>
			<path class="st41" d="M293.99,159.67l0.42,9.24l9.77-0.45l-0.42-9.24L293.99,159.67z M301.73,166.35l-5.07,0.23l-0.22-4.79
				l5.07-0.23L301.73,166.35z"/>
			<path class="st42" d="M256.85,181.16c0,0,18.5-5.62,40.24-2.81l0.17-4.17c0,0-19.64-4.04-40.69,1.71L256.85,181.16z"/>
			<path class="st41" d="M289.9,178.69h-2.39c-0.93,0-1.68-0.75-1.68-1.68v-4.2c0-0.93,0.75-1.68,1.68-1.68h2.39
				c0.93,0,1.68,0.75,1.68,1.68v4.2C291.58,177.94,290.83,178.69,289.9,178.69z"/>
			<rect x="287.27" y="178.69" class="st43" width="2.88" height="3.82"/>
			<polygon class="st41" points="289.36,191.9 288.05,192.88 288.05,182.51 289.36,182.51 			"/>
		</g>
		<g>
			<path class="st6" d="M300.46,237.76c-14.62,15.18-61.97,13.06-63.49,0c0,0-1.91,8.33-0.21,10.12c1.7,1.79,36.41,18.2,65.01-2.78
				C303.02,240.76,300.46,237.76,300.46,237.76z"/>
			<path class="st41" d="M250.48,245.56l-1.48,7.85c-0.14,0.75,0.35,1.47,1.1,1.61l7.85,1.48c0.75,0.14,1.47-0.35,1.61-1.1
				l1.48-7.85c0.14-0.75-0.35-1.47-1.1-1.61l-7.85-1.48C251.34,244.32,250.62,244.81,250.48,245.56z M255.97,253.6l-2.98-0.56
				c-0.75-0.14-1.24-0.86-1.1-1.61l0.56-2.98c0.14-0.75,0.86-1.24,1.61-1.1l2.98,0.56c0.75,0.14,1.24,0.86,1.1,1.61l-0.56,2.98
				C257.44,253.25,256.72,253.74,255.97,253.6z"/>
		</g>
		<path class="st22" d="M352.04,146.08c-4.52-1.86-11.52-11.66-11.52-11.66s5.71-3.65,7.71-6.81c2-3.16-0.32-4.75-0.83-9.69
			c-0.51-4.94-0.94-7.84-0.51-9.11c0.43-1.28,2.9-1.11,4.26,2.04c1.36,3.15,1.7,8.26,2.9,8.18c1.19-0.09,2.64-4,3.07-5.37
			c0.43-1.36,0.34-18.99,3.41-20.44c3.07-1.45,2.56,2.73,2.56,3.59s-1.88,13.47,0.58,14.55c2.94,1.29,9.88-18.09,11.41-18.77
			c1.53-0.68,3.83-0.17,3.66,2.21c-0.17,2.38-9.62,18.1-8.68,19.8s3.95-2.79,5.23-4.75c1.28-1.96,7.46-9.99,9.25-10.24
			c1.79-0.26,3.2,1.44,1.5,3.4c-1.7,1.96-11.99,14.36-11.81,16.56c0.17,2.2,8.4-2.72,9.77-2.73c1.36-0.02,2.81,2.03,0.94,3.73
			s-9.84,4.51-10.78,5.36c-0.94,0.85-6.82,5.88-10.43,7.32C360.09,134.7,352.04,146.08,352.04,146.08z"/>
		<g>
			<path class="st44" d="M309.6,191.96c0,0,3.42,2.16,3.52,8.37c0.1,6.21-10.43,5.12-10.43,5.12l-0.93,2.64
				c0,0,11.46,0.89,13.76-4.01c2.3-4.9-3.68-14.48-3.68-14.48L309.6,191.96z"/>
			<path class="st45" d="M311.84,189.6l-2.24,2.36c0,0,1.05,0.66,2,2.3c0.54-0.48,1.16-0.89,1.8-1.22c0.08-0.04,0.16-0.06,0.24-0.1
				C312.7,190.98,311.84,189.6,311.84,189.6z"/>
			<path class="st46" d="M298.91,181.22c-5.18,2.22-4.44,8.38-4.44,8.38l0,0.09c1.7-0.23,3.16,0.12,4.09,0.91
				c1.98,1.66-0.73,4.28-0.73,4.28c2.78-0.3,6.32,0.21,8.79,1.27c0,0,0,0,0,0c2.26-6.09,12.2-7.31,12.2-7.31v-9.28
				C318.82,179.55,304.09,179,298.91,181.22z"/>
			<path class="st47" d="M306.63,196.15c0.29-0.78,0.7-1.47,1.2-2.1c-1.79-0.31-3.67-0.31-5.33-1.04c-0.48-0.21-0.96-0.5-1.24-0.95
				c-0.33-0.51-0.36-1.16-0.55-1.74c-0.55-1.65-2.42-2.58-4.17-2.55c-0.75,0.01-1.43,0.2-2.09,0.43c-0.05,0.83,0.02,1.39,0.02,1.39
				l0,0.09c1.7-0.23,3.16,0.12,4.09,0.91c1.98,1.66-0.73,4.28-0.73,4.28C300.61,194.58,304.15,195.09,306.63,196.15
				C306.63,196.15,306.63,196.15,306.63,196.15z"/>
			<rect x="318.82" y="181.16" class="st6" width="60.82" height="3.66"/>
			<rect x="318.82" y="182.99" class="st17" width="60.82" height="1.83"/>
			<rect x="345.59" y="179.49" class="st3" width="2.36" height="7.13"/>
			<polygon class="st46" points="383.3,187.9 379.65,184.82 379.65,181.16 383.3,178.08 			"/>
			<path class="st48" d="M313.12,179.5v10.89c2.94-1.21,5.7-1.56,5.7-1.56v-9.28C318.82,179.55,316.37,179.46,313.12,179.5z"/>
			<polygon class="st46" points="288.78,214.41 288.14,220 293.89,221.84 297.25,216.49 			"/>
			<polygon class="st49" points="289.44,220.42 288.54,223.28 290.86,224.24 292.7,221.46 			"/>
			<rect x="313.12" y="181.67" class="st50" width="5.7" height="1.87"/>
			<rect x="313.12" y="185.68" class="st50" width="5.7" height="1.87"/>
			<path class="st47" d="M288.42,217.59c1.06,0.43,2.13,0.82,3.24,1.1c1.38,0.35,2.68,0.38,4,0.34l1.6-2.54l-8.47-2.07
				L288.42,217.59z"/>
		</g>
		<g>
			<path class="st9" d="M245.32,89.55c0,3.79-2.45,22.83-5.48,22.83c-3.03,0-5.48-19.04-5.48-22.83c0-3.79,2.45-6.87,5.48-6.87
				C242.87,82.69,245.32,85.76,245.32,89.55z"/>
			<path class="st9" d="M242.92,119.31c0,1.7-1.38,3.08-3.08,3.08c-1.7,0-3.08-1.38-3.08-3.08c0-1.7,1.38-3.08,3.08-3.08
				C241.54,116.22,242.92,117.6,242.92,119.31z"/>
		</g>
		<g>
			<path class="st51" d="M298.07,91.32c-0.8,6.64-5.36,11.58-5.36,11.58l2.24,0.85c4.06-2.55,9.84-9.19,9.84-9.19L298.07,91.32z"/>
			<path class="st51" d="M297.46,108.04l0.68,1.95c2.43,1.31,11.76,1.08,11.76,1.08v-5.54
				C307.03,107.32,297.46,108.04,297.46,108.04z"/>
			<polygon class="st51" points="287.03,102.1 284.91,102.1 282.91,93.11 287.74,92 			"/>
		</g>
		<g>
			<path class="st22" d="M265.18,200.48c0,0-0.21,12.06,3.12,17.58c0,0,8.74-3.43,14.14-3.02s13.24,3.03,16.22,2.5
				c4.06-0.73,3.64-3.43,3.43-4.99c0,0,3.85-2.5,1.77-5.3c0,0,2.25-2.91,0.5-4.99c0,0,4.8,0.31,5.22-2.81
				c0.42-3.12-6.86-5.08-11.75-4.56c0,0,2.7-2.62,0.73-4.28c-1.98-1.66-6.24-1.46-10.4,2.29c-4.16,3.74-6.66,5.72-11.54,7.07
				C271.73,201.31,265.18,200.48,265.18,200.48z"/>
			<path class="st52" d="M306.04,202.16c-0.58-1.46-5.8-0.8-6.69-1.4c1.19,0.8,2.61,1.11,3.9,1.7c0.38,0.18,1.05,0.61,1.65,0.78
				c-0.1-0.34-0.27-0.67-0.53-0.99C304.36,202.24,305.11,202.29,306.04,202.16z"/>
			<path class="st52" d="M303.36,207.63c0.32,0.14,0.64,0.31,0.95,0.46c-0.1-0.28-0.24-0.57-0.45-0.86c0,0,0.2-0.26,0.43-0.66
				c-0.53,0.06-1.06,0.11-1.59,0.09c-1.04-0.05-2.08-0.24-3.06-0.59c-0.78-0.28-1.56-0.65-2.38-0.6c0.71,0.84,1.82,1.22,2.9,1.43
				C301.24,207.1,302.35,207.19,303.36,207.63z"/>
			<path class="st52" d="M300.95,212.4c-0.59-0.07-1.17-0.2-1.76-0.16c0.06,0.16,0.18,0.29,0.29,0.42c0.32,0.36,0.65,0.71,0.97,1.07
				c0.17,0.19,0.34,0.38,0.49,0.59c0.3,0.44,0.52,0.97,0.91,1.33c0.54-1.03,0.37-2.24,0.26-3.1c0,0,0.05-0.03,0.12-0.08
				C301.79,212.46,301.37,212.45,300.95,212.4z"/>
		</g>
		<g>
			<g>
				<path class="st6" d="M290.58,152.13c1.1-1.15,2.07-2.42,2.88-3.79c-0.03-4.09,1.11-9.54,2.04-12.33c0.47-1.4,0.69-3.91,0.6-6.87
					c-0.04-0.41-0.08-0.83-0.12-1.24c-0.21-2.09-0.44-4.26-1.54-6.05c-1.87-3.06-5.7-4.66-6.87-8.05c-2.47-0.06-4.32-1.43-5.89-3.33
					c-0.8,1.29-2.26,2.06-3.76,2.32c-1.49,0.27-3.03,0.09-4.53-0.13c-0.97,2.56-3.66,4.35-6.39,4.28c-1.21,2.07-2.94,3.83-4.98,5.08
					c0,0,1.23,6.23,1.02,8.31c-0.37,3.69-1.02,7.91-1.02,7.91v10.85c0,0,9.39,11.45,28.71,3.45L290.58,152.13z"/>
				<path class="st53" d="M282.04,113.73c0.47,0.21,0.82,0.59,1.25,0.87c0.65,0.42,1.43,0.56,2.17,0.79
					c1.14,0.35,2.2,0.93,3.25,1.49c0.72,0.39,1.43,0.77,2.15,1.16c-1.38-1.24-2.69-2.51-3.29-4.26c-2.47-0.06-4.32-1.43-5.89-3.33
					c-0.8,1.29-2.26,2.06-3.76,2.32c-1.49,0.27-3.03,0.09-4.53-0.13c-0.97,2.56-3.66,4.35-6.39,4.28c-1.21,2.07-2.94,3.83-4.98,5.08
					c0,0,0.28,1.4,0.54,3.1c0.3-0.11,0.61-0.31,0.94-0.63c1.98-1.96,2.55-5.2,5.2-6.51c1.62-0.8,3.81-0.68,4.85-2.15
					c0.29-0.42,0.48-0.96,0.94-1.19c0.34-0.17,0.75-0.12,1.13-0.09c1.06,0.08,2.14-0.04,3.15-0.36
					C279.85,113.83,281.01,113.28,282.04,113.73z"/>
				<path class="st54" d="M285.27,137.28c7.89-0.32,8.21-9.79,6.79-14.84c-1.42-5.05-11.84-6.94-20.68-3.95
					c-8.84,3-5.21,15.94-5.21,15.94s0.63,2.21,6.94,2.84C279.43,137.91,285.27,137.28,285.27,137.28z"/>
				<path class="st18" d="M284.48,136.01c6.89-0.28,7.17-8.55,5.93-12.96c-1.24-4.41-10.34-6.07-18.06-3.45
					c-7.72,2.62-4.55,13.92-4.55,13.92s0.55,1.93,6.07,2.48C279.38,136.56,284.48,136.01,284.48,136.01z"/>
				<path class="st55" d="M279.25,118.38c-2.02,9.09-5.48,12.67-8.45,17.07c0.8,0.23,1.8,0.44,3.07,0.56
					c0.56,0.06,1.12,0.1,1.66,0.13h0c0.18-0.35,0.35-0.71,0.5-1.07c2.19-5.11,3.76-10.52,4.15-16.06c0.02-0.21,0.03-0.43,0.03-0.64
					C279.9,118.37,279.57,118.37,279.25,118.38C279.25,118.38,279.25,118.38,279.25,118.38z"/>
				<path class="st55" d="M283.75,118.69c-0.56,2.56-2.38,10.25-5.4,17.56c0.39,0,0.78,0.01,1.15,0c2.93-7.08,4.73-14.53,5.35-17.32
					C284.49,118.84,284.13,118.76,283.75,118.69z"/>
			</g>
			<g>
				<g>
					<path class="st56" d="M288.65,139.66c2.85-1.65,5.91-1.86,7.66-0.74c0,0,6.12,5.14,6.12,5.14s-14.5,10.53-14.73,9.85
						c-0.23-0.69-2.94-6.09-3.16-6.58C283.27,145.13,285.11,141.7,288.65,139.66z"/>
					<path class="st57" d="M297.28,139.73c-2.08-0.51-4.87-0.04-7.52,1.49c-2.83,1.63-4.7,4.01-5.17,6.19
						c0.11,0.24,0.41,0.85,0.8,1.63c0.29-2.29,2.24-4.89,5.26-6.63c3.04-1.76,6.27-2.12,8.4-1.2
						C298.39,140.66,297.76,140.14,297.28,139.73z"/>
					<ellipse transform="matrix(0.866 -0.5 0.5 0.866 -35.1955 167.9008)" class="st43" cx="295.71" cy="149.63" rx="9" ry="4.59"/>
					<path class="st58" d="M291.75,153.29c0.25,0.43,1.14,0.39,1.99-0.1c0.85-0.49,1.33-1.24,1.08-1.67
						c-0.25-0.43-1.14-0.39-1.99,0.1C291.99,152.11,291.5,152.86,291.75,153.29z"/>
					<path class="st58" d="M292.63,149.49c0.17,0.3,0.79,0.27,1.38-0.07c0.59-0.34,0.92-0.86,0.75-1.16
						c-0.17-0.3-0.79-0.27-1.38,0.07C292.8,148.67,292.46,149.19,292.63,149.49z"/>
					<path class="st58" d="M300.08,148.48c0.17,0.3,0.79,0.27,1.38-0.07c0.59-0.34,0.92-0.86,0.75-1.16
						c-0.17-0.3-0.79-0.27-1.38,0.07C300.24,147.66,299.91,148.18,300.08,148.48z"/>
					<path class="st58" d="M289.45,152.58c0.15,0.25,0.67,0.23,1.17-0.06c0.5-0.29,0.78-0.73,0.64-0.98
						c-0.15-0.25-0.67-0.23-1.17,0.06S289.3,152.33,289.45,152.58z"/>
					<path class="st58" d="M296.1,151.27c0.22,0.39,1.02,0.35,1.78-0.09c0.76-0.44,1.19-1.11,0.97-1.49
						c-0.22-0.39-1.02-0.35-1.78,0.09C296.31,150.21,295.87,150.88,296.1,151.27z"/>
					<path class="st58" d="M296.52,146.97c0.25,0.43,1.14,0.39,1.99-0.1c0.85-0.49,1.33-1.24,1.08-1.67
						c-0.25-0.43-1.14-0.39-1.99,0.1C296.76,145.79,296.27,146.53,296.52,146.97z"/>
				</g>
				<g>
					<path class="st56" d="M272.23,139.66c-2.85-1.65-5.91-1.86-7.66-0.74c0,0-6.12,5.14-6.12,5.14s14.5,10.53,14.73,9.85
						c0.23-0.69,2.94-6.09,3.16-6.58C277.6,145.13,275.76,141.7,272.23,139.66z"/>
					<path class="st57" d="M271.26,141.2c-2.48-1.43-5.08-2.02-7.22-1.83c-0.49,0.41-1.25,1.05-2.06,1.73
						c2.34-0.69,5.58-0.21,8.66,1.56c2.54,1.47,4.41,3.49,5.3,5.49c0.21-0.42,0.35-0.72,0.4-0.82c0.11-0.2,0.17-0.41,0.24-0.63
						C275.67,144.69,273.8,142.67,271.26,141.2z"/>
					<ellipse transform="matrix(0.5 -0.866 0.866 0.5 3.0033 304.4538)" class="st43" cx="265.17" cy="149.63" rx="4.59" ry="9"/>
					<path class="st58" d="M262.7,146.41c-0.16,0.28-0.74,0.25-1.28-0.07c-0.55-0.32-0.86-0.8-0.7-1.08
						c0.16-0.28,0.74-0.25,1.28,0.07C262.55,145.65,262.87,146.13,262.7,146.41z"/>
					<path class="st58" d="M266.81,149.97c-0.2,0.34-0.9,0.3-1.57-0.08c-0.67-0.39-1.05-0.98-0.85-1.32c0.2-0.34,0.9-0.3,1.57,0.08
						C266.62,149.04,267,149.63,266.81,149.97z"/>
					<path class="st58" d="M271.27,151.08c-0.2,0.34-0.9,0.3-1.57-0.08c-0.67-0.39-1.05-0.98-0.85-1.32c0.2-0.34,0.9-0.3,1.57,0.08
						C271.08,150.15,271.46,150.74,271.27,151.08z"/>
					<path class="st58" d="M268.43,147.85c-0.15,0.27-0.7,0.24-1.22-0.06c-0.52-0.3-0.82-0.76-0.67-1.02
						c0.15-0.27,0.7-0.24,1.22,0.06C268.29,147.12,268.59,147.58,268.43,147.85z"/>
					<path class="st58" d="M269.54,153.68c-0.2,0.34-0.9,0.3-1.57-0.08c-0.67-0.39-1.05-0.98-0.85-1.32c0.2-0.34,0.9-0.3,1.57,0.08
						C269.35,152.75,269.73,153.34,269.54,153.68z"/>
					<path class="st58" d="M261.58,149.37c-0.16,0.28-0.73,0.25-1.27-0.07c-0.54-0.31-0.85-0.79-0.69-1.07
						c0.16-0.28,0.73-0.25,1.27,0.07S261.74,149.09,261.58,149.37z"/>
					<path class="st58" d="M265.5,152.4c-0.15,0.25-0.67,0.23-1.17-0.06c-0.5-0.29-0.78-0.73-0.64-0.98
						c0.15-0.25,0.67-0.23,1.17,0.06C265.36,151.71,265.65,152.15,265.5,152.4z"/>
				</g>
			</g>
		</g>
		<path class="st11" d="M289.11,223.52c-9.24,13.34-11.01,18.57-13.65,26.45c-1.93,5.74-4.33,12.89-10.37,25.69
			c-5.68,12.05-15.06,18.52-26.42,18.26c-11.28-0.28-23-7.49-26.68-16.4c-3.22-7.81-3.28-22.38-3.22-26.82
			c-0.51,0.09-1.02,0.14-1.53,0.13c-0.03,0.89-0.59,17.78,3.33,27.28c3.89,9.44,16.22,17.06,28.06,17.35
			c0.25,0.01,0.5,0.01,0.75,0.01c11.66,0,21.26-6.78,27.09-19.15c6.07-12.88,8.49-20.08,10.44-25.86
			c2.72-8.08,4.36-12.97,13.65-26.33L289.11,223.52z"/>
	</g>
	<rect y="418.18" class="st8" width="193.73" height="13.38"/>
	<path class="st8" d="M77.12,251.03c0,1.13,0.15,2.22,0.41,3.28h26.82c0.26-1.05,0.41-2.15,0.41-3.28c0-0.3-0.03-0.6-0.05-0.9H77.16
		C77.14,250.43,77.12,250.72,77.12,251.03z"/>
	<g>
		<path class="st3" d="M469.74,80.08c-38.16,0-69.1,30.94-69.1,69.1c0,17.85,6.77,34.11,17.88,46.38l-9.42,34.34l31.79-17.94
			c8.78,4.04,18.55,6.32,28.85,6.32c38.16,0,69.1-30.94,69.1-69.1C538.84,111.02,507.9,80.08,469.74,80.08z"/>
		
			<ellipse transform="matrix(0.195 -0.9808 0.9808 0.195 231.6867 580.9021)" class="st59" cx="469.74" cy="149.3" rx="61.79" ry="61.79"/>
		<path class="st9" d="M453.32,112.95c0.01-0.21,0.02-0.42,0.03-0.63c0.02-1.25,0.76-2.39,1.92-2.85c2.23-0.88,3.52-0.99,4.64-0.17
			l-0.94-1.97l-0.15-0.32l-0.94-1.97c-0.06,1.25-0.78,2.16-2.44,3.2c-1.22,0.76-2.86,0.65-3.84-0.41c-0.17-0.19-0.36-0.36-0.55-0.53
			c-1.09-0.95-1.48-2.45-0.87-3.75c0.86-1.83,1.66-2.67,2.92-2.86l-2.06-0.73l-0.34-0.12l-2.06-0.73c0.85,0.94,0.98,2.11,0.52,4.07
			c-0.33,1.4-1.59,2.32-3.03,2.35c-0.25,0.01-0.49,0.02-0.74,0.05c-1.43,0.18-2.77-0.77-3.25-2.12c-0.68-1.89-0.7-3.05,0.05-4.07
			l-1.97,0.94l-0.32,0.15l-1.97,0.94c1.29,0.06,2.22,0.83,3.31,2.62c0.73,1.2,0.69,2.78-0.26,3.82c-0.12,0.13-0.24,0.27-0.35,0.41
			c-0.9,1.15-2.53,1.45-3.82,0.75c-1.5-0.82-3.1-1.89-3.24-2.84l-0.73,2.06l-0.12,0.34l-0.73,2.06c1.07-0.97,2.43-1,4.9-0.31
			c1.27,0.36,2.14,1.5,2.22,2.81c0.01,0.1,0.01,0.2,0.03,0.31c0.15,1.41-0.55,2.78-1.86,3.32c-2.45,1.01-3.82,1.18-5,0.31l0.94,1.97
			l0.15,0.32l0.94,1.97c0.07-1.49,1.09-2.5,3.5-3.82c1.19-0.65,2.64-0.4,3.65,0.52c0.04,0.03,0.07,0.07,0.11,0.1
			c1.02,0.89,1.43,2.3,0.92,3.56c-1.07,2.62-1.92,3.77-3.42,4l2.06,0.73l0.34,0.12l2.06,0.73c-1-1.1-1-2.51-0.24-5.12
			c0.4-1.37,1.66-2.23,3.09-2.25c0.06,0,0.11,0,0.17,0c1.31-0.04,2.53,0.68,3.04,1.88c1.08,2.57,1.28,3.99,0.4,5.2l1.97-0.94
			l0.32-0.15l1.97-0.94c-1.44-0.07-2.43-1.03-3.69-3.28c-0.7-1.24-0.34-2.75,0.69-3.73c0.1-0.1,0.2-0.2,0.3-0.3
			c0.88-0.93,2.24-1.22,3.42-0.73c2.37,1,3.42,1.84,3.64,3.27l0.73-2.06l0.12-0.34l0.73-2.06c-1.03,0.93-2.34,1-4.66,0.37
			C454.15,115.74,453.24,114.4,453.32,112.95z"/>
		<path class="st9" d="M468.85,193.89c0.01-0.13,0.01-0.26,0.02-0.39c0.01-0.78,0.47-1.48,1.19-1.77c1.38-0.55,2.18-0.62,2.88-0.1
			l-0.58-1.22l-0.09-0.2l-0.58-1.22c-0.04,0.77-0.48,1.34-1.51,1.98c-0.75,0.47-1.77,0.4-2.38-0.25c-0.11-0.12-0.22-0.23-0.34-0.33
			c-0.67-0.59-0.92-1.52-0.54-2.33c0.53-1.13,1.03-1.66,1.81-1.78l-1.28-0.45l-0.21-0.07l-1.28-0.45c0.53,0.58,0.61,1.31,0.32,2.52
			c-0.2,0.87-0.99,1.44-1.88,1.46c-0.15,0-0.31,0.01-0.46,0.03c-0.88,0.11-1.71-0.47-2.01-1.31c-0.42-1.17-0.43-1.89,0.03-2.52
			l-1.22,0.58l-0.2,0.09l-1.22,0.58c0.8,0.04,1.38,0.52,2.05,1.62c0.45,0.74,0.43,1.72-0.16,2.37c-0.08,0.08-0.15,0.17-0.22,0.26
			c-0.56,0.71-1.57,0.9-2.37,0.47c-0.93-0.51-1.92-1.17-2.01-1.76l-0.45,1.28l-0.07,0.21l-0.45,1.28c0.66-0.6,1.5-0.62,3.04-0.19
			c0.79,0.22,1.33,0.93,1.38,1.74c0,0.06,0.01,0.13,0.02,0.19c0.09,0.87-0.34,1.72-1.15,2.06c-1.52,0.62-2.37,0.73-3.1,0.19
			l0.58,1.22l0.09,0.2l0.58,1.22c0.05-0.92,0.68-1.55,2.17-2.37c0.74-0.4,1.64-0.25,2.26,0.32c0.02,0.02,0.05,0.04,0.07,0.06
			c0.63,0.55,0.89,1.43,0.57,2.21c-0.66,1.63-1.19,2.34-2.12,2.48l1.28,0.45l0.21,0.07l1.28,0.45c-0.62-0.68-0.62-1.55-0.15-3.18
			c0.25-0.85,1.03-1.38,1.91-1.39c0.03,0,0.07,0,0.1,0c0.81-0.03,1.57,0.42,1.88,1.17c0.67,1.6,0.8,2.47,0.25,3.22l1.22-0.58
			l0.2-0.09l1.22-0.58c-0.89-0.04-1.51-0.64-2.29-2.03c-0.43-0.77-0.21-1.71,0.43-2.31c0.06-0.06,0.12-0.12,0.18-0.18
			c0.54-0.58,1.39-0.76,2.12-0.45c1.47,0.62,2.12,1.14,2.26,2.02l0.45-1.28l0.07-0.21l0.45-1.28c-0.64,0.58-1.45,0.62-2.88,0.23
			C469.36,195.62,468.79,194.79,468.85,193.89z"/>
		<path class="st9" d="M517.52,136.46c0.01-0.13,0.01-0.26,0.02-0.39c0.01-0.78,0.47-1.48,1.19-1.77c1.38-0.55,2.18-0.62,2.88-0.1
			l-0.58-1.22l-0.09-0.2l-0.58-1.22c-0.04,0.77-0.48,1.34-1.51,1.98c-0.75,0.47-1.77,0.4-2.38-0.25c-0.11-0.12-0.22-0.23-0.34-0.33
			c-0.67-0.59-0.92-1.52-0.54-2.33c0.53-1.13,1.03-1.66,1.81-1.77l-1.28-0.45l-0.21-0.07l-1.28-0.45c0.53,0.58,0.61,1.31,0.32,2.53
			c-0.2,0.87-0.99,1.44-1.88,1.46c-0.15,0-0.31,0.01-0.46,0.03c-0.88,0.11-1.71-0.47-2.01-1.31c-0.42-1.17-0.43-1.89,0.03-2.52
			l-1.22,0.58l-0.2,0.09l-1.22,0.58c0.8,0.04,1.38,0.52,2.05,1.62c0.45,0.74,0.43,1.72-0.16,2.37c-0.08,0.08-0.15,0.17-0.22,0.26
			c-0.56,0.71-1.57,0.9-2.37,0.47c-0.93-0.51-1.92-1.17-2.01-1.76l-0.45,1.28l-0.07,0.21l-0.45,1.28c0.66-0.6,1.5-0.62,3.04-0.19
			c0.79,0.22,1.33,0.93,1.38,1.74c0,0.06,0.01,0.13,0.02,0.19c0.09,0.87-0.34,1.72-1.15,2.06c-1.52,0.62-2.37,0.73-3.1,0.19
			l0.58,1.22l0.09,0.2l0.58,1.22c0.05-0.92,0.68-1.55,2.17-2.37c0.74-0.4,1.64-0.25,2.26,0.32c0.02,0.02,0.05,0.04,0.07,0.06
			c0.64,0.55,0.89,1.43,0.57,2.21c-0.66,1.63-1.19,2.34-2.12,2.48l1.28,0.45l0.21,0.07l1.28,0.45c-0.62-0.68-0.62-1.55-0.15-3.18
			c0.25-0.85,1.03-1.38,1.91-1.39c0.03,0,0.07,0,0.1,0c0.81-0.03,1.57,0.42,1.88,1.17c0.67,1.6,0.8,2.47,0.25,3.22l1.22-0.58
			l0.2-0.09l1.22-0.58c-0.89-0.04-1.51-0.64-2.29-2.03c-0.43-0.77-0.21-1.71,0.43-2.31c0.06-0.06,0.12-0.12,0.18-0.18
			c0.54-0.58,1.39-0.76,2.12-0.45c1.47,0.62,2.12,1.14,2.26,2.02l0.45-1.28l0.07-0.21l0.45-1.28c-0.64,0.58-1.45,0.62-2.89,0.23
			C518.04,138.19,517.47,137.36,517.52,136.46z"/>
		<path class="st9" d="M434.55,165.03c0.05-0.14,0.1-0.29,0.14-0.44c0.27-0.88,1.01-1.53,1.92-1.62c1.75-0.17,2.68,0.01,3.3,0.81
			l-0.27-1.58l-0.04-0.26l-0.27-1.58c-0.29,0.87-0.98,1.36-2.35,1.76c-1.01,0.29-2.14-0.12-2.62-1.05
			c-0.08-0.17-0.18-0.33-0.28-0.48c-0.58-0.88-0.55-2.02,0.14-2.81c0.97-1.12,1.7-1.55,2.63-1.43l-1.3-0.93l-0.21-0.15l-1.3-0.93
			c0.41,0.83,0.27,1.68-0.45,2.97c-0.51,0.92-1.58,1.31-2.6,1.05c-0.18-0.05-0.35-0.08-0.53-0.11c-1.04-0.16-1.79-1.09-1.86-2.14
			c-0.1-1.46,0.12-2.28,0.85-2.85l-1.58,0.27l-0.26,0.04l-1.58,0.27c0.9,0.3,1.4,1.03,1.81,2.51c0.28,0.99-0.07,2.1-0.94,2.64
			c-0.11,0.07-0.22,0.14-0.33,0.22c-0.87,0.63-2.07,0.51-2.84-0.23c-0.89-0.87-1.8-1.95-1.71-2.64l-0.93,1.3l-0.15,0.21l-0.93,1.3
			c0.94-0.47,1.91-0.22,3.51,0.76c0.82,0.5,1.21,1.48,1,2.42c-0.02,0.07-0.03,0.15-0.04,0.22c-0.18,1.02-0.94,1.85-1.97,1.97
			c-1.92,0.22-2.92,0.07-3.58-0.78l0.27,1.58l0.04,0.26l0.27,1.58c0.35-1.03,1.27-1.54,3.23-1.99c0.97-0.22,1.94,0.25,2.46,1.09
			c0.02,0.03,0.04,0.06,0.06,0.09c0.54,0.83,0.55,1.91-0.06,2.69c-1.27,1.63-2.1,2.27-3.2,2.13l1.3,0.93l0.21,0.15l1.3,0.93
			c-0.48-0.97-0.2-1.96,0.85-3.65c0.55-0.88,1.62-1.24,2.62-0.96c0.04,0.01,0.08,0.02,0.12,0.03c0.93,0.23,1.64,0.98,1.76,1.93
			c0.25,2.03,0.11,3.06-0.76,3.74l1.58-0.27l0.26-0.04l1.58-0.27c-1-0.34-1.51-1.21-1.94-3.05c-0.24-1.01,0.31-2.01,1.23-2.49
			c0.09-0.05,0.18-0.1,0.27-0.15c0.8-0.48,1.82-0.41,2.55,0.17c1.47,1.18,2.04,1.98,1.91,3.03l0.93-1.3l0.15-0.21l0.93-1.3
			c-0.91,0.45-1.84,0.23-3.35-0.67C434.57,167.16,434.2,166.03,434.55,165.03z"/>
		<path class="st9" d="M488.34,153.7c0-0.14,0.02-0.28,0.02-0.43c0-3.38-1.17-6.48-3.12-8.94c5.7-5.56,8.6-7.61,12.01-6.59
			l-3.08-3.08l-0.5-0.5l-3.08-3.08c1.02,3.4-0.9,6.39-6.39,12.06c-2.41-2.43-5.69-3.99-9.32-4.21c0.11-7.77,0.73-11.19,3.83-12.85
			h-4.36h-0.71h-4.36c3.1,1.66,3.87,5.08,4.01,12.84c-3.63,0.18-6.9,1.68-9.33,4.06c-5.58-5.71-7.64-8.62-6.61-12.03l-3.08,3.08
			l-0.5,0.5l-3.08,3.08c3.42-1.03,6.44,0.94,12.2,6.53c-2.04,2.48-3.26,5.66-3.26,9.12c0,0.02,0,0.05,0,0.07
			c-8.53-0.07-12.2-0.6-13.94-3.84v4.36v0.71v4.36c1.75-3.25,5.44-3.94,14.03-4.02c0.36,3.21,1.79,6.1,3.91,8.31
			c-6.4,6.34-9.47,8.73-13.08,7.65l3.08,3.08l0.5,0.5l3.08,3.08c-1.09-3.62,1.2-6.81,7.55-13.24c2.25,1.88,5.08,3.08,8.18,3.3
			c-0.03,9.25-0.49,13.13-3.85,14.93h4.36h0.71h4.36c-3.36-1.8-3.98-5.68-4.03-14.91c3.14-0.11,6.02-1.22,8.33-3.03
			c6.33,6.39,8.72,9.46,7.63,13.06l3.08-3.08l0.5-0.5l3.08-3.08c-3.59,1.08-6.76-1.17-13.11-7.43c2.23-2.17,3.75-5.06,4.2-8.3
			c8.51,0.07,12.17,0.61,13.91,3.84v-4.36v-0.71v-4.36C500.39,152.9,496.75,153.6,488.34,153.7z"/>
		<path class="st60" d="M428.82,195.58c1.72,1.53,3.53,2.95,5.42,4.28l76.32-96.93c-1.73-1.52-3.54-2.95-5.43-4.27L428.82,195.58z"
			/>
		<path class="st61" d="M484,102.55c0.25,0.11,0.53,0.09,0.8,0.1c0.61,0.01,1.26,0.13,1.71,0.54c0.45,0.41,0.6,1.19,0.19,1.64
			c-0.35,0.37-1.02,0.52-1.06,1.03c-0.01,0.21,0.1,0.4,0.2,0.57c0.47,0.78,0.93,1.62,0.89,2.53c-0.04,0.91-0.83,1.83-1.72,1.67
			c-0.72-0.13-1.2-0.87-1.91-1.05c-0.57-0.15-1.16,0.1-1.7,0.32c-0.77,0.31-1.61,0.58-2.41,0.35c-0.8-0.23-1.43-1.17-1.05-1.9
			c0.27-0.52,0.96-0.79,1.08-1.37c-0.53-0.55-1.34-0.72-1.97-1.15c-0.48-0.33-0.97-1.12-0.63-1.7c0.47-0.82,1.37-0.23,2.01-0.09
			c1.21,0.27,1.45-0.08,1.77-1.24c0.26-0.92,0.49-2.89,1.65-3.19C483.56,99.17,482.86,102.05,484,102.55z"/>
		<path class="st61" d="M497.13,188.74c0,0.29,0.13,0.57,0.25,0.84c0.26,0.61,0.41,1.31,0.2,1.93c-0.22,0.63-0.92,1.11-1.55,0.89
			c-0.52-0.18-0.96-0.79-1.48-0.61c-0.21,0.07-0.35,0.27-0.48,0.45c-0.57,0.8-1.21,1.63-2.13,1.97c-0.92,0.35-2.18-0.04-2.41-0.99
			c-0.18-0.77,0.35-1.57,0.23-2.35c-0.1-0.63-0.6-1.11-1.05-1.56c-0.64-0.63-1.27-1.36-1.39-2.24c-0.12-0.89,0.54-1.92,1.44-1.86
			c0.64,0.04,1.2,0.61,1.83,0.49c0.31-0.76,0.14-1.64,0.29-2.45c0.12-0.62,0.7-1.45,1.42-1.36c1.02,0.12,0.82,1.26,0.95,1.95
			c0.25,1.32,0.7,1.41,1.99,1.23c1.03-0.14,3.08-0.76,3.88,0.27C500.3,186.85,497.14,187.4,497.13,188.74z"/>
		<path class="st61" d="M518.17,164.24c0,0.22,0.1,0.43,0.19,0.63c0.19,0.46,0.31,0.99,0.15,1.47c-0.17,0.47-0.7,0.84-1.18,0.68
			c-0.4-0.14-0.73-0.6-1.12-0.46c-0.16,0.06-0.27,0.2-0.37,0.34c-0.43,0.61-0.92,1.24-1.62,1.5c-0.7,0.26-1.65-0.03-1.83-0.75
			c-0.14-0.59,0.27-1.19,0.17-1.79c-0.08-0.48-0.45-0.84-0.8-1.18c-0.48-0.48-0.97-1.03-1.05-1.7c-0.09-0.68,0.41-1.46,1.09-1.41
			c0.48,0.03,0.91,0.46,1.39,0.37c0.24-0.58,0.1-1.24,0.22-1.86c0.09-0.47,0.53-1.1,1.08-1.03c0.77,0.09,0.62,0.96,0.72,1.48
			c0.19,1.01,0.54,1.07,1.51,0.93c0.78-0.11,2.34-0.57,2.95,0.2C520.58,162.81,518.18,163.22,518.17,164.24z"/>
		<path class="st61" d="M433.37,135c0,0.3,0.14,0.59,0.26,0.87c0.27,0.63,0.43,1.36,0.2,2.01c-0.23,0.65-0.96,1.15-1.61,0.93
			c-0.54-0.19-1-0.82-1.54-0.63c-0.22,0.08-0.37,0.28-0.5,0.46c-0.59,0.83-1.26,1.69-2.21,2.05c-0.95,0.36-2.26-0.04-2.5-1.03
			c-0.19-0.8,0.37-1.63,0.23-2.44c-0.1-0.65-0.62-1.15-1.09-1.62c-0.66-0.65-1.32-1.41-1.44-2.33c-0.12-0.92,0.57-2,1.49-1.93
			c0.66,0.05,1.25,0.63,1.9,0.51c0.33-0.79,0.14-1.7,0.3-2.55c0.12-0.64,0.72-1.5,1.47-1.41c1.06,0.12,0.85,1.31,0.99,2.03
			c0.26,1.38,0.73,1.46,2.07,1.28c1.07-0.15,3.2-0.79,4.03,0.28C436.66,133.04,433.37,133.61,433.37,135z"/>
		<path class="st11" d="M487.3,199.7c0,1.15-0.93,2.09-2.09,2.09c-1.15,0-2.09-0.93-2.09-2.09c0-1.15,0.93-2.09,2.09-2.09
			C486.37,197.61,487.3,198.55,487.3,199.7z"/>
		<path class="st11" d="M473.33,118.46c0,1.15-0.93,2.09-2.09,2.09c-1.15,0-2.09-0.93-2.09-2.09s0.93-2.09,2.09-2.09
			C472.4,116.38,473.33,117.31,473.33,118.46z"/>
		<path class="st11" d="M421.03,147.43c0,1.15-0.93,2.09-2.09,2.09c-1.15,0-2.09-0.93-2.09-2.09s0.93-2.09,2.09-2.09
			C420.1,145.35,421.03,146.28,421.03,147.43z"/>
		<circle class="st11" cx="442.01" cy="142.91" r="2.09"/>
		<path class="st11" d="M467.61,97.05c0,1.15-0.93,2.09-2.09,2.09c-1.15,0-2.09-0.93-2.09-2.09s0.93-2.09,2.09-2.09
			C466.68,94.97,467.61,95.9,467.61,97.05z"/>
		<circle class="st11" cx="510.71" cy="181.88" r="2.09"/>
		<path class="st11" d="M514.88,122.64c0,1.15-0.93,2.09-2.09,2.09c-1.15,0-2.09-0.93-2.09-2.09c0-1.15,0.93-2.09,2.09-2.09
			C513.95,120.55,514.88,121.49,514.88,122.64z"/>
		<path class="st11" d="M499.06,163.18c0,0.83-0.67,1.51-1.51,1.51c-0.83,0-1.51-0.67-1.51-1.51c0-0.83,0.67-1.51,1.51-1.51
			C498.39,161.67,499.06,162.35,499.06,163.18z"/>
		<circle class="st11" cx="449.5" cy="198.99" r="1.51"/>
		<path class="st11" d="M437.1,182.29c0,0.83-0.67,1.51-1.51,1.51c-0.83,0-1.51-0.67-1.51-1.51c0-0.83,0.67-1.51,1.51-1.51
			C436.42,180.79,437.1,181.46,437.1,182.29z"/>
		<path class="st11" d="M523.3,151.75c0,0.83-0.67,1.51-1.51,1.51s-1.51-0.67-1.51-1.51s0.67-1.51,1.51-1.51
			S523.3,150.92,523.3,151.75z"/>
		<path class="st61" d="M483.29,113.3c0.15,0.12,0.24,0.29,0.32,0.47c0.3,0.7,0.4,1.48,0.29,2.23c-0.06,0.38-0.18,0.77-0.45,1.04
			c-1.14,1.16-3.7-0.07-3.78-1.6C479.6,113.99,482.04,112.29,483.29,113.3z"/>
		<path class="st61" d="M420.96,125.07c-2.94,0.22-1.69-3.45,0.48-3.4C423.74,121.72,422.95,124.92,420.96,125.07z"/>
		<path class="st61" d="M507.52,171.99c-0.04,0.64-0.62,1.11-1.18,1.42c-0.51,0.28-1.04,0.51-1.6,0.68
			c-1.03,0.31-2.4,0.27-2.62-1.02c-0.13-0.75,0.25-1.49,0.86-1.88C504.03,170.53,507.66,169.95,507.52,171.99z"/>
		<path class="st61" d="M462.39,175.37c0.29-0.34,0.6-0.68,1-0.86c0.33-0.14,0.69-0.14,1.03-0.03c0.48,0.15,0.92,0.51,1.12,0.98
			C467.19,179.17,459.48,178.76,462.39,175.37z"/>
	</g>
	<g>
		<path class="st6" d="M81.8,6.06C37.77,9,37.78,51.1,37.78,51.1l-2.35,345.42h5.23c0-183.17-4.74-341.91,14.47-367.28
			C73.1,5.52,105.17,4.98,149.71,15.73C149.71,15.73,127.16,3.04,81.8,6.06z"/>
		<rect x="31.36" y="387.46" class="st3" width="13.95" height="4.53"/>
		<path class="st62" d="M149.42,0L149.42,0c-3.18,0-5.75,2.57-5.75,5.75v8.05h11.5V5.75C155.17,2.57,152.59,0,149.42,0z"/>
		<rect x="25.26" y="391.99" class="st9" width="25.6" height="4.53"/>
		<path class="st9" d="M149.42,7.65L149.42,7.65c-13.62,0-25.49,9.25-28.82,22.46l-1.01,3.99h59.65l-1.01-3.99
			C174.91,16.91,163.04,7.65,149.42,7.65z"/>
		<path class="st62" d="M123.93,34.1h55.31l-1.01-3.99c-1.43-5.66-4.43-10.59-8.47-14.38c-5.33,4.66-12.58,6.81-19.35,8.33
			c-9.66,2.17-19.47,3.64-29.34,4.41c-0.17,0.54-0.35,1.08-0.49,1.64l-0.43,1.72C121.41,32.61,122.66,33.36,123.93,34.1z"/>
		<path class="st3" d="M149.42,48.93L149.42,48.93c-6.15,0-11.14-4.99-11.14-11.13V34.1h22.27v3.69
			C160.55,43.94,155.57,48.93,149.42,48.93z"/>
		<path class="st8" d="M160.55,35.62V34.1h-22.27v3.69c0,2.26,0.68,4.36,1.83,6.12c2.13-3.12,5.55-5.41,9.18-6.67
			c1.91-0.66,3.89-1.08,5.88-1.36C156.21,35.74,159.21,36,160.55,35.62z"/>
		<rect x="114.54" y="29.24" class="st16" width="69.76" height="4.86"/>
	</g>
	<path class="st0" d="M594.14,304.37c-1.97,2.88-3.56,6.21-3.38,9.69c0.17,3.48,2.58,7.02,6.03,7.53c2.08,0.3,4.16-0.5,6.05-1.43
		c6.28-3.09,11.77-7.78,15.79-13.52c0.99-1.41,1.91-2.92,2.3-4.6c1.42-6.02-4.99-12.11-10.9-10.69
		C603.8,292.85,597.61,299.3,594.14,304.37z"/>
	<path class="st1" d="M595.5,302.51c-0.49,0.63-0.94,1.26-1.35,1.86c-1.97,2.88-3.56,6.21-3.38,9.69c0.15,3.02,1.99,6.1,4.73,7.18
		V302.51z"/>
	<path class="st0" d="M569.19,173.03c1.44-0.53,2.99-0.9,4.5-0.64c1.51,0.27,2.96,1.29,3.35,2.78c0.39,1.49-0.32,3.03-1.09,4.36
		c-1.09,1.89-2.33,3.7-3.71,5.4c-3.62,4.46-12.09,9.21-13.67,0.54C557.51,179.65,564.48,174.77,569.19,173.03z"/>
	<path class="st0" d="M160.06,167.23c-3.16-0.55-6.73-1.58-8.09-4.49c-1.3-2.78,0.14-6.25,2.58-8.12c2.44-1.87,5.61-2.46,8.67-2.73
		c3.18-0.28,6.39-0.28,9.58,0c3.41,0.31,7.02,1.06,9.43,3.49c3.05,3.1,3.81,10.3-0.78,12.35
		C175.66,170.32,166.04,168.27,160.06,167.23z"/>
</g>
</svg>
