<?xml version="1.0" encoding="utf-8"?>
<!-- Generator: Adobe Illustrator 23.0.5, SVG Export Plug-In . SVG Version: 6.00 Build 0)  -->
<svg version="1.1" id="Capa_1" xmlns="http://www.w3.org/2000/svg" xmlns:xlink="http://www.w3.org/1999/xlink" x="0px" y="0px"
	 viewBox="0 0 100.23 131.97" style="enable-background:new 0 0 100.23 131.97;" xml:space="preserve">
<style type="text/css">
	.st0{fill:#F4973B;}
	.st1{fill:#4C1633;}
	.st2{fill:#D65027;}
	.st3{fill:#2C92BF;}
	.st4{fill:#993F41;}
	.st5{fill:#E69145;}
	.st6{fill:#D07D34;}
	.st7{fill:#0C2420;}
	.st8{fill:#0E9B71;}
	.st9{fill:#083029;}
	.st10{fill:#046F62;}
	.st11{fill:#081714;}
	.st12{fill:#79292A;}
	.st13{fill:#EE7272;}
	.st14{fill:#2F9D7E;}
	.st15{fill:#66BA84;}
	.st16{fill:#08332D;}
	.st17{fill:#8BC270;}
	.st18{fill:#E1AC24;}
	.st19{fill:#054738;}
	.st20{fill:#E55C63;}
	.st21{fill:#CC912B;}
	.st22{fill:#62BADB;}
	.st23{fill:#3583AB;}
	.st24{fill:#282F68;}
	.st25{fill:#242651;}
	.st26{fill:#A8DAE8;}
	.st27{fill:#6BC4CB;}
	.st28{fill:#F1B5AC;}
	.st29{fill:#F2958E;}
	.st30{fill:#331413;}
	.st31{fill:#9E4337;}
	.st32{fill:#5C1537;}
	.st33{fill:#2F59A5;}
	.st34{fill:#F6A52A;}
	.st35{opacity:0.8;fill:#E67426;}
	.st36{fill:#F5C91E;}
	.st37{fill:#E67426;}
	.st38{fill:#FDDBB4;}
	.st39{fill:#1C4789;}
	.st40{fill:#3A1226;}
</style>
<g>
	<g>
		<g>
			<polygon class="st0" points="96.62,17.01 96.16,39.35 80.81,39.35 80,20.35 80,17.92 91.72,17.28 91.9,17.27 			"/>
			<g>
				<path class="st1" d="M95.41,38.34h-2.25c-0.05,0-0.09-0.04-0.09-0.09V19.84c0-0.05,0.04-0.09,0.09-0.09h2.25
					c0.05,0,0.09,0.04,0.09,0.09v18.41C95.5,38.3,95.46,38.34,95.41,38.34z M93.25,38.17h2.08V19.93h-2.08V38.17z"/>
			</g>
			<g>
				<path class="st1" d="M92.04,20.08c0,0.05-0.04,0.09-0.08,0.09c0,0,0,0,0,0c-0.05,0-0.09-0.04-0.09-0.08l-0.14-2.81l0.17-0.01
					L92.04,20.08z"/>
			</g>
		</g>
		<g>
			<polygon class="st2" points="92.29,39.35 77.75,39.35 77.19,20.48 81.54,20.29 86.5,20.08 86.67,20.07 91.95,19.84 			"/>
			<g>
				<path class="st1" d="M91.03,38.72C91.03,38.72,91.03,38.72,91.03,38.72h-2.72c-0.05,0-0.09-0.04-0.09-0.09V21.98
					c0-0.05,0.04-0.09,0.09-0.09h2.25c0.05,0,0.08,0.04,0.09,0.08l0.46,16.63c0,0.01,0.01,0.02,0.01,0.03
					C91.12,38.68,91.08,38.72,91.03,38.72z M88.4,38.54h2.54l-0.46-16.48H88.4V38.54z"/>
			</g>
			<g>
				<polygon class="st1" points="86.67,20.07 86.67,39.35 86.5,39.35 86.5,20.08 				"/>
			</g>
		</g>
		<g>
			<polygon class="st3" points="96.59,18.73 99.51,18.73 99.51,39.36 96.16,39.36 			"/>
			<g>
				<path class="st1" d="M98.84,38.79h-1.9c-0.02,0-0.04-0.01-0.06-0.02c-0.02-0.02-0.03-0.04-0.03-0.06l0.22-18.22
					c0-0.05,0.04-0.09,0.09-0.09h1.69c0.05,0,0.09,0.04,0.09,0.09V38.7C98.93,38.75,98.89,38.79,98.84,38.79z M97.03,38.62h1.73
					V20.56h-1.52L97.03,38.62z"/>
			</g>
		</g>
		<polygon class="st4" points="84.85,39.35 77.75,39.35 77.19,20.48 81.54,20.29 		"/>
	</g>
	<rect y="39.35" class="st5" width="100.23" height="3.97"/>
	<polygon class="st6" points="97.69,43.32 42.15,43.32 43.68,39.35 97,39.35 	"/>
	<g>
		<path class="st7" d="M44.29,32.53c0,4.45-2.54,6.82-2.54,6.82s-0.96,0.05-2.31,0.1c-2.42,0.08-6.1,0.16-7.73-0.1
			c-2.54-0.39-3.12-7.1-3.12-7.1l6.07,0.11L44.29,32.53z"/>
		<g>
			<path class="st8" d="M30.81,32.29l-1.07,0.07l-0.27,0.02l-0.86,0.06c0,0-2.89-4.82-2.44-7.29
				C26.61,22.68,29.34,27.84,30.81,32.29z"/>
			<g>
				<path class="st9" d="M29.74,32.36l-0.27,0.02c-0.45-1.14-1.71-4.33-2.52-5.68c-0.03-0.06-0.01-0.14,0.05-0.18
					c0.06-0.03,0.14-0.01,0.18,0.05C28,27.96,29.32,31.28,29.74,32.36z"/>
			</g>
		</g>
		<g>
			<path class="st10" d="M34.1,32.43l-1.63-0.07l-0.26-0.01l-1.4-0.06c0,0,0.19-6.54,2.11-10.95c1.92-4.41,2.61-5.41,3.52-5.19
				C37.34,16.36,34.1,32.43,34.1,32.43z"/>
			<g>
				<path class="st9" d="M35.51,18.41c-1.6,3.14-2.54,10.16-2.94,13.16c-0.04,0.34-0.08,0.59-0.11,0.79l-0.26-0.01
					c0.03-0.22,0.07-0.51,0.11-0.81c0.4-3.01,1.34-10.07,2.96-13.25c0.03-0.06,0.11-0.09,0.17-0.05
					C35.52,18.27,35.55,18.35,35.51,18.41z"/>
			</g>
		</g>
		<g>
			<path class="st8" d="M39.76,25.18C39.76,25.18,39.76,25.18,39.76,25.18c-0.01,0.1-0.01,0.21-0.02,0.3c0,0.03,0,0.05,0,0.07
				c0,0.05-0.01,0.08-0.01,0.13c-0.3,3.71-0.95,6.76-0.95,6.76l-1.35-0.03l-0.26,0l-1.48-0.03c0,0,0.42-6.68,0.91-9.98
				c0.49-3.31,1.23-5.86,2.35-5.86C40.02,16.53,40.03,21.5,39.76,25.18z"/>
			<g>
				<path class="st9" d="M38.7,18.87c-0.12,2.72-1.02,11.41-1.27,13.55l-0.26,0c0.22-1.99,1.15-10.64,1.27-13.55
					c0-0.07,0.07-0.13,0.14-0.12C38.65,18.73,38.71,18.79,38.7,18.87z"/>
			</g>
		</g>
		<g>
			<path class="st10" d="M43.03,25c-0.16,0.94-0.33,1.82-0.5,2.52c-0.37,1.62-0.78,2.94-1.07,3.81c-0.24,0.74-0.41,1.15-0.41,1.15
				l-0.78-0.01l-0.26-0.01l-0.64-0.01c0,0,0.19-3.46,0.35-6.89c0-0.03,0-0.05,0-0.07c0.01-0.1,0.02-0.2,0.02-0.3c0,0,0,0,0,0
				c0.33-3.36,2.89-7.2,3.6-7.01C43.92,18.31,43.55,21.95,43.03,25z"/>
			<g>
				<path class="st9" d="M43.3,18.93c-0.34,0.49-1.83,4.75-2.11,7.29c-0.24,2.12-0.74,5.25-0.91,6.25l-0.26-0.01
					c0.16-0.96,0.67-4.14,0.91-6.27c0.28-2.57,1.8-6.9,2.15-7.4c0.04-0.06,0.12-0.07,0.18-0.03C43.32,18.79,43.34,18.87,43.3,18.93z
					"/>
			</g>
		</g>
		<g>
			<path class="st8" d="M44.79,27.63c-0.6,2.97-1.68,4.88-1.68,4.88l-0.84-0.02L42,32.49l-0.48-0.01c0,0-0.04-0.45-0.04-1.15
				c0-1.23,0.11-3.21,0.75-4.88c0.19-0.5,0.47-0.99,0.81-1.45c1.44-1.98,3.86-3.48,4.18-3.19C47.6,22.16,45.4,24.66,44.79,27.63z"/>
			<g>
				<path class="st9" d="M46.8,22.6c-0.03,0.03-2.72,2.46-3.2,4c-0.3,0.96-0.73,3.03-1.05,4.54c-0.14,0.69-0.23,1.1-0.29,1.36
					L42,32.49c0.07-0.32,0.18-0.85,0.3-1.4c0.32-1.52,0.76-3.59,1.06-4.56c0.49-1.6,3.15-4.01,3.27-4.11
					c0.05-0.05,0.14-0.05,0.18,0.01C46.85,22.48,46.85,22.56,46.8,22.6z"/>
			</g>
		</g>
		<path class="st11" d="M44.29,32.53c0,4.45-2.54,6.82-2.54,6.82s-0.96,0.05-2.31,0.1c-1.13-2.25-3.75-5.74-4.78-7.09L44.29,32.53z"
			/>
	</g>
	<g>
		<path class="st12" d="M14.01,32.6c0,0-0.04,0.01-0.11,0.03c-0.18,0.04-0.55,0.13-1.09,0.22c-0.08,0.01-0.15,0.03-0.23,0.04
			c-0.27,0.04-0.58,0.09-0.92,0.13c-0.19,0.02-0.38,0.05-0.58,0.06c-0.33,0.04-0.67,0.06-1.04,0.08c-0.52,0.03-1.07,0.04-1.65,0.04
			c-0.32,0-0.63-0.01-0.93-0.03c-0.7-0.03-1.35-0.08-1.95-0.14c-0.07-0.01-0.14-0.01-0.2-0.02c-0.4-0.04-0.77-0.09-1.1-0.13
			c-0.01,0-0.02,0-0.03,0c-1.04-0.14-1.7-0.29-1.7-0.29s0.59-0.19,1.64-0.36c0.02-0.01,0.04-0.01,0.06-0.01
			c0.37-0.06,0.79-0.12,1.27-0.17c0.12-0.01,0.25-0.02,0.38-0.04c0.7-0.06,1.49-0.09,2.35-0.07c0.07,0,0.14,0,0.21,0
			c0.47,0.01,0.91,0.03,1.33,0.05c0.49,0.03,0.93,0.07,1.33,0.11c0.22,0.02,0.43,0.04,0.62,0.07c0.42,0.05,0.78,0.1,1.09,0.16
			c0.06,0.01,0.13,0.02,0.18,0.03c0.53,0.09,0.87,0.17,1,0.21C13.99,32.59,14.01,32.6,14.01,32.6z"/>
		<path class="st13" d="M13.22,38.13c-0.6,1.08-2.14,1.51-4.02,1.57c-1.22,0.03-2.59-0.09-3.93-0.3c-3.4-0.52-2.77-6.8-2.77-6.8
			c3.63,0.7,6.52,0.7,8.5,0.52c1.93-0.18,2.98-0.52,2.98-0.52S14.22,36.34,13.22,38.13z"/>
		<path class="st14" d="M4.21,32.89l-0.02,0l-0.03,0c0,0,0,0,0-0.01c-0.35-0.05-0.65-0.1-0.9-0.14c-0.07-0.01-0.13-0.02-0.19-0.03
			c-0.39-0.07-0.61-0.12-0.61-0.12c-0.43-0.89-1.31-2.74-1.7-3.73c-0.52-1.34-0.26-3.38-0.26-3.38s1.34,0.35,2.51,2.6
			c0.6,1.16,0.9,2.39,1.05,3.32v0.01c0.05,0.31,0.08,0.58,0.1,0.81C4.21,32.64,4.21,32.89,4.21,32.89z"/>
		<path class="st15" d="M6.81,27.79C6.81,27.79,6.81,27.8,6.81,27.79c-0.05,0.28-0.1,0.55-0.14,0.82c-0.23,1.27-0.57,2.53-0.84,3.42
			c-0.13,0.44-0.24,0.79-0.32,1.02c-0.07-0.01-0.14-0.01-0.2-0.02c-0.17-0.02-0.34-0.04-0.5-0.05c-0.06-0.01-0.12-0.01-0.17-0.02
			c-0.15-0.02-0.29-0.04-0.43-0.06l-0.03,0c0,0,0,0,0-0.01c-0.02-0.17-0.03-0.39-0.05-0.64C4.1,32,4.08,31.72,4.07,31.42v-0.01
			c-0.04-1.01-0.03-2.27,0.14-3.36c0.37-2.28,2.49-4.85,2.88-4.68C7.44,23.53,7.18,25.65,6.81,27.79z"/>
		<path class="st14" d="M10.35,26.63c-0.04,0.13-0.09,0.27-0.14,0.4c-0.17,0.49-0.35,1.01-0.51,1.53c-0.14,0.44-0.32,0.89-0.51,1.33
			c0,0,0,0,0,0c-0.32,0.74-0.7,1.45-1.03,2.05c-0.29,0.53-0.55,0.96-0.72,1.23c-0.38-0.01-0.76-0.04-1.12-0.06
			c-0.06,0-0.12-0.01-0.18-0.01c-0.22-0.02-0.45-0.04-0.66-0.06c-0.07-0.01-0.14-0.01-0.2-0.02c0.02-0.29,0.08-0.61,0.15-0.96
			c0.26-1.28,0.79-2.87,1.36-4.27c0,0,0-0.01,0-0.01c0.42-1.02,0.86-1.93,1.24-2.51c0.12-0.18,0.24-0.36,0.37-0.52
			c0.47-0.62,0.97-1.09,1.41-1.36c0.05-0.03,0.11-0.07,0.16-0.09c0.46-0.25,0.84-0.25,1.01,0.06
			C11.27,23.85,10.87,25.12,10.35,26.63z"/>
		<path class="st15" d="M11.67,32.19c0,0.17,0,0.33-0.01,0.46v0.01c0,0.13-0.01,0.25-0.01,0.36c-0.01,0-0.01,0-0.02,0
			c-0.18,0.02-0.37,0.04-0.57,0.06c-0.09,0.01-0.18,0.02-0.28,0.03c-0.06,0.01-0.12,0.01-0.18,0.01c-0.19,0.02-0.38,0.03-0.57,0.04
			c-0.07-0.26-0.19-0.66-0.32-1.16c-0.16-0.59-0.34-1.31-0.51-2.11c0,0,0,0,0,0c-0.16-0.73-0.32-1.52-0.46-2.33
			c-0.03-0.2-0.07-0.39-0.09-0.6v0c-0.02-0.1-0.03-0.2-0.04-0.3c-0.09-0.64-0.15-1.29-0.19-1.92c-0.12-2.14,0.1-3.96,0.96-4.11
			c1.04-0.18,1.87,1.84,2.16,4.57c0.05,0.51,0.09,1.06,0.1,1.62C11.69,28.95,11.68,30.95,11.67,32.19z"/>
		<path class="st14" d="M13.59,28.32c-0.1,1.16-0.24,2.14-0.39,2.92c-0.09,0.45-0.18,0.84-0.26,1.14c-0.05,0.19-0.09,0.35-0.13,0.48
			c-0.08,0.01-0.15,0.03-0.23,0.04c-0.23,0.04-0.49,0.08-0.76,0.11c-0.05,0.01-0.1,0.01-0.16,0.02c-0.01,0-0.01,0-0.02,0
			c-0.18,0.02-0.37,0.04-0.57,0.06c-0.01-0.24-0.02-0.56-0.02-0.97c0-0.78,0.01-1.91,0.08-3.51c0.05-1.33,0.21-2.46,0.42-3.39
			c0.48-2.14,1.24-3.18,1.69-3.06C13.86,22.34,13.85,25.11,13.59,28.32z"/>
		<path class="st15" d="M16.79,29.09c-0.8,1.16-2.06,2.63-2.85,3.49c-0.02,0.02-0.03,0.03-0.04,0.05c-0.12,0.03-0.34,0.08-0.64,0.14
			c-0.07,0.01-0.14,0.03-0.22,0.04c-0.07,0.01-0.15,0.03-0.23,0.04c-0.08,0.01-0.15,0.03-0.23,0.04c0.05-0.19,0.12-0.37,0.18-0.55
			c0.13-0.38,0.28-0.76,0.44-1.12c1.4-3.19,3.58-5.38,4.07-5.33C17.87,25.96,18,27.31,16.79,29.09z"/>
		<g>
			<path class="st16" d="M19.49,32.95c-0.09,0-0.16-0.06-0.17-0.15c-0.01-0.06-0.67-5.88-1.1-8.55c-0.02-0.09,0.05-0.18,0.14-0.2
				c0.09-0.02,0.18,0.05,0.2,0.14c0.43,2.68,1.1,8.51,1.1,8.56c0.01,0.09-0.06,0.18-0.15,0.19C19.51,32.95,19.5,32.95,19.49,32.95z"
				/>
		</g>
		<g>
			<path class="st16" d="M16.99,33.03c-0.07,0-0.14-0.05-0.17-0.12c-0.01-0.04-1.17-3.78-1.74-5.36c-0.03-0.09,0.01-0.19,0.1-0.22
				c0.09-0.03,0.19,0.01,0.22,0.11c0.58,1.59,1.73,5.34,1.74,5.38c0.03,0.09-0.02,0.19-0.12,0.22
				C17.03,33.03,17.01,33.03,16.99,33.03z"/>
		</g>
		<g>
			<path class="st16" d="M21.42,32.9c-0.01,0-0.01,0-0.02,0c-0.09-0.01-0.16-0.1-0.15-0.19c0-0.04,0.49-4.55,1.22-7.26
				c0.03-0.09,0.12-0.15,0.21-0.13c0.09,0.03,0.15,0.12,0.12,0.21c-0.72,2.68-1.2,7.16-1.21,7.2C21.58,32.83,21.51,32.9,21.42,32.9z
				"/>
		</g>
		<path class="st17" d="M18.46,24.62c0,0,1.62-4.25,1.04-4.68c-0.58-0.42-1.1,2.18-1.1,2.18s-0.76-3.33-1.4-3.42
			c-0.63-0.09,0.49,3.74,0.49,3.74s-1.47-1.45-1.95-0.95C15.06,21.99,18.46,24.62,18.46,24.62z"/>
		<path class="st17" d="M15.49,28.32c0,0,1.22-4.21,0.63-4.38c-0.59-0.17-1.15,2.35-1.19,2.19c-0.04-0.16,0-3.46-0.26-4.21
			c-0.26-0.75-0.79-0.5-0.66,1.21c0.14,1.71,0.66,3.05,0.66,3.05s-1.07-1.38-1.44-0.69C12.85,26.19,15.49,28.32,15.49,28.32z"/>
		<path class="st17" d="M19.28,30.94c-0.04,0.12-1.65-3.04-2.29-2.45c-0.63,0.59,2.5,3.84,2.5,3.84s2.36-3.07,2.23-3.92
			C21.59,27.57,20.3,27.82,19.28,30.94z"/>
		<path class="st17" d="M16.28,24.83c-0.43,0.58,1.85,3.28,2.73,3.94c0,0,1.06-1.64,1.37-2.87c0.3-1.22,0.56-2.54,0-2.53
			c-0.56,0.01-1.58,3.7-1.58,3.7S16.77,24.17,16.28,24.83z"/>
		<path class="st17" d="M17.31,33.11c0,0,1.12-3.36,0.41-3.41c-0.71-0.05-1.09,1.97-1.09,1.97s-1.87-0.92-1.95,0
			C14.58,32.59,17.31,33.11,17.31,33.11z"/>
		<path class="st17" d="M21.54,31.67c0,0,2.54-0.95,2.34-1.35c-0.2-0.4-2.34,0.42-2.34,0.42s-0.8-2.61-1.64-2.06
			C19.07,29.23,21.54,31.67,21.54,31.67z"/>
		<path class="st17" d="M22.3,26.98c0,0,2.73-0.8,2.43-2.13c-0.3-1.33-1.92,1.24-1.92,1.24s1.3-2.95,0.46-3.21
			c-0.84-0.26-0.92,3.03-0.92,3.03s-0.71-1.7-1.37-1.26C20.31,25.08,22.3,26.98,22.3,26.98z"/>
		<path class="st18" d="M26.07,37.21c-0.41,1.5-1.01,2.23-3.73,2.45c-0.21,0.02-0.44,0.03-0.67,0.04c-3.3,0.16-4.9-0.36-5.51-1.28
			c-0.61-0.92-0.9-5.54-0.9-5.54l8.32-0.21l2.83-0.07C26.4,32.6,26.51,35.59,26.07,37.21z"/>
		<g>
			<path class="st19" d="M3.27,32.75c-0.07-0.01-0.13-0.02-0.19-0.03c-0.27-1.13-1.08-4.31-2-5.76c-0.02-0.04-0.01-0.09,0.03-0.12
				c0.04-0.03,0.09-0.01,0.12,0.03C2.2,28.39,3.01,31.67,3.27,32.75z"/>
		</g>
		<g>
			<path class="st19" d="M6.62,24.67c-1.29,2.14-1.74,7.19-1.82,8.3c-0.06-0.01-0.12-0.01-0.17-0.02c0.09-1.13,0.52-6.17,1.85-8.37
				c0.02-0.04,0.08-0.05,0.12-0.03C6.63,24.57,6.65,24.62,6.62,24.67z"/>
		</g>
		<g>
			<path class="st19" d="M9.13,26.11c-0.17,0.27-0.33,0.56-0.48,0.86c-1.13,2.17-1.96,4.95-2.31,6.15c-0.06,0-0.12-0.01-0.18-0.01
				c0.36-1.23,1.24-4.2,2.44-6.43c0.12-0.22,0.25-0.45,0.38-0.65c0.03-0.04,0.08-0.05,0.12-0.03C9.15,26.02,9.16,26.07,9.13,26.11z"
				/>
		</g>
		<g>
			<path class="st19" d="M10.79,33.12c-0.06,0.01-0.12,0.01-0.18,0.01c-0.04-1.06-0.18-3.61-0.39-6.09v0
				c-0.11-1.3-0.24-2.59-0.39-3.64c-0.07-0.46-0.13-0.88-0.2-1.23c-0.01-0.05,0.02-0.09,0.07-0.1c0.05-0.01,0.09,0.02,0.1,0.07
				c0.07,0.33,0.13,0.72,0.19,1.17c0.14,0.94,0.26,2.11,0.37,3.32v0C10.59,29.2,10.75,31.96,10.79,33.12z"/>
		</g>
		<g>
			<path class="st19" d="M13.02,23.92c-0.71,1.53-1.04,6.53-1.18,8.67c-0.01,0.16-0.02,0.3-0.03,0.42c-0.05,0.01-0.1,0.01-0.16,0.02
				c-0.01,0-0.01,0-0.02,0c0.01-0.11,0.02-0.23,0.02-0.36v-0.01c0-0.03,0-0.05,0.01-0.08c0.14-2.15,0.47-7.18,1.2-8.74
				c0.02-0.04,0.07-0.06,0.11-0.04C13.02,23.82,13.04,23.87,13.02,23.92z"/>
		</g>
		<g>
			<path class="st19" d="M16.79,27.38c-1.35,1.29-2.94,4.24-3.54,5.39c-0.07,0.01-0.14,0.03-0.22,0.04c0.04-0.09,0.1-0.2,0.17-0.33
				c0.2-0.38,0.52-0.98,0.91-1.65c0.68-1.16,1.67-2.73,2.55-3.58c0.03-0.04,0.09-0.03,0.12,0C16.83,27.29,16.83,27.34,16.79,27.38z"
				/>
		</g>
		<path class="st20" d="M13.22,38.13c-0.6,1.08-2.14,1.51-4.02,1.57c1.07-2.2,1.6-5.15,1.81-6.59c1.93-0.18,2.98-0.52,2.98-0.52
			S14.22,36.34,13.22,38.13z"/>
		<path class="st21" d="M26.07,37.21c-0.41,1.5-1.01,2.23-3.73,2.45c1.11-2.37,1.22-5.49,1.23-6.99l2.83-0.07
			C26.4,32.6,26.51,35.59,26.07,37.21z"/>
	</g>
	<g>
		<path class="st22" d="M15.78,5.01c0,0-0.87,1.05-0.87,2.32l-0.89,0.05L9.54,7.66c0,0,2.43-2.83,4.68-4.72
			c0.45-0.38,0.89-0.72,1.31-1C15.53,1.93,15.56,3.9,15.78,5.01z"/>
		<path class="st23" d="M15.78,5.01c0,0-0.87,1.05-0.87,2.32l-0.89,0.05l0.2-4.45c0.45-0.38,0.89-0.72,1.31-1
			C15.53,1.93,15.56,3.9,15.78,5.01z"/>
	</g>
	<path class="st24" d="M82.31,122.89c-0.06,0.29-0.4,2.83-0.4,2.83s-6.75-11.6-12.4-18.29c-5.65-6.7-7.27-11.72-8.56-17.14
		c-1.29-5.42-3.39-18.69-3.39-18.69l-0.75,0.57l-2.77,28.51c1.56,2.13,2.25,6.93,1.16,13.04c-1.1,6.12-5.08,16.44-5.08,16.44
		l-0.37-0.1l-0.91-0.25c0,0-0.74-13.21-0.97-18.7c-0.23-5.48-1.5-20.19-1.62-28.33c-0.09-6.05,0.31-15.39,0.5-19.87
		c0-0.09,0.01-0.18,0.01-0.26c0.06-1.38,0.09-2.24,0.08-2.3l1.45,0.14l19.83,1.89L68,69.18c0,0,0.14,1.16,0.3,3.05
		c0.11,1.29,0.23,2.91,0.33,4.74c0.23,4.5-0.81,16.33-0.81,16.33c2.02,1.27,6.69,3.75,9.52,9.69c0.73,1.53,1.42,3.58,2.03,5.78
		C81.16,115.09,82.36,122.68,82.31,122.89z"/>
	<path class="st25" d="M82.31,122.89c-0.06,0.29-0.4,2.83-0.4,2.83s-6.75-11.6-12.4-18.29c-5.65-6.7-7.27-11.72-8.56-17.14
		c-1.29-5.42-3.39-18.69-3.39-18.69l-0.75,0.57l-2.77,28.51c1.56,2.13,2.25,6.93,1.16,13.04c-1.1,6.12-5.08,16.44-5.08,16.44
		l-0.37-0.1c0.76-4.09,2.66-14.15,3.76-18.71c1.4-5.8-0.6-10.73-0.6-10.73s0.33-6.58,0.6-13.85c0.27-7.27-0.6-14.35-0.6-14.35
		s-2.18-3.04-2.61-4.17c-0.43-1.13-0.4-5.29-0.4-5.29l-1.6-2.46l19.83,1.89L68,69.18c0,0,0.14,1.16,0.3,3.05
		c-1.52,1.71-3.73,4.48-4.03,6.5c-0.47,3.12-0.18,14.02-0.18,14.02s1.08,6.23,7.75,11.34c2.95,2.26,5.55,3.74,7.54,4.68
		C81.16,115.09,82.36,122.68,82.31,122.89z"/>
	<path class="st26" d="M63,22.2c-0.32-0.03-0.64-0.06-0.95-0.07c-0.43-0.01-0.93,0.01-1.49,0.06c-2.16,0.19-5.17,0.82-8.12,1.68
		c0.28-0.52,0.97-1.75,1.53-2.3c0.62-0.61,3.46-1.49,5.81-1.48c0.39,0,0.77,0.03,1.12,0.08C60.9,20.17,62.5,21.2,63,22.2z"/>
	<path class="st27" d="M63,22.2c-0.32-0.03-0.64-0.06-0.95-0.07c-0.43-0.01-0.93,0.01-1.49,0.06c0.02-0.81-0.38-1.56-0.78-2.1
		c0.39,0,0.77,0.03,1.12,0.08C60.9,20.17,62.5,21.2,63,22.2z"/>
	<path class="st26" d="M71.43,29.2c-0.38-0.08-0.76-0.15-1.16-0.22l-0.03,0c-0.67-0.13-1.37-0.24-2.08-0.34
		c-0.61-0.09-1.22-0.15-1.85-0.21l-0.03,0c-2.42-0.2-4.92-0.09-7.17,0.71c-0.64,0.23-1.27,0.52-1.84,1.05
		c-0.15,0.14-0.3,0.3-0.44,0.48c-0.14,0.18-0.28,0.38-0.41,0.6c-0.04,0.07-0.09,0.15-0.13,0.23c-0.04,0.08-0.09,0.16-0.13,0.25
		c-0.04,0.08-0.08,0.17-0.12,0.26c-0.03,0.06-0.06,0.13-0.09,0.2c-0.04,0.11-0.09,0.22-0.13,0.34c-0.02,0.05-0.03,0.09-0.05,0.14
		c-0.02,0.05-0.04,0.1-0.05,0.15c-0.01,0.02-0.02,0.05-0.02,0.08c-0.04,0.12-0.08,0.25-0.12,0.38c-0.02,0.09-0.05,0.18-0.08,0.27
		c-0.07,0.26-0.13,0.54-0.2,0.83c-0.03,0.15-0.07,0.33-0.1,0.54c-0.88,4.92-2.88,24.21-2.88,24.21s0.21,0.1,0.58,0.26
		c-0.35,0.57-0.55,0.9-0.58,0.95c0.09-0.03,1.66-0.55,0,0.23c-1.72,0.81-5.44,0-5.44,0s-0.35-0.98-0.4-7.1
		c-0.06-6.11,0.06-16.15,0.06-16.15c-3.92-1.04-10.9-5.03-13.85-6.52c-3.64-1.83-6.29-5.25-6.29-5.25s1.78-0.16,3.25-0.87
		c0.07-0.04,0.15-0.07,0.21-0.11c1.5-0.81,3.06-2.48,3.06-2.48s1.27,0.81,4.67,1.56c3.41,0.75,9.06,2.3,9.06,2.3
		c0.26-0.12,0.53-0.24,0.81-0.35c1.11-0.46,2.33-0.9,3.6-1.3c0.46-0.15,0.92-0.29,1.39-0.43c3.72-1.09,7.53-1.8,9.61-1.74
		c0.31,0.01,0.63,0.04,0.95,0.07c0.4,0.05,0.81,0.11,1.22,0.2c1.16,0.23,2.3,0.6,3.27,1.01c1.21,0.52,2.16,1.09,2.53,1.57
		c0.43,0.55,0.82,1.61,1.08,2.54C71.32,28.27,71.44,28.94,71.43,29.2z"/>
	<path class="st27" d="M46.87,34.32c0,0,4.04-0.27,8.85-1.5c-0.01,0.02-0.02,0.05-0.02,0.08c-0.04,0.12-0.08,0.25-0.12,0.38
		c-0.02,0.09-0.05,0.18-0.08,0.27c-0.07,0.26-0.13,0.54-0.2,0.83c-0.03,0.15-0.07,0.33-0.1,0.54c-0.88,4.92-2.88,24.21-2.88,24.21
		s0.21,0.1,0.58,0.26c-0.35,0.57-0.55,0.9-0.58,0.95c0.09-0.03,1.66-0.55,0,0.23c-1.72,0.81-5.44,0-5.44,0s-0.35-0.98-0.4-7.1
		c-0.06-6.11,0.06-16.15,0.06-16.15c-3.92-1.04-10.9-5.03-13.85-6.52c-3.64-1.83-6.29-5.25-6.29-5.25s1.78-0.16,3.25-0.87
		c0.61,0.69,1.97,2.16,3.27,3.15C34.62,29.13,41.47,34.06,46.87,34.32z"/>
	<path class="st27" d="M71.43,29.2c-0.38-0.08-0.76-0.15-1.16-0.22l-0.03,0c-0.67-0.13-1.37-0.24-2.08-0.34
		c1.22-0.45,2.24-0.84,2.94-1.11C71.32,28.27,71.44,28.94,71.43,29.2z"/>
	<path class="st28" d="M60.87,18.49l-0.6,1.64c-3.69-0.17-6.29,1.44-6.29,1.44l-0.58-3.35c-2.14,1.88-3.26,0.88-3.61-0.98
		c-0.12-0.66-0.15-1.41-0.09-2.19c0.23-3,0.64-8.54,1.68-10.04v0.02c0.02,0.14,0.03,0.26,0.04,0.32c0,0-0.01,2.31,0.2,3.89
		c0.21,1.58,0.56,2.19,0.56,2.19c0.48-1.3,1.69-1.9,2.51-1.43c0.64,0.37,0.79,3.08,0.83,4.26c0.01,0.34,0.01,0.55,0.01,0.55
		c-0.01,0.26,0.39,1.16,1.22,1.96c0.15,0.16,0.32,0.32,0.51,0.46c0.31,0.24,0.7,0.44,1.09,0.59c0,0,0,0,0,0c0,0,0.01,0,0.01,0
		C59.54,18.31,60.35,18.45,60.87,18.49z"/>
	<path class="st29" d="M60.87,18.49l-0.6,1.64c-3.69-0.17-6.29,1.44-6.29,1.44l-0.58-3.35c-2.14,1.88-3.26,0.88-3.61-0.98
		c1.37,0.24,4.04,0.21,5.73-2.97c0.01,0.34,0.01,0.55,0.01,0.55c-0.01,0.26,0.39,1.16,1.22,1.96c0.15,0.16,0.32,0.32,0.51,0.46
		c0.31,0.24,0.7,0.44,1.09,0.59c0,0,0,0,0,0c0,0,0.01,0,0.01,0C59.54,18.31,60.35,18.45,60.87,18.49z"/>
	<g>
		<path class="st30" d="M53.63,72.42c-0.05,0-0.11-0.04-0.12-0.09c-0.02-0.07,0.02-0.14,0.09-0.16l6.59-2.03
			c0.07-0.02,0.14,0.02,0.16,0.09c0.02,0.07-0.02,0.14-0.09,0.16l-6.59,2.03C53.66,72.42,53.65,72.42,53.63,72.42z"/>
	</g>
	<g>
		<path class="st30" d="M52.35,63.07c-0.51,0.11-1.2,0.2-2.12,0.2c-0.92,0-2.08-0.09-3.49-0.34c0-0.09,0.01-0.18,0.01-0.26
			c2.8,0.51,4.54,0.37,5.54,0.15c0.07-0.01,0.14,0.03,0.16,0.1C52.46,62.99,52.42,63.06,52.35,63.07z"/>
	</g>
	<polygon class="st31" points="58.37,17.84 58.36,17.83 58.37,17.83 	"/>
	<path class="st31" d="M58.38,17.84c1.17,0.47,1.98,0.62,2.5,0.65l0.03-0.09C60.9,18.4,59.58,18.3,58.38,17.84z"/>
	<path class="st32" d="M66.29,10.21c-0.24,0.65-0.56,1.22-0.95,1.67c-1.38,1.56-3.35,4.44-3.52,4.9c-0.17,0.46,0,1.62-0.29,1.67
		c-0.11,0.02-0.33,0.05-0.67,0.03l0.03-0.09c0,0-1.33-0.1-2.53-0.56c0,0,0,0-0.01,0l0,0c-0.65-0.26-1.18-0.64-1.61-1.05
		c-0.88-0.92-1.22-1.96-1.22-1.96S55.52,10.48,54.7,10c-0.82-0.47-2.03,0.13-2.51,1.43c0,0-0.35-0.6-0.56-2.19
		c-0.13-0.99-0.18-2.26-0.2-3.08c-0.01-0.49-0.01-0.82-0.01-0.82c-0.01-0.07-0.02-0.18-0.04-0.32c-0.07-0.58-0.16-1.68,0.04-2.32
		c0.25-0.81,1.57-2.42,7.06-2.69c5.48-0.26,6.92,2.11,7.85,4.59C66.99,6.39,66.91,8.55,66.29,10.21z"/>
	<path class="st31" d="M56.76,16.78c-0.88-0.92-1.22-1.96-1.22-1.96C55.53,15.08,55.92,15.98,56.76,16.78z"/>
	<path class="st33" d="M53.12,51.67l-0.22,2.64l-0.28,3.34l-0.3,3.55c0,0-5.44-3.29-6.48-4.56c-1.04-1.27-1.27-5.83,0.61-6.46
		C48.34,49.56,53.12,51.67,53.12,51.67z"/>
	<path class="st33" d="M70.27,28.97l-0.03,0l-3.93-0.55l-0.03,0c0,0-1.33-4.33-2.07-6.02c1.16,0.23,2.3,0.6,3.27,1.01
		C68.11,24.58,69.77,27.77,70.27,28.97z"/>
	<path class="st2" d="M50.21,129.93c0,0-1.9-0.7-3.97,0c-2.06,0.7-2.41,1.91-2.41,1.91h6.58L50.21,129.93z"/>
	<path class="st2" d="M81.96,125.33c0,0-0.98,4.37-1.27,4.83c-0.29,0.46-2.13,1.44-2.13,1.67s2.64,0.17,3.4-0.29
		c0.75-0.46,2.48-3.92,2.48-3.92l-2.24-4.04L81.96,125.33z"/>
	<path class="st22" d="M69.5,69.58c-2.08,1.62-5.89,1.16-10.5,0.52c-0.51-0.07-1-0.16-1.48-0.26c-3.86-0.83-6.61-2.56-6.61-2.56
		s1.4-5.02,1.4-5.25v0.92c0,0,1.96,1.48,5.24,2.38c1.11,0.3,2.36,0.54,3.74,0.62c5.48,0.35,8.08-0.17,8.54-0.69
		c0.16-0.18,0.35-0.59,0.53-1.07C71.03,64.73,71.58,67.96,69.5,69.58z"/>
	<path class="st34" d="M71.07,62.13c0,0-0.16,0.56-0.38,1.21c-0.09,0.28-0.2,0.57-0.3,0.85c-0.19,0.47-0.38,0.89-0.53,1.07
		c-0.46,0.52-3.06,1.04-8.54,0.69c-1.58-0.1-3-0.39-4.21-0.76c-0.32-0.09-0.63-0.2-0.92-0.3c-0.08-0.03-0.16-0.06-0.25-0.09
		c-2.29-0.85-3.61-1.85-3.61-1.85v-3.81c0,0,0.21,0.1,0.58,0.26c0.75,0.33,2.18,0.91,3.91,1.41c0.08,0.03,0.17,0.05,0.25,0.07
		c0.98,0.28,2.06,0.52,3.16,0.68c3.67,0.51,7.48,1.21,10.85,0.56L71.07,62.13z"/>
	<path class="st33" d="M57.28,30.18c-0.15,0.14-0.3,0.3-0.44,0.47c-0.14,0.18-0.28,0.38-0.41,0.6c-0.04,0.07-0.09,0.15-0.13,0.23
		c-0.05,0.08-0.09,0.16-0.13,0.25c-0.04,0.08-0.08,0.17-0.12,0.26c-0.03,0.06-0.06,0.13-0.09,0.2c-0.04,0.11-0.09,0.22-0.13,0.34
		c-0.02,0.05-0.03,0.09-0.05,0.14c-0.03,0.07-0.05,0.15-0.08,0.23c-0.04,0.12-0.08,0.25-0.12,0.38c-0.02,0.09-0.05,0.18-0.08,0.27
		c-0.07,0.26-0.13,0.54-0.2,0.83c-0.03,0.15-0.07,0.33-0.1,0.54c-0.54-1.2-3.48-7.44-7.75-9.32c1.11-0.46,2.33-0.9,3.6-1.3
		C52.11,24.98,55.24,27.38,57.28,30.18C57.28,30.18,57.28,30.18,57.28,30.18z"/>
	<path class="st34" d="M76.83,40.09l-0.04,0.28c-0.04,0.26-0.08,0.51-0.13,0.76c-0.75,4.27-4.45,20.71-4.45,20.71
		c-0.38,0.11-0.76,0.21-1.15,0.28c-3.28,0.63-6.98-0.01-10.55-0.52c-0.1-0.01-0.2-0.03-0.29-0.04c-0.08-0.01-0.17-0.03-0.25-0.04
		l-0.26-0.04c-2.95-0.49-5.65-1.58-6.8-2.08c-0.37-0.16-0.58-0.26-0.58-0.26s2-19.28,2.88-24.21c0.03-0.21,0.07-0.39,0.1-0.54
		c0.01-0.03,0.01-0.06,0.02-0.09c0.02-0.1,0.04-0.2,0.07-0.29c0.38-1.63,0.9-2.69,1.5-3.4c0.05-0.07,0.11-0.14,0.17-0.2
		c0.07-0.08,0.14-0.15,0.21-0.22c0.57-0.53,1.19-0.82,1.84-1.05c0.95-0.34,1.93-0.55,2.94-0.67h0c0.11-0.01,0.21-0.02,0.32-0.03
		c0.82-0.08,1.65-0.1,2.47-0.08c2.31,0.06,4.6,0.46,6.58,0.85c1.01,0.2,1.94,0.41,2.74,0.57c1.15,0.23,1.89,0.98,2.36,2.04
		c0.04,0.08,0.07,0.16,0.1,0.25C77.45,34.19,77.24,37.39,76.83,40.09z"/>
	<path class="st35" d="M71.07,62.13c0,0-0.16,0.56-0.38,1.21c-0.74,0.22-1.9,0.43-3.71,0.5c-4.31,0.17-8.96-1.45-8.96-1.45
		s-0.55,1.63-0.92,2.79c-0.32-0.09-0.63-0.2-0.92-0.3c-0.08-0.03-0.16-0.06-0.25-0.09c-2.29-0.85-3.61-1.85-3.61-1.85v-3.81
		c0,0,0.21,0.1,0.58,0.26c0.75,0.33,2.18,0.91,3.91,1.41c0.08,0.03,0.17,0.05,0.25,0.07c0.98,0.28,2.06,0.52,3.16,0.68
		c3.67,0.51,7.48,1.21,10.85,0.56L71.07,62.13z"/>
	<path class="st36" d="M8.74,7.72c0.17-0.06,8.25-0.52,8.25-0.52v3.29l-8.25,0.35V7.72z"/>
	<path class="st37" d="M60.51,61.6c-0.1-0.01-0.2-0.03-0.29-0.04c-0.08-0.01-0.17-0.03-0.25-0.04l-0.26-0.04
		c-2.95-0.49-5.65-1.58-6.8-2.08c-0.37-0.16-0.58-0.26-0.58-0.26s2-19.28,2.88-24.21c0.03-0.21,0.07-0.39,0.1-0.54
		c0.01-0.03,0.01-0.06,0.02-0.09c0.02-0.1,0.04-0.2,0.07-0.29c0.38-1.63,0.9-2.69,1.5-3.4c0.05-0.07,0.11-0.14,0.17-0.2
		c0.07-0.08,0.14-0.15,0.21-0.22c0.57-0.53,1.19-0.82,1.84-1.05c0.95-0.34,1.93-0.55,2.94-0.67h0c0.11-0.01,0.21-0.02,0.32-0.03
		c0.82-0.08,1.65-0.1,2.47-0.08c-3.03,4.82-4.22,8.5-4.5,19.42C60.18,53.93,60.33,58.56,60.51,61.6z"/>
	<g>
		<path class="st22" d="M64.5,30.05c-0.6,0.62-1.58,0.63-2.21,0.04c-1.21-1.17-2.56-1.64-4.01-1.39c-2.07,0.36-3.76,2.03-4.44,3.42
			c-0.48,0.96-1.03,2.49-1.68,4.24c-1.47,4.01-3.48,9.49-6.4,13.38c-1.92,2.55-4.39,3.84-7.13,3.84c-2.31,0-4.97-0.48-7.33-2.77
			c-1.66-1.61-3.57-4.93-5.23-8.84c0,0,0,0,0,0c-1.47-3.46-2.75-7.36-3.51-10.96c-0.35-1.64-0.71-3.83-1.06-6.24
			c-1.16-7.99-2.18-18.38-1.99-19.16c0.21-0.84,1.06-1.34,1.89-1.14c0.73,0.18,1.21,0.85,1.18,1.57c0.04,1.19,1.38,16.5,3.02,24.31
			c0.32,1.51,0.68,2.99,1.09,4.4c1.94,6.81,4.67,12.23,6.45,13.54c5.21,3.83,8.38,1.88,10.12-0.43c2.64-3.52,4.57-8.75,5.97-12.57
			c0.68-1.84,1.26-3.44,1.81-4.55c1.06-2.15,3.55-4.57,6.71-5.12c1.21-0.21,2.83-0.2,4.55,0.66l0,0c0.71,0.36,1.44,0.86,2.16,1.56
			C65.09,28.45,65.1,29.44,64.5,30.05z"/>
	</g>
	<g>
		<path class="st38" d="M64.09,39.77l-4.13,21.75l-0.26-0.04l4.11-21.64c-1.46-0.38-2.74-0.95-3.84-1.59
			c-0.02-0.01-0.04-0.02-0.06-0.03c0,0,0,0,0,0c-2.65-1.55-4.24-3.49-4.58-3.93c-0.04-0.05-0.07-0.09-0.07-0.09
			c-0.04-0.06-0.03-0.14,0.03-0.18c0.03-0.02,0.07-0.03,0.1-0.02c0.03,0.01,0.06,0.02,0.08,0.05c0.02,0.03,1.58,2.14,4.42,3.85
			c0.08,0.05,0.17,0.1,0.25,0.14c1.11,0.64,2.39,1.21,3.85,1.58C64.06,39.64,64.1,39.7,64.09,39.77z"/>
	</g>
	<path class="st36" d="M69.8,37.18c0,0,3.87,0.69,5.29,0.43L71.43,58.3h-4.19L69.8,37.18z"/>
	<path class="st36" d="M67.77,32.25l-0.53,1.74c0,0,5.98,0.71,8.32,0l-0.47-2.19C75.09,31.8,70.97,32.52,67.77,32.25z"/>
	<g>
		<path class="st38" d="M57.06,60.88l-0.88,3.99c0,0,0,0.01-0.01,0.01c-0.02,0.06-0.06,0.09-0.12,0.09c-0.01,0-0.02,0-0.03,0
			c-0.07-0.02-0.11-0.09-0.1-0.15l0-0.02l0.88-3.99C56.89,60.84,56.97,60.86,57.06,60.88z"/>
	</g>
	<g>
		<path class="st38" d="M62.38,28.42c-0.87,1.38-1.42,3.63-1.75,5.62c-0.02,0.09-0.03,0.18-0.04,0.26c-0.3,1.81-0.41,3.36-0.44,3.74
			c0,0.05-0.01,0.09-0.01,0.09c0,0.07-0.06,0.12-0.13,0.12c0,0-0.01,0-0.01,0c-0.01,0-0.02,0-0.03-0.01
			c-0.02-0.01-0.04-0.02-0.06-0.03c0,0,0,0,0,0c-0.02-0.02-0.03-0.06-0.03-0.1c0-0.03,0.01-0.1,0.01-0.22
			c0.05-0.76,0.26-3.25,0.81-5.68c0.02-0.09,0.04-0.17,0.06-0.25c0.31-1.3,0.73-2.57,1.29-3.51h0
			C62.16,28.45,62.27,28.44,62.38,28.42z"/>
	</g>
	<g>
		<path class="st38" d="M76.83,40.09l-0.04,0.28c-1.08,0.28-2.32,0.32-2.93,0.32c-0.22,0-0.35,0-0.38-0.01
			c-0.07,0-0.13-0.06-0.13-0.13c0.03-0.69,0.03-2.49,0.02-4.22v-0.26c-0.01-1.91-0.02-3.67-0.02-3.71c0-0.07,0.05-0.12,0.11-0.13
			l3.06-0.43c0.04,0.08,0.07,0.16,0.1,0.25l-3.02,0.42c0.01,0.86,0.05,6.37,0,7.95C74.06,40.43,75.59,40.43,76.83,40.09z"/>
	</g>
	<g>
		<path class="st38" d="M73.48,36.33L73.48,36.33c-0.09,0-8.57-0.17-13.06-2.09c-0.07-0.03-0.1-0.1-0.07-0.17
			c0.03-0.07,0.11-0.1,0.17-0.07c4.44,1.9,12.88,2.07,12.96,2.07c0.07,0,0.13,0.06,0.13,0.13C73.61,36.27,73.55,36.33,73.48,36.33z"
			/>
	</g>
	<g>
		<path class="st38" d="M61,32.15c-0.01,0.06-0.07,0.11-0.13,0.11c-0.01,0-0.01,0-0.02,0c-0.01,0-0.06-0.01-0.14-0.03
			c-0.53-0.11-2.4-0.58-3.82-1.62c0.05-0.07,0.11-0.14,0.17-0.2c1.37,1,3.21,1.46,3.71,1.57c0.08,0.02,0.12,0.03,0.13,0.03
			C60.97,32.01,61.01,32.08,61,32.15z"/>
	</g>
	<g>
		<path class="st30" d="M52.32,24c-0.07,0-0.13-0.06-0.13-0.13c0-0.07,0.05-0.13,0.12-0.13c0.04-0.01,0.26-0.06,0.51-0.13
			c1.21-0.32,4.03-1.06,6.79-1.45c0.08-0.01,0.14,0.04,0.15,0.11c0.01,0.07-0.04,0.13-0.11,0.14c-2.75,0.38-5.56,1.13-6.76,1.44
			C52.44,23.98,52.36,24,52.32,24z"/>
	</g>
	<g>
		<path class="st30" d="M53.4,18.36c-0.04,0-0.08-0.02-0.1-0.05c-0.04-0.05-0.04-0.14,0.02-0.18l0.12-0.09
			c0.54-0.43,1.98-1.57,1.72-2.18c-0.03-0.06,0-0.14,0.07-0.17c0.06-0.03,0.14,0,0.17,0.07c0.33,0.8-1.05,1.9-1.8,2.48l-0.11,0.09
			C53.46,18.35,53.43,18.36,53.4,18.36z"/>
	</g>
	<g>
		<path class="st30" d="M52.32,13.97c-0.06,0-0.12-0.04-0.13-0.11c-0.01-0.07,0.04-0.14,0.11-0.15c2-0.32,2.49-1.75,2.58-2.18
			c0.16-0.7-0.01-1.25-0.26-1.43c-0.06-0.04-0.07-0.12-0.03-0.18c0.04-0.06,0.12-0.07,0.18-0.03c0.38,0.27,0.53,0.97,0.36,1.7
			c-0.11,0.47-0.63,2.03-2.8,2.38C52.33,13.97,52.33,13.97,52.32,13.97z"/>
	</g>
	<g>
		<path class="st30" d="M52.32,12.92c-0.03,0-0.05-0.01-0.08-0.02c-0.06-0.04-0.07-0.13-0.03-0.18c0.51-0.69,1.29-1.77,1.37-1.92
			c0.03-0.07,0.11-0.09,0.17-0.06c0.06,0.03,0.09,0.11,0.06,0.17c-0.11,0.24-1.26,1.79-1.39,1.97C52.4,12.9,52.36,12.92,52.32,12.92
			z"/>
	</g>
	<g>
		<path class="st30" d="M53.27,12.5c-0.15,0-0.35-0.05-0.59-0.14c-0.07-0.03-0.1-0.1-0.07-0.17c0.03-0.07,0.1-0.1,0.17-0.07
			c0.48,0.19,0.61,0.11,0.63,0.08c0.08-0.09-0.01-0.41-0.12-0.6c-0.03-0.06-0.01-0.14,0.05-0.18c0.06-0.03,0.14-0.01,0.18,0.05
			c0.05,0.1,0.32,0.63,0.08,0.9C53.52,12.45,53.41,12.5,53.27,12.5z"/>
	</g>
	<g>
		<g>
			<path class="st3" d="M9.51,13.75c-0.01,0-0.03,0-0.04-0.01c-0.13-0.05-0.12-0.15-0.07-0.76c0.02-0.3,0.07-0.87,0.02-0.97
				c-0.03-0.06-0.01-0.14,0.06-0.17c0.06-0.03,0.13-0.01,0.17,0.05c0.07,0.13,0.06,0.44,0.01,1.12c-0.01,0.18-0.03,0.4-0.03,0.51
				c0.04,0.04,0.05,0.11,0.01,0.16C9.62,13.72,9.56,13.75,9.51,13.75z"/>
		</g>
		<g>
			<path class="st3" d="M10.99,13.42c-0.07,0-0.13-0.06-0.13-0.13v-1.48c0-0.07,0.06-0.13,0.13-0.13c0.07,0,0.13,0.06,0.13,0.13
				v1.48C11.12,13.36,11.06,13.42,10.99,13.42z"/>
		</g>
		<g>
			<path class="st3" d="M13.07,12.68C13.07,12.68,13.06,12.68,13.07,12.68c-0.08,0-0.13-0.07-0.13-0.14
				c0.02-0.38,0.03-0.83,0.02-0.95c-0.01-0.02-0.02-0.04-0.02-0.07c0-0.11,0.15-0.16,0.23-0.09c0.04,0.04,0.09,0.1,0.03,1.12
				C13.19,12.63,13.14,12.68,13.07,12.68z"/>
		</g>
		<g>
			<path class="st3" d="M14.8,12.68c-0.07,0-0.13-0.06-0.13-0.13v-1.31c0-0.07,0.06-0.13,0.13-0.13c0.07,0,0.13,0.06,0.13,0.13v1.31
				C14.93,12.62,14.87,12.68,14.8,12.68z"/>
		</g>
	</g>
	<path class="st39" d="M52.9,54.31l-0.28,3.34c-1.83-1.12-6.19-3.96-5.71-5.33C47.38,50.98,51.21,53.23,52.9,54.31z"/>
	<path class="st33" d="M57.56,36.39c0,0-0.8,3.16,0,3.5c0.8,0.35,1.49-2.37,1.49-2.37L57.56,36.39z"/>
	<path class="st33" d="M60.94,38.63c0,0-0.94,3.48,0,3.91c0.94,0.43,1.63-3.22,1.63-3.22L60.94,38.63z"/>
	<path class="st40" d="M66.29,10.21c-0.24,0.65-0.56,1.22-0.95,1.67c-1.38,1.56-3.35,4.44-3.52,4.9c-0.17,0.46,0,1.62-0.29,1.67
		c-0.11,0.02-0.33,0.05-0.67,0.03l0.03-0.09c0,0-1.33-0.1-2.53-0.56c0,0,0,0-0.01,0l0,0c-0.65-0.26-1.18-0.64-1.61-1.05
		c-0.88-0.92-1.22-1.96-1.22-1.96S55.52,10.48,54.7,10c-0.82-0.47-2.03,0.13-2.51,1.43c0,0-0.35-0.6-0.56-2.19
		c-0.13-0.99-0.18-2.26-0.2-3.08c1.7,2.08,3.76,3.24,5.63,4.18C58.67,11.17,62.92,12.14,66.29,10.21z"/>
	<path class="st23" d="M57.53,69.84c-3.86-0.83-6.61-2.56-6.61-2.56s1.4-5.02,1.4-5.25v0.92c0,0,1.96,1.48,5.24,2.38
		C57.33,67.03,57.41,68.7,57.53,69.84z"/>
	<path class="st23" d="M26.7,34.76c-1.84-2.64-3.69-6.32-5.19-9.99c-1.16-7.99-2.18-18.38-1.99-19.16c0.21-0.84,1.06-1.34,1.89-1.14
		c0.73,0.18,1.21,0.85,1.18,1.57c0.04,1.19,1.38,16.5,3.02,24.31C25.93,31.88,26.29,33.35,26.7,34.76z"/>
	<path class="st23" d="M64.5,30.05c-0.6,0.62-1.58,0.63-2.21,0.04c-1.21-1.17-2.56-1.64-4.01-1.39c-2.07,0.36-3.76,2.03-4.44,3.42
		c-0.48,0.96-1.03,2.49-1.68,4.24c-1.47,4.01-3.48,9.49-6.4,13.38c-1.92,2.55-4.39,3.84-7.13,3.84c-2.31,0-4.97-0.48-7.33-2.77
		c-1.66-1.61-3.57-4.93-5.23-8.84c2.06,2.47,4.6,5.58,5.87,7.32c2.34,3.2,7.7,3.03,10.91,0.78c3.2-2.25,6.4-9.08,7.7-12.89
		c1.3-3.81,2.51-7.62,5.18-9.66c1.71-1.31,4.47-1.45,6.58-1.23l0,0c0.71,0.36,1.44,0.86,2.16,1.56
		C65.09,28.45,65.1,29.44,64.5,30.05z"/>
	<g>
		<path class="st28" d="M32.92,22.09c0,0-0.87,1.65-3.17,2.68c-0.89,0.4-2,0.71-3.35,0.79c0,0-3.87-6.64-4.39-10.91
			c-0.52-4.27-0.81-7.5-0.81-7.5s-2.6-0.41-3.52-1.96c0,0-0.3,1.7-0.63,1.68c-0.28-0.02-0.61-0.21-0.9-0.55
			c-0.44-0.51-0.82-1.37-0.89-2.51c-0.11-1.91,0.81-3.46,2.25-2.94c0,0,0.58-1.15,1.79-0.75c0,0,2.71,0.12,4.15,4.04
			C23.46,4.14,30.49,19.38,32.92,22.09z"/>
		<path class="st29" d="M29.75,24.77c-0.89,0.4-2,0.71-3.35,0.79c0,0-3.87-6.64-4.39-10.91c-0.52-4.27-0.81-7.5-0.81-7.5
			s-2.6-0.41-3.52-1.96c0,0-0.3,1.7-0.63,1.68c-0.28-0.02-0.61-0.21-0.9-0.55c0.48-0.5,1.22-1.62,0.84-3.49c0,0,3.18,3.98,4.73,3.81
			c0,0,0.74,7.17,2.36,10.68C25.28,19.89,28.25,23.2,29.75,24.77z"/>
	</g>
</g>
</svg>
