<?xml version="1.0" encoding="utf-8"?>
<!-- Generator: Adobe Illustrator 23.0.5, SVG Export Plug-In . SVG Version: 6.00 Build 0)  -->
<svg version="1.1" id="Capa_1" xmlns="http://www.w3.org/2000/svg" xmlns:xlink="http://www.w3.org/1999/xlink" x="0px" y="0px"
	 viewBox="0 0 133.3 118.1" style="enable-background:new 0 0 133.3 118.1;" xml:space="preserve">
<style type="text/css">
	.st0{fill:#99D5E8;}
	.st1{fill:#C6E6EE;}
	.st2{fill:#9FD6DF;}
	.st3{fill:#3983C5;}
	.st4{fill:#938B8B;}
	.st5{fill:#F4973B;}
	.st6{fill:#E4822F;}
	.st7{fill:#D65027;}
	.st8{fill:#C24027;}
	.st9{fill:#E28725;}
	.st10{fill:#B8544A;}
	.st11{fill:#A23F38;}
	.st12{fill:#F1B5AC;}
	.st13{fill:#F2958E;}
	.st14{fill:#5F1D16;}
	.st15{fill:#273C7E;}
	.st16{fill:#983222;}
	.st17{fill:#9A3E3B;}
	.st18{fill:#FFFFFF;}
	.st19{fill:#A8DAE8;}
	.st20{fill:#1F1725;}
	.st21{fill:#A7D4B4;}
	.st22{fill:#FDC312;}
	.st23{fill:#A0D5D3;}
	.st24{fill:#CE615A;}
	.st25{fill:#4E4364;}
	.st26{fill:#CB6427;}
	.st27{opacity:0.5;fill:#CE615A;}
	.st28{fill:#9C3C37;}
	.st29{fill:#882D2B;}
	.st30{fill:#A89E9E;}
	.st31{fill:#BAB0B0;}
	.st32{fill:#FCC013;}
</style>
<g>
	<g>
		<g>
			<path class="st0" d="M101.78,99.49H15.68c-0.21,6.13-0.73,10.99-0.79,11.62h87.24C101.86,107.02,101.75,103.12,101.78,99.49z"/>
			<path class="st1" d="M106.86,56.75c0,2.05-1.32,11.89-2.38,19.33l-0.15,0.02c-0.61,1.83-1.21,4.81-1.68,8.66H15.32
				c-0.38-3.5-1.02-6.69-2.05-9.07c-1.54-8.47-3.81-19.11-3.81-19.11c1.35-1.5,40.05-0.51,50.44-0.62c0.09,0,0.18,0,0.26,0
				c0.16,0,0.31,0,0.45-0.01C69.78,55.78,106.86,56.75,106.86,56.75z"/>
			<path class="st1" d="M13.18,76.21c-0.03-0.14-0.05-0.28-0.09-0.42c-0.13-0.51-0.31-1-0.52-1.46c-1.47-3.21-4.71-5.07-7.81-4.27
				c-1.32,0.34-2.43,1.13-3.24,2.18c-1.37,1.77-1.91,4.32-1.24,6.87c0.63,2.43,2.21,4.33,4.13,5.26c1.3,0.64,2.76,0.84,4.2,0.46
				C12.02,83.95,14,80.14,13.18,76.21z"/>
			<path class="st0" d="M4.77,70.06c3.1-0.8,6.34,1.06,7.81,4.27l0,0c0.25,0.41,0.47,0.86,0.68,1.34l-1.47-7.73
				c-8.75-1.71-10.26,4.29-10.26,4.29h0C2.34,71.18,3.45,70.4,4.77,70.06z"/>
			<path class="st2" d="M15.32,84.76c0.14,1.34,0.25,2.73,0.32,4.14h86.59c0.12-1.46,0.26-2.84,0.41-4.12
				C95.77,84.95,23.07,84.78,15.32,84.76z"/>
			<path class="st0" d="M15.64,88.9c0.18,3.58,0.16,7.27,0.04,10.59h86.09c0.02-3.87,0.19-7.43,0.45-10.59H15.64z"/>
			<path class="st0" d="M15.64,88.9c-0.07-1.41-0.17-2.79-0.32-4.14c-0.44,0,0,0,0,0c-0.37-3.5-1.01-6.69-2.05-9.07
				c0.04,0.19-0.01-0.02-0.01-0.02c-0.21-0.48-0.44-0.93-0.68-1.34c0.21,0.46,0.38,0.95,0.52,1.46c0.04,0.14,0.06,0.28,0.09,0.42
				c0.82,3.94-1.16,7.74-4.58,8.63c-1.43,0.37-2.89,0.17-4.2-0.46c0,0,4.01,12.12,2.85,26.8h7.62c0,0,0-0.03,0.01-0.07
				c0.07-0.63,0.58-5.49,0.79-11.62C15.8,96.17,15.82,92.48,15.64,88.9z"/>
			<path class="st0" d="M116.36,81.46c-1.66,2.56-4.63,3.88-7.43,3.06c-3.36-0.98-5.25-4.7-4.4-8.44l-0.06,0l-0.15,0.01
				c-0.61,1.83-1.21,4.81-1.68,8.66c0,0,0.33,0.02,0,0.03c-0.15,1.28-0.29,2.65-0.41,4.12c-0.26,3.16-0.43,6.72-0.45,10.59
				c-0.02,3.63,0.08,7.53,0.35,11.62h4.73H111C111,111.11,109.25,93.37,116.36,81.46z"/>
			<path class="st0" d="M113.07,70.38c1.38,0.4,2.51,1.27,3.31,2.42c-1.63-2.95-5.19-7.55-10.74-5.16l-1.32,8.46h0
				c0.28-0.83,0.55-1.43,0.81-1.77C106.64,71.2,109.96,69.47,113.07,70.38z"/>
			<path class="st1" d="M117.41,74.98c0-0.01,0-0.02-0.01-0.02c-0.05-0.14-0.39-1.03-1.02-2.17c-0.8-1.14-1.93-2.01-3.31-2.42
				c-3.11-0.91-6.43,0.82-7.93,3.95c-0.19,0.4-0.36,0.82-0.49,1.26c-0.05,0.16-0.08,0.33-0.12,0.49c-0.85,3.74,1.04,7.45,4.4,8.44
				c2.8,0.82,5.77-0.51,7.43-3.06c0.42-0.64,0.76-1.36,0.99-2.15C117.79,77.82,117.78,76.33,117.41,74.98z"/>
			<g>
				<path class="st3" d="M60.81,84.76h-0.26l-0.65-28.8c0.09,0,0.18,0,0.26,0L60.81,84.76z"/>
			</g>
			<g>
				<path class="st3" d="M60.78,99.27c-0.07,0-0.13-0.06-0.13-0.13L60.57,88.9c0-0.07,0.06-0.13,0.13-0.13
					c0.07-0.01,0.13,0.06,0.13,0.13l0.08,10.24C60.91,99.21,60.85,99.27,60.78,99.27C60.78,99.27,60.78,99.27,60.78,99.27z"/>
			</g>
			<g>
				<path class="st3" d="M101.74,99.5H15.69c-0.07,0-0.13-0.06-0.13-0.13c0-0.07,0.06-0.13,0.13-0.13h86.05
					c0.07,0,0.13,0.06,0.13,0.13C101.87,99.44,101.81,99.5,101.74,99.5z"/>
			</g>
			<g>
				<path class="st3" d="M110.68,81.64L110.68,81.64c-0.11,0-0.23-0.01-0.35-0.03c-1.47-0.26-1.85-1.93-1.73-3.27
					c0.15-1.72,1.13-3.54,2.63-3.54c0.13,0,0.25,0.01,0.38,0.04c1.47,0.3,1.84,1.98,1.71,3.33
					C113.15,79.85,112.17,81.64,110.68,81.64z M111.23,75.06c-1.35,0-2.23,1.71-2.37,3.31c-0.11,1.23,0.22,2.76,1.52,2.99
					c0.1,0.02,0.2,0.03,0.3,0.03c1.34,0,2.23-1.67,2.39-3.24c0.12-1.24-0.2-2.79-1.5-3.05C111.45,75.07,111.34,75.06,111.23,75.06z"
					/>
			</g>
			<g>
				<path class="st3" d="M6.72,81.73C6.72,81.73,6.72,81.73,6.72,81.73c-1.97,0-2.93-2.08-3.15-3.86c-0.22-1.8,0.26-3.81,1.61-4.15
					c0.17-0.04,0.34-0.06,0.52-0.06c1.83,0,3.48,2.41,3.74,4.56C9.65,80,8.9,81.28,7.42,81.64C7.18,81.7,6.95,81.73,6.72,81.73z
					 M5.7,73.91c-0.15,0-0.3,0.02-0.45,0.06c-1.21,0.3-1.63,2.17-1.42,3.87c0.22,1.81,1.2,3.64,2.89,3.64c0,0,0,0,0,0
					c0.21,0,0.42-0.03,0.64-0.08c1.92-0.47,1.91-2.36,1.82-3.15C8.94,76.2,7.4,73.91,5.7,73.91z"/>
			</g>
			<g>
				<path class="st3" d="M14.89,111.24c-0.01,0-0.01,0-0.02,0c-0.07-0.01-0.12-0.07-0.11-0.14c1.54-13.56,0.33-26.79,0.19-28.25
					c-0.32-3.23-1.08-5.49-1.6-6.72c0.49,2.91-0.45,6.98-3.48,8.38c-3.48,1.61-5.46,0.05-5.54-0.02c-0.05-0.04-0.06-0.13-0.02-0.18
					c0.04-0.06,0.13-0.06,0.18-0.02c0.02,0.02,1.94,1.52,5.27-0.02c3.36-1.55,4.03-6.54,3.02-9.29c-0.02-0.06,0.01-0.13,0.07-0.16
					s0.13-0.01,0.17,0.05c0.02,0.03,1.69,2.73,2.2,7.96c0.14,1.47,1.35,14.72-0.19,28.31C15.01,111.19,14.95,111.24,14.89,111.24z"
					/>
			</g>
			<g>
				<path class="st3" d="M102.13,111.24c-0.07,0-0.12-0.05-0.13-0.12c-0.01-0.1-0.87-10.52,0.01-21.02
					c0.88-10.51,2.28-13.59,2.34-13.72c0.03-0.06,0.1-0.09,0.16-0.07s0.1,0.09,0.09,0.15c0,0.02-0.32,1.61,0.07,3.38
					c0.52,2.36,1.97,3.89,4.31,4.55c5.59,1.59,7.71-3.7,7.8-3.93c0.03-0.07,0.1-0.1,0.17-0.07c0.07,0.02,0.1,0.1,0.07,0.17
					c-0.02,0.06-2.3,5.74-8.12,4.08c-4.34-1.23-4.75-5.17-4.68-7.12c-0.48,1.63-1.35,5.36-1.96,12.59
					c-0.88,10.48-0.02,20.88-0.01,20.98c0.01,0.07-0.05,0.13-0.12,0.14C102.13,111.24,102.13,111.24,102.13,111.24z"/>
			</g>
		</g>
	</g>
	<path class="st4" d="M102.64,84.79c0-0.01,0-0.02,0-0.03H15.32v0C23.07,84.78,95.77,84.95,102.64,84.79z"/>
	<g>
		<path class="st3" d="M102.24,89.03h-86.6c-0.07,0-0.13-0.06-0.13-0.13c0-0.07,0.06-0.13,0.13-0.13h86.6
			c0.07,0,0.13,0.06,0.13,0.13C102.37,88.97,102.31,89.03,102.24,89.03z"/>
	</g>
	<path class="st5" d="M133,113.34c0,1.41-3.8,2.6-9.03,2.99c-1.17,0.09-2.42,0.13-3.72,0.13c-7.04,0-12.75-1.4-12.75-3.13l0.02-1.43
		l0.01-0.39l0.37-20.26c0,1.67,5.53,3.03,12.35,3.03c2.42,0,4.68-0.17,6.58-0.47c3.47-0.54,5.77-1.48,5.77-2.56l0.36,19.84
		l0.01,0.37L133,113.34z"/>
	<path class="st6" d="M133,113.34c0,1.41-3.8,2.6-9.03,2.99c1.85-6.61,2.57-15.79,2.86-22.5c3.47-0.54,5.77-1.48,5.77-2.56
		l0.36,19.84l0.01,0.37L133,113.34z"/>
	<path class="st7" d="M97.96,105.68l-0.74,0.21c0,0-4.8-5.88-7.44-9.13c-2.64-3.24-6.32-7.05-8.13-10.95
		c-1.58-3.39-5-12.53-5.86-14.86c2.68-0.88,4.34-2.25,5.08-4.18c1.26-3.29,0.04-7.01-1.04-9.13c-0.4-0.79-0.93-1.81-1.43-2.78
		c-0.08-0.16-0.16-0.32-0.25-0.48c-0.36-0.69-0.69-1.33-0.92-1.8c-0.04-0.06-0.07-0.12-0.09-0.18c-0.1-0.2-0.18-0.35-0.24-0.46
		c-0.03-0.05-0.05-0.09-0.06-0.12c-0.01-0.02-0.01-0.03-0.02-0.04v0c0.1-0.08,0.19-0.16,0.28-0.24c0.1-0.08,0.19-0.16,0.28-0.25
		c0.55-0.5,1.05-1,1.47-1.49l0.01-0.01c0,0,0,0,0.01,0c0.03,0.03,0.06,0.06,0.09,0.09c2.09,1.88,3.54,5.81,4.48,9.72v0
		c0.71,2.93,1.15,5.85,1.37,7.87C85.32,72.27,86.4,84,86.4,84c4.11,1.17,6.01,3.51,7.01,6.45c0.2,0.61,0.55,1.7,0.95,3.05
		C95.77,98.13,97.96,105.68,97.96,105.68z"/>
	<path class="st7" d="M68.4,88.23c2.72,3.5,1.99,7.75,0.61,12.33c-1.3,4.32-3.72,11.08-3.72,11.08l-0.81-0.17l-0.62-0.13
		c0,0-0.87-17.48-1.04-22.81c-0.15-4.76-0.58-14.44-0.61-16.58c0.62,0.14,1.58,0.26,3.05,0.27c0.91,0.01,2.02-0.02,3.37-0.1
		c0.72-0.04,1.4-0.1,2.05-0.17L68.4,88.23z"/>
	<path class="st8" d="M97.96,105.68l-0.74,0.21c0,0-4.8-5.88-7.44-9.13c-2.64-3.24-6.32-7.05-8.13-10.95
		c-1.58-3.39-5-12.53-5.86-14.86c2.68-0.88,4.34-2.25,5.08-4.18c1.26-3.29,0.04-7.01-1.04-9.13c-0.4-0.79-0.93-1.81-1.43-2.78
		c-0.08-0.16-0.16-0.32-0.25-0.48c-0.36-0.69-0.69-1.33-0.92-1.8c-0.04-0.06-0.07-0.12-0.09-0.18c-0.1-0.2-0.18-0.35-0.24-0.46
		c-0.03-0.05-0.05-0.09-0.06-0.12c-0.01-0.02-0.01-0.03-0.02-0.04v0c0.1-0.08,0.19-0.16,0.28-0.24c0.1-0.08,0.19-0.16,0.28-0.25
		c0.55-0.5,1.05-1,1.47-1.49l0.01-0.01c0,0,0,0,0.01,0c0.03,0.03,0.06,0.06,0.09,0.09c2.09,1.88,3.54,5.81,4.48,9.72v0
		c-0.61,2.78-1.51,6.8-1.71,11.55c-0.26,6.32,2.18,14.71,2.18,14.71s5.02,6.68,10.46,7.59C95.77,98.13,97.96,105.68,97.96,105.68z"
		/>
	<path class="st8" d="M70.67,71.97L68.4,88.23c2.72,3.5,1.99,7.75,0.61,12.33c-1.3,4.32-3.72,11.08-3.72,11.08l-0.81-0.17
		c0.94-3.07,3.33-11.03,3.69-15.36c0.45-5.46-1.01-6.75-1.01-6.75c-0.17-3.88-1.33-13.17-1.9-17.13c0.91,0.01,2.02-0.02,3.37-0.1
		C69.33,72.09,70.02,72.04,70.67,71.97z"/>
	<path class="st5" d="M79.82,30.03c0,0-0.81,1-1.34,2.25c-0.18,0.42-0.4,0.88-0.62,1.31c-0.43,0.85-0.84,1.56-0.84,1.56l-0.83-0.52
		l-0.15-0.09l-1.6-1l-0.07-0.04c-0.02,0.02-0.04,0.04-0.06,0.06c-1.61,1.57-2.49,4.43-2.49,6.77c0,2.38,1.08,4.67,2.21,5.46
		c0.96,0.67,3.04,2.41,3.61,2.89c-0.13,0.19-0.28,0.4-0.46,0.63c-0.8,1.03-2.23,2.44-4.57,3.7c-1.59,0.85-3.37,1.37-4.96,1.68
		c-0.06,0.01-0.12,0.02-0.18,0.04c-2.62,0.5-4.73,0.45-4.73,0.45c-0.13-0.56-1.17-4.72-1.43-7.79c-0.08-0.91-0.17-1.82-0.26-2.67
		c-0.19-1.72-0.37-3.14-0.42-3.51c-0.01-0.06-0.01-0.09-0.01-0.09c-0.27-0.09-0.52-0.17-0.75-0.27h0c-0.97-0.37-1.67-0.77-2.16-1.17
		c-0.89-0.73-1.14-1.47-1.19-2.11c-0.09-1.08,1.56-3.98,2.1-5.58c0.41-1.22,0.94-3.78,1.28-5.12c0.11-0.41,0.2-0.71,0.26-0.81
		c0.13-0.22,0.55-0.6,1.01-1.01c0.09-0.08,0.18-0.16,0.27-0.24c0.38-0.34,0.76-0.69,1-0.99c0.02,0.07,0.04,0.15,0.04,0.23
		c0.05,0.49,0.14,1.85,0.31,2.96c0.12,0.77,0.28,1.42,0.51,1.59c0.01,0,0.01,0.01,0.01,0.01c0.02,0.02,0.04,0.03,0.06,0.03
		c0.04,0.01,0.07,0,0.11-0.03c0,0,0.02-0.01,0.05-0.04c0.01-0.02,0.03-0.04,0.04-0.06c0.21-0.29,0.41-1.05,0.65-1.84
		c0.08-0.26,0.17-0.53,0.26-0.79c0.47-1.3,1.42-3.03,1.38-3.29c0,0,0.2,0,0.52,0.01c0.79,0.02,2.3,0.06,3.38,0.14
		c0.44,0.04,0.81,0.07,1.03,0.12c0.96,0.19,1.99,0.98,3.9,2.5c1.23,0.98,3.01,2.64,4.13,3.69c0.04,0.04,0.09,0.08,0.13,0.12
		C79.47,29.69,79.82,30.03,79.82,30.03z"/>
	<g>
		<path class="st9" d="M62.47,24.04c0.05,0.49,0.14,1.85,0.31,2.96c-1.34,0.22-2.27,0.1-2.9-0.14c0.11-0.41,0.2-0.71,0.26-0.81
			c0.13-0.22,0.55-0.6,1.01-1.01c0.09-0.08,0.18-0.16,0.27-0.24c0.38-0.34,0.76-0.69,1-0.99C62.45,23.88,62.46,23.96,62.47,24.04z"
			/>
		<path class="st9" d="M69.75,22.75c-0.96,1.14-2.94,3.08-5.55,3.92c0.08-0.26,0.17-0.53,0.26-0.79c0.47-1.3,1.42-3.03,1.38-3.29
			c0,0,0.2,0,0.52,0.01C67.16,22.62,68.67,22.67,69.75,22.75z"/>
	</g>
	<path class="st9" d="M74.02,45.78c0.96,0.67,3.04,2.41,3.61,2.89c-0.13,0.19-0.28,0.4-0.46,0.63c-1.65-1.17-5.23-3.84-5.95-5.52
		c-0.95-2.21-0.39-4.41-0.39-4.41c-1.6,1-3.68,0.34-3.68,0.34c3.55-0.52,4.98-1.94,5.03-4.71c0.05-2.78-0.62-3.94-0.62-3.94
		s-0.74-0.83,1.02-0.39c1.52,0.38,4.03,1.96,5.29,2.91c-0.43,0.85-0.84,1.56-0.84,1.56l-0.83-0.52l-0.15-0.09l-1.6-1l-0.07-0.04
		c-0.02,0.02-0.04,0.04-0.06,0.06c-1.61,1.57-2.49,4.43-2.49,6.77C71.82,42.71,72.9,45,74.02,45.78z"/>
	<path class="st10" d="M64.37,17.58c0.06-0.99-0.01-1.72-0.01-1.72c2.67-2.18,0.84-4.99,0-4.77c-0.85,0.22-0.81,1.74-0.81,1.74
		s0,0-1.15-1.96c-0.29-0.5-0.73-0.86-1.25-1.11c-1.52-0.74-3.73-0.51-4.99,0.22c-1.69,0.98-3.56,3.03-3.83,4.37
		c-0.76-0.15-2.08-1.07-2.5-2.76c-0.49-2,1.21-5.79,3.52-6.95c2.27-1.13,5.55-0.05,5.69,0c-0.08-0.09-1.21-1.38,0-1.42
		c1.11-0.04,4.18,1.78,4.91,2.22c0.1,0.06,0.16,0.09,0.16,0.09s2.96,2.77,3.63,5.62C68.41,13.99,67.63,18,64.37,17.58z"/>
	<path class="st11" d="M64.37,17.58c0.06-0.99-0.01-1.72-0.01-1.72c2.67-2.18,0.84-4.99,0-4.77c-0.85,0.22-0.81,1.74-0.81,1.74
		s0,0-1.15-1.96c-0.29-0.5-0.73-0.86-1.25-1.11c3.8-0.36,3.33-1.86,2.8-4.33c0.1,0.06,0.16,0.09,0.16,0.09s2.96,2.77,3.63,5.62
		C68.41,13.99,67.63,18,64.37,17.58z"/>
	<path class="st10" d="M75.99,12.16c-0.22,2.09-1.43,4.1-3.25,4.72c0,0,0.71-2,0.22-3.03c-0.38-0.8-0.62-0.71-1.96-0.49
		c-1.34,0.22-2.23-0.22-2.54-2.05c-0.3-1.76-0.86-4.77-3.1-5.41c0.38-1.12,0.03-2.15-0.75-2.23c0.08-0.49,0.29-1.22,0.71-1.91
		c0.57-0.94,1.55-1.78,3.15-1.76c2.89,0.05,3.79,1.92,4.23,4.05c0.41,1.97-0.5,4.4-0.65,4.77c0.1-0.2,0.54-0.95,1.59-0.71
		c1,0.22,2.13,1.44,2.34,3.05c0,0,0,0,0,0C76.01,11.48,76.02,11.82,75.99,12.16z"/>
	<path class="st11" d="M75.99,12.16c-0.22,2.09-1.43,4.1-3.25,4.72c0,0,0.71-2,0.22-3.03c-0.38-0.8-0.62-0.71-1.96-0.49
		c-1.34,0.22-2.23-0.22-2.54-2.05c-0.3-1.76-0.86-4.77-3.1-5.41c0.38-1.12,0.03-2.15-0.75-2.23c0.08-0.49,0.29-1.22,0.71-1.91
		c2.77-0.57,5.12-0.19,5.9,2.18c0.94,2.82-0.26,5.59,0.22,5.68c0.42,0.08,3.49-1.65,4.53,1.53c0,0,0,0,0,0
		C76.01,11.48,76.02,11.82,75.99,12.16z"/>
	<path class="st12" d="M64.36,15.86c0,0,0.03,0.36,0.03,0.92c0,0.24,0,0.51-0.02,0.8c-0.07,1.25-0.34,2.91-1.21,3.98
		c-0.01,0.02-0.03,0.04-0.04,0.05c-0.32,0.39-0.64,0.74-0.97,1.04c-1.26,1.15-2.65,1.62-4.64,1.27c-2.54-0.45-3.7-2.4-4.19-5.04
		c-0.49-2.63-0.98-4.54-0.98-4.54c0,0,0,0,0,0c0.27-1.34,2.14-3.39,3.83-4.37c1.18-0.68,3.19-0.93,4.69-0.35
		c0.65,0.25,1.2,0.65,1.55,1.24c1.15,1.96,1.15,1.96,1.15,1.96s-0.04-1.51,0.81-1.74C65.2,10.87,67.03,13.68,64.36,15.86z"/>
	<path class="st13" d="M64.36,15.86c0,0,0.03,0.36,0.03,0.92c0,0.24,0,0.51-0.02,0.8c-0.07,1.25-0.34,2.91-1.21,3.98
		c-0.01,0.02-0.03,0.04-0.04,0.05c1.21-5.66-1.05-10.11-2.26-11.98c0.65,0.25,1.2,0.65,1.55,1.24c1.15,1.96,1.15,1.96,1.15,1.96
		s-0.04-1.51,0.81-1.74C65.2,10.87,67.03,13.68,64.36,15.86z"/>
	<path class="st14" d="M64.6,3.67c-0.01,0-0.02,0-0.03,0c-0.96-0.06-0.76,1.67-0.76,1.67c0.63,0.37,1.26,1.19,1.26,1.19
		c0.12-0.21,0.21-0.42,0.29-0.63C65.74,4.78,65.39,3.75,64.6,3.67z"/>
	<path class="st12" d="M82.15,53.37c0.03-0.09,0.05-0.14,0.05-0.14S82.18,53.28,82.15,53.37z"/>
	<path class="st10" d="M58.08,14.26c0,0-0.22-1.2,0.78-1.34c1-0.13,2.43,0.67,2.43,0.67S58.61,13.5,58.08,14.26z"/>
	<path class="st10" d="M55.18,14.82c0,0-0.7-0.53-1.48,0c-0.79,0.53-0.7,1.55-0.7,1.55s0.57-0.53,1.22-0.89
		C54.87,15.11,55.18,14.82,55.18,14.82z"/>
	<path class="st14" d="M76.8,51.8c0.79-0.65,1.48-1.32,2.04-1.97L76.8,51.8C76.8,51.8,76.8,51.8,76.8,51.8z"/>
	<g>
		<path class="st15" d="M79.82,57.64c-0.4-0.79-0.93-1.81-1.43-2.78c-0.08-0.16-0.17-0.32-0.25-0.48c-0.36-0.69-0.69-1.33-0.92-1.8
			c-0.04-0.06-0.07-0.12-0.09-0.18c-0.1-0.2-0.18-0.35-0.24-0.46c-0.03-0.05-0.05-0.09-0.06-0.12c-0.01-0.02-0.02-0.03-0.02-0.04v0
			l1.82-1.77l0.21-0.2l-0.02-0.02l-1.18-1.12c-0.67,1.01-2.16,2.79-5.04,4.33c-4.29,2.3-9.87,2.17-9.87,2.17v1.21
			c0,0.01,0,0.02,0,0.03c-0.01,0.04-0.02,0.1-0.03,0.17c-0.25,1.81-1.66,13.5-1.66,14.86c0,0,0.13,0.29,1.16,0.52
			c1.01,0.22,2.9,0.39,6.42,0.18c0.72-0.04,1.4-0.1,2.05-0.17c2-0.21,3.7-0.55,5.12-1.02c2.68-0.88,4.34-2.25,5.08-4.18
			C82.12,63.48,80.91,59.76,79.82,57.64z M76.79,51.8L76.79,51.8C76.8,51.8,76.79,51.8,76.79,51.8L76.79,51.8z"/>
		<path class="st14" d="M77.66,48.64c0,0,0.01-0.01,0.01-0.01C77.67,48.63,77.66,48.64,77.66,48.64z"/>
		<path class="st14" d="M78.86,49.82c-0.05,0.06-0.1,0.12-0.02,0C78.94,49.7,78.9,49.76,78.86,49.82z"/>
	</g>
	<path class="st14" d="M76.79,51.81c0,0,0.01-0.01,0.01-0.01C76.8,51.8,76.8,51.8,76.79,51.81L76.79,51.81z"/>
	<path class="st15" d="M65.28,111.65c0,0-1.36-0.74-3.08-0.39c-1.72,0.34-3.5,2.08-3.5,2.08h6.58V111.65z"/>
	<path class="st15" d="M97.11,105.76c0.11,0.13-0.36,4.67-0.8,5.41c-0.43,0.74-1.99,1.3-2.08,1.63c-0.09,0.33,2.9,0.63,3.72,0
		c0.82-0.62,2.55-5.04,2.55-5.04l-2.67-2.55L97.11,105.76z"/>
	<path class="st15" d="M63.28,28.59c-0.15-0.1-1.59-1.03-2.67-0.54c0,0,0.27-1.88,0.81-3.26c0.38-0.34,0.76-0.69,1-0.99
		c0.02,0.07,0.04,0.15,0.04,0.23C62.56,24.87,62.73,28.17,63.28,28.59z"/>
	<path class="st15" d="M67.62,26.52c-1.56,0.08-3.76,1.77-4.11,2.04c0.3-0.31,0.56-1.63,0.95-2.69c0.47-1.3,1.42-3.03,1.38-3.29
		c0,0,0.2,0,0.52,0.01L67.62,26.52z"/>
	<g>
		<path class="st16" d="M64.45,14.34c-0.03,0-0.05-0.01-0.07-0.04c-0.67-0.93-0.3-2.06-0.03-2.65l0.01-0.03
			c0.02-0.04,0.07-0.07,0.11-0.05c0.04,0.02,0.07,0.06,0.05,0.11c0,0.01-0.01,0.02-0.02,0.05c-0.26,0.56-0.61,1.62,0.01,2.48
			c0.03,0.04,0.02,0.09-0.02,0.12C64.48,14.34,64.47,14.34,64.45,14.34z"/>
	</g>
	<g>
		<path class="st16" d="M64.23,13.56c-0.04,0-0.07-0.02-0.08-0.06c-0.02-0.04,0.01-0.09,0.05-0.11c0.02-0.01,0.37-0.14,0.32-0.43
			c-0.02-0.1-0.06-0.12-0.08-0.12c-0.09-0.05-0.25,0.02-0.3,0.04c-0.04,0.02-0.1,0.01-0.12-0.04s0-0.1,0.04-0.12
			c0.03-0.01,0.28-0.13,0.46-0.04c0.06,0.03,0.14,0.1,0.17,0.25c0.06,0.35-0.26,0.56-0.43,0.62C64.25,13.56,64.24,13.56,64.23,13.56
			z"/>
	</g>
	<g>
		<g>
			<path class="st17" d="M52.22,12.54c-0.04,0-0.08-0.04-0.09-0.08c0-0.06-0.11-1.36,0.29-1.8c0.04-0.04,0.09-0.04,0.13-0.01
				c0.04,0.03,0.04,0.09,0.01,0.13c-0.29,0.32-0.28,1.31-0.25,1.67C52.31,12.49,52.28,12.54,52.22,12.54
				C52.22,12.54,52.22,12.54,52.22,12.54z"/>
		</g>
		<g>
			<path class="st17" d="M53.91,7.75c-0.01,0-0.03,0-0.04-0.01c-0.04-0.02-0.06-0.07-0.04-0.12c0.05-0.11,0.89-1.28,1.43-1.49
				c0.04-0.02,0.1,0,0.12,0.05c0.02,0.05,0,0.1-0.05,0.12c-0.48,0.19-1.28,1.3-1.33,1.41C53.98,7.73,53.94,7.75,53.91,7.75z"/>
		</g>
		<g>
			<path class="st17" d="M60.55,7.86c-0.02,0-0.04,0-0.06-0.02c-0.88-0.73-3.23-0.5-3.25-0.49c-0.05,0.01-0.09-0.03-0.1-0.08
				c-0.01-0.05,0.03-0.09,0.08-0.1c0.1-0.01,2.45-0.24,3.38,0.53c0.04,0.03,0.04,0.09,0.01,0.13C60.6,7.86,60.58,7.86,60.55,7.86z"
				/>
		</g>
		<g>
			<path class="st17" d="M61.95,7.59c-0.03,0-0.06-0.02-0.08-0.04C61.56,7,60.62,6.3,60.61,6.29c-0.04-0.03-0.05-0.09-0.02-0.13
				c0.03-0.04,0.09-0.05,0.13-0.02c0.04,0.03,0.98,0.74,1.32,1.31c0.02,0.04,0.01,0.1-0.03,0.12C61.98,7.59,61.97,7.59,61.95,7.59z"
				/>
		</g>
		<g>
			<path class="st17" d="M51.35,12.54c-0.02,0-0.05-0.01-0.06-0.03c-0.59-0.62-0.29-2.24-0.23-2.34c0.03-0.04,0.08-0.05,0.12-0.03
				c0.04,0.03,0.05,0.08,0.03,0.12c-0.06,0.15-0.29,1.61,0.21,2.12c0.03,0.03,0.03,0.09,0,0.13C51.4,12.53,51.37,12.54,51.35,12.54z
				"/>
		</g>
	</g>
	<g>
		<g>
			<path class="st14" d="M70.55,5.95c-0.04,0-0.08-0.03-0.09-0.07c-0.01-0.03-0.61-2.45-2.24-2.99c-1.59-0.52-1.98,0.51-1.98,0.52
				c-0.02,0.05-0.07,0.07-0.12,0.06c-0.04-0.02-0.07-0.07-0.05-0.12c0-0.01,0.45-1.21,2.21-0.63c1.72,0.56,2.33,3.01,2.35,3.11
				c0.01,0.05-0.02,0.1-0.07,0.11C70.56,5.95,70.56,5.95,70.55,5.95z"/>
		</g>
		<g>
			<path class="st14" d="M71.35,4.66L71.35,4.66c-0.05,0-0.09-0.04-0.09-0.09c0.04-1.18-0.78-2.54-0.79-2.56
				c-0.03-0.04-0.01-0.1,0.03-0.12c0.04-0.03,0.1-0.01,0.12,0.03c0.04,0.06,0.86,1.42,0.81,2.66C71.44,4.62,71.4,4.66,71.35,4.66z"
				/>
		</g>
		<g>
			<path class="st14" d="M66.16,4.92c-0.01,0-0.03,0-0.04-0.01c-0.04-0.02-0.06-0.08-0.04-0.12c0.02-0.04,0.46-0.88,1.04-0.85
				c0.05,0,0.09,0.04,0.09,0.09c0,0.05-0.05,0.08-0.09,0.08c-0.39-0.02-0.76,0.54-0.88,0.76C66.23,4.91,66.19,4.92,66.16,4.92z"/>
		</g>
		<g>
			<path class="st14" d="M69.26,9.27c-0.04,0-0.08-0.04-0.09-0.08c-0.15-1.16-1.63-2.42-2.08-2.78c-0.02-0.02-0.03-0.02-0.03-0.03
				c-0.04-0.04-0.04-0.09,0-0.13c0.03-0.04,0.09-0.04,0.12,0l0.02,0.02c0.46,0.37,1.99,1.67,2.15,2.89c0.01,0.05-0.03,0.09-0.08,0.1
				C69.27,9.27,69.26,9.27,69.26,9.27z"/>
		</g>
		<g>
			<path class="st14" d="M74.25,14.35c0,0-0.01,0-0.01,0c-0.05-0.01-0.08-0.05-0.08-0.1c0.13-0.93-0.76-2.83-0.88-2.95
				c-0.04-0.04-0.04-0.09-0.01-0.13c0.03-0.04,0.09-0.04,0.12-0.01c0.2,0.17,1.08,2.13,0.94,3.11
				C74.33,14.31,74.29,14.35,74.25,14.35z"/>
		</g>
		<g>
			<path class="st14" d="M74.98,13.2C74.98,13.2,74.98,13.2,74.98,13.2c-0.06-0.01-0.09-0.05-0.09-0.1
				c0.08-0.73-0.12-1.45-0.58-2.13c-0.02-0.02-0.03-0.04-0.03-0.05c-0.03-0.04-0.01-0.1,0.03-0.12c0.04-0.03,0.1-0.01,0.12,0.03
				c0.01,0.01,0.02,0.02,0.03,0.04c0.61,0.9,0.67,1.72,0.61,2.25C75.07,13.17,75.03,13.2,74.98,13.2z"/>
		</g>
	</g>
	<path class="st18" d="M57.76,21.52c0,0,2.63-1.27,3.16-2.16c0,0,0.11,1.6-0.85,2.67C59.12,23.1,57.76,21.52,57.76,21.52z"/>
	<g>
		<path class="st16" d="M56.12,20.4c-0.39,0-0.72-0.11-0.74-0.11c-0.04-0.01-0.07-0.06-0.06-0.11c0-0.01,0.22-0.85,0.4-1.82
			c0.17-0.96,0.16-1.53-0.38-2.18c-0.03-0.04-0.02-0.09,0.01-0.12c0.04-0.03,0.09-0.03,0.12,0.01c0.58,0.7,0.6,1.33,0.42,2.32
			c-0.14,0.8-0.32,1.51-0.38,1.75c0.2,0.05,0.75,0.17,1.15-0.02c0.49-0.23,0.62-0.55,0.63-0.55c0.02-0.04,0.07-0.07,0.11-0.05
			c0.04,0.02,0.07,0.07,0.05,0.11c-0.01,0.02-0.15,0.39-0.71,0.65C56.54,20.37,56.32,20.4,56.12,20.4z"/>
	</g>
	<g>
		<path class="st17" d="M67.64,54.69c-0.06,0.01-0.12,0.02-0.18,0.04c-0.81-1.72-2.24-6.7-2.84-9.02c-0.43-1.65-0.88-2.98-1.28-4.16
			c-0.33-0.98-0.62-1.82-0.82-2.64c-0.45-1.8-0.21-3.18,0.09-4.93l0.08-0.45c0.2-1.17,0.34-2.28,0.45-3.26
			c0.08-0.63,0.15-1.19,0.21-1.63c0.04,0.01,0.07,0,0.11-0.03c0,0,0.02-0.01,0.05-0.04c0.01-0.02,0.03-0.04,0.04-0.06
			c-0.08,0.46-0.16,1.08-0.24,1.77c-0.12,0.98-0.25,2.1-0.45,3.27L62.78,34c-0.3,1.73-0.54,3.1-0.1,4.86
			c0.2,0.81,0.49,1.65,0.82,2.63c0.4,1.18,0.86,2.52,1.29,4.17C65.47,48.26,66.88,53.11,67.64,54.69z"/>
	</g>
	<g>
		<path class="st17" d="M67.46,39.74c-0.18,0-0.29-0.01-0.31-0.01c-0.05-0.01-0.08-0.05-0.08-0.1c0.01-0.05,0.05-0.08,0.09-0.08
			c0.02,0,1.66,0.17,3.17-0.92c1.5-1.09,1.87-2.31,2.01-3.26c0.01-0.05,0.05-0.08,0.1-0.07c0.05,0.01,0.08,0.05,0.07,0.1
			c-0.15,0.98-0.53,2.25-2.08,3.37C69.26,39.63,68.02,39.74,67.46,39.74z"/>
	</g>
	<g>
		<path class="st17" d="M61.16,41.28c-0.2,0-0.62-0.04-1.26-0.31c-0.04-0.02-0.06-0.07-0.05-0.11c0.02-0.04,0.07-0.06,0.11-0.05
			c0.87,0.37,1.3,0.29,1.3,0.29c0.04-0.01,0.09,0.02,0.1,0.07c0.01,0.05-0.02,0.09-0.07,0.1C61.3,41.27,61.25,41.28,61.16,41.28z"/>
	</g>
	<g>
		<path class="st17" d="M74.44,33.54l-0.07-0.04c-0.02,0.02-0.04,0.04-0.06,0.06l-2.1-1.83c-0.03-0.03-0.04-0.09-0.01-0.12
			c0.03-0.04,0.09-0.04,0.12-0.01l2.11,1.83C74.46,33.46,74.47,33.5,74.44,33.54z"/>
	</g>
	<g>
		<path class="st17" d="M78.93,29.17c-2.11,2.06-2.71,5.4-2.72,5.44c0,0.01-0.01,0.03-0.01,0.03l-0.15-0.09
			c0.07-0.36,0.72-3.5,2.76-5.49C78.84,29.09,78.89,29.13,78.93,29.17z"/>
	</g>
	<g>
		<path class="st19" d="M78.95,49.9c-0.53,0.66-1.24,1.36-2.06,2.04c-0.85,0.71-1.82,1.41-2.85,2.04c-0.05,0.04-0.1,0.07-0.15,0.1
			c-1.42,0.86-2.95,1.59-4.4,2.02c-0.06,0.02-0.11,0.04-0.17,0.05c-0.25,0.07-0.49,0.13-0.73,0.18c-1.43,0.31-2.68,0.41-3.71,0.41
			c-0.13,0-0.25,0-0.36,0c-0.06,0-0.12,0-0.17-0.01c-0.68-0.02-1.24-0.09-1.65-0.16c0.01-0.07,0.02-0.13,0.03-0.17
			c1.06,0.17,3.13,0.34,5.83-0.24c0.25-0.06,0.5-0.12,0.76-0.19c0.03-0.01,0.06-0.02,0.08-0.02h0c2.55-0.75,5.33-2.42,7.39-4.15
			c0.01,0,0.01-0.01,0.02-0.01v0c0.1-0.08,0.19-0.16,0.28-0.24c0.1-0.08,0.19-0.16,0.28-0.25c0.48-0.44,0.9-0.87,1.26-1.28
			c0.07-0.08,0.13-0.15,0.19-0.22l0.02,0.02c0.1-0.12,0.06-0.06,0.02,0C78.89,49.85,78.92,49.88,78.95,49.9z"/>
	</g>
	<g>
		<path class="st19" d="M63.76,60.83c-0.01,0-0.01,0-0.02,0c-0.05-0.01-0.08-0.05-0.07-0.1c0.14-0.8,0.69-4.04,0.69-4.07
			c0.01-0.05,0.05-0.08,0.1-0.07c0.05,0.01,0.08,0.05,0.07,0.1c-0.01,0.03-0.55,3.28-0.69,4.07C63.83,60.8,63.8,60.83,63.76,60.83z"
			/>
	</g>
	<g>
		<path class="st19" d="M70.19,60.83c-0.05,0-0.09-0.04-0.09-0.08c-0.06-1.84-0.8-4.65-0.81-4.68c-0.01-0.04,0.02-0.09,0.06-0.11
			c0.05-0.02,0.09,0.01,0.11,0.06c0.01,0.03,0.75,2.86,0.81,4.72C70.28,60.79,70.24,60.83,70.19,60.83
			C70.19,60.83,70.19,60.83,70.19,60.83z"/>
	</g>
	<g>
		<path class="st19" d="M76.28,60.65c-0.03,0-0.06-0.02-0.08-0.05c-0.01-0.02-0.79-1.67-1.53-3.32c-0.75-1.67-0.77-3.22-0.77-3.23
			c0-0.05,0.04-0.09,0.09-0.09h0c0.05,0,0.09,0.04,0.09,0.09c0,0.01,0.03,1.53,0.76,3.16c0.74,1.65,1.52,3.3,1.53,3.32
			c0.02,0.04,0,0.1-0.04,0.11C76.3,60.65,76.29,60.65,76.28,60.65z"/>
	</g>
	<path class="st20" d="M54.78,17.45c0.19,0.56,0.13,1.08-0.14,1.18c-0.27,0.09-0.64-0.29-0.83-0.84c-0.19-0.56-0.13-1.08,0.14-1.17
		C54.22,16.51,54.59,16.89,54.78,17.45z"/>
	<path class="st20" d="M59.53,15.61c0.19,0.56,0.13,1.08-0.14,1.17c-0.27,0.09-0.64-0.29-0.83-0.84c-0.19-0.56-0.13-1.08,0.14-1.17
		C58.97,14.68,59.34,15.05,59.53,15.61z"/>
	<g>
		<path class="st12" d="M61.04,44.71v0.68c0,0-1.38,3.16-2.51,5.11c-1.12,1.95-3.81,3.72-3.81,3.72c-0.69,0.77-1.41,1.58-1.79,1.36
			c-0.03-0.02-0.05-0.04-0.07-0.06c-0.35-0.39,0.39-1.38,0.39-1.38l-1.21,0.56c0,0-0.17,1.56-0.61,1.43c-0.43-0.13-0.35-2.08,0-2.64
			c0.35-0.56,2.03-1.04,2.03-1.04s1.04-2.21,2.21-5.23c1.17-3.03,1.9-7.57,1.9-7.57l0.11,0.04c0.52,0.42,1.24,0.83,2.27,1.21
			c0.2,0.08,0.42,0.15,0.65,0.22C60.61,41.11,60.82,42.7,61.04,44.71z"/>
		<path class="st13" d="M61.04,44.71v0.68c0,0-1.38,3.16-2.51,5.11c-1.12,1.95-3.81,3.72-3.81,3.72c-0.69,0.77-1.41,1.58-1.79,1.36
			c0.47-0.51,1.14-1.24,1.49-1.61c0.56-0.6,4.37-5.72,4.93-7.75c0.38-1.38,0.55-3.87,0.61-5.33c0.2,0.08,0.42,0.15,0.65,0.22
			C60.61,41.11,60.82,42.7,61.04,44.71z"/>
	</g>
	<g>
		<path class="st21" d="M107.58,101c-5.87,0-9.46-10.98-12.47-22.89c-2.9-11.51-7.41-18-14.72-25.95
			c-7.05-7.67-11.67-7.1-16.99-5.56c-4.99,1.45-8.68,7.58-9.04,8.4c-0.12,0.45-0.52,0.77-1,0.77c-0.57,0-1.04-0.46-1.04-1.04
			c0-1.1,4.61-8.42,10.5-10.13c5.81-1.69,11.25-2.38,19.1,6.15c7.54,8.21,12.19,14.91,15.21,26.85c1.62,6.42,5.38,21.33,10.46,21.33
			c0.07,0,0.14,0,0.22-0.01c0.58-0.05,1.07,0.38,1.12,0.95c0.05,0.57-0.38,1.07-0.95,1.12C107.85,101,107.72,101,107.58,101z"/>
	</g>
	<g>
		<path class="st12" d="M65.85,22.59c0.04,0.26-0.91,1.99-1.38,3.29c-0.48,1.29-0.77,3-1.17,2.72c-0.56-0.39-0.73-3.72-0.82-4.56
			c-0.01-0.08-0.02-0.16-0.04-0.23c-0.03-0.12-0.07-0.24-0.13-0.35c-0.14-0.32-0.35-0.59-0.51-0.77c0.34-0.31,0.66-0.66,0.99-1.06
			c0.85-1.04,1.11-2.65,1.18-3.87c0.39,0.71,0.82,1.76,1.17,2.7C65.53,21.54,65.83,22.47,65.85,22.59z"/>
		<path class="st13" d="M65.12,20.46c-0.85,1.55-2.12,2.52-2.83,3c-0.14-0.32-0.35-0.59-0.51-0.77c0.34-0.31,0.66-0.66,0.99-1.06
			c0.85-1.04,1.11-2.65,1.18-3.87C64.34,18.48,64.77,19.52,65.12,20.46z"/>
	</g>
	<g>
		<g>
			<path class="st12" d="M84.72,52.06c0.3,1.77-0.3,2.94-0.69,2.94c-0.23,0-0.19-0.46-0.11-0.83v0c0.04-0.22,0.1-0.42,0.11-0.46
				c-0.01,0.02-0.04,0.07-0.08,0.15c0,0,0,0.01,0,0.01c-0.22,0.39-0.81,1.38-1.13,1.31c-0.2-0.04-0.2-0.33-0.14-0.59c0,0,0,0,0,0
				c0.03-0.19,0.1-0.36,0.12-0.45c-0.03,0.06-0.08,0.16-0.15,0.29c0,0-0.01,0.01-0.01,0.01c-0.17,0.3-0.44,0.68-0.65,0.52
				c-0.14-0.1-0.13-0.4-0.07-0.72c0.05-0.3,0.15-0.63,0.22-0.82c-0.02,0.05-0.04,0.11-0.07,0.17c-0.16,0.36-0.42,0.83-0.64,0.63
				c-0.35-0.31,0.26-3.07,0.26-3.07s-1.04,0.78-1.43,0.25c-0.06-0.08-0.07-0.18-0.05-0.29c0.12-0.62,1.25-1.6,1.18-1.79
				c-0.09-0.21-0.39-4.8-1.04-7.92c-0.65-3.12-0.39-3.89-0.43-4.07c-0.04-0.15-2.38-1.59-2.89-2.19c0,0,0.42-0.74,0.86-1.6
				c0.21-0.42,0.43-0.87,0.6-1.27c0.53-1.25,1.34-2.25,1.34-2.25c1.51,1.21,4.28,4.58,4.28,4.58s0.61,0.74,0.69,3.59
				c0.08,2.86-0.77,10.91-0.77,10.91S84.41,50.29,84.72,52.06z"/>
			<path class="st13" d="M81.73,44.92c0,3.54-0.33,4.83-0.33,4.83s-0.42,0.61-1.19,1.36c0.12-0.62,1.25-1.6,1.18-1.79
				c-0.09-0.21-0.39-4.8-1.04-7.92c-0.65-3.12-0.39-3.89-0.43-4.07c-0.04-0.15-2.38-1.59-2.89-2.19c0,0,0.42-0.74,0.86-1.6
				c1.56,1.35,2.4,2.81,2.72,3.57C80.95,37.95,81.73,41.37,81.73,44.92z"/>
		</g>
		<g>
			<path class="st17" d="M81.92,54.24c0.05-0.3,0.15-0.63,0.22-0.82c-0.02,0.05-0.04,0.11-0.07,0.17c0.12-0.41,0.18-0.9,0.2-1.47
				c0-0.02,0.02-0.04,0.04-0.04c0.02,0,0.04,0.02,0.04,0.04C82.32,53.02,82.17,53.73,81.92,54.24z"/>
		</g>
		<g>
			<path class="st17" d="M82.67,54.58c0.03-0.19,0.1-0.36,0.12-0.45c-0.03,0.06-0.08,0.16-0.15,0.29c0.16-0.38,0.34-0.91,0.49-1.62
				c0-0.03,0.02-0.04,0.05-0.03c0.02,0,0.04,0.03,0.03,0.05C83.04,53.62,82.84,54.2,82.67,54.58z"/>
		</g>
		<g>
			<path class="st17" d="M83.91,54.16c0.04-0.22,0.1-0.42,0.11-0.46c-0.01,0.02-0.04,0.07-0.08,0.15c0.18-0.49,0.27-0.92,0.28-1.28
				c0-0.02,0.01-0.04,0.04-0.04c0.02,0,0.04,0.02,0.04,0.04C84.29,53.02,84.16,53.55,83.91,54.16z"/>
		</g>
	</g>
	<ellipse class="st22" cx="120.24" cy="91.27" rx="12.35" ry="3.03"/>
	<path class="st5" d="M120.24,89.41c-4.17,0-7.56,0.83-7.56,1.86c0,1.02,3.39,1.85,7.56,1.85c4.17,0,7.56-0.83,7.56-1.85
		C127.8,90.24,124.42,89.41,120.24,89.41z"/>
	<path class="st14" d="M108.4,115.55c0.31-1.1,1.36-1.76,2.34-1.48c0.98,0.28,1.52,1.39,1.21,2.49c-0.31,1.1-1.36,1.76-2.34,1.48
		C108.63,117.76,108.09,116.65,108.4,115.55z"/>
	<path class="st23" d="M110.07,117.07c-0.06,0-0.12-0.01-0.17-0.03c-0.25-0.07-0.38-0.28-0.44-0.39c-0.12-0.24-0.14-0.53-0.05-0.82
		c0.15-0.52,0.56-0.79,0.89-0.79c0.06,0,0.12,0.01,0.17,0.02c0.25,0.07,0.38,0.28,0.44,0.39c0.12,0.24,0.14,0.53,0.06,0.82
		C110.8,116.79,110.39,117.07,110.07,117.07z"/>
	<g>
		<path class="st24" d="M132.96,111.48c-2.2,0.96-6.62,2.51-12.71,2.78c-0.5,0.02-1,0.03-1.48,0.03c-3.91,0-6.89-0.71-8.77-1.35
			c-1.07-0.36-1.89-0.73-2.48-1.03l0.01-0.39c1.73,0.9,6.07,2.69,12.71,2.39c6.17-0.28,10.6-1.87,12.72-2.81L132.96,111.48z"/>
	</g>
	<g>
		<g>
			<path class="st24" d="M127.75,97.03c-0.22,0-0.36,0-0.39,0c-0.07,0-0.13-0.06-0.13-0.13c0-0.07,0.07-0.13,0.13-0.13
				c0.03,0,2.76,0.05,3.88-0.34c0.07-0.03,0.14,0.01,0.16,0.08c0.02,0.07-0.01,0.14-0.08,0.16
				C130.41,96.99,128.55,97.03,127.75,97.03z"/>
		</g>
		<g>
			<path class="st24" d="M127.75,98.31c-0.22,0-0.37,0-0.39,0c-0.07,0-0.13-0.06-0.13-0.13c0-0.07,0.05-0.12,0.13-0.13
				c0.03,0,2.76,0.05,3.88-0.34c0.07-0.03,0.14,0.01,0.16,0.08c0.02,0.07-0.01,0.14-0.08,0.17
				C130.42,98.27,128.56,98.31,127.75,98.31z"/>
		</g>
		<g>
			<path class="st24" d="M127.75,99.62c-0.22,0-0.37,0-0.39,0c-0.07,0-0.13-0.06-0.13-0.13c0-0.07,0.05-0.12,0.13-0.13
				c0.03,0,2.76,0.05,3.88-0.34c0.07-0.02,0.14,0.01,0.16,0.08c0.02,0.07-0.01,0.14-0.08,0.16
				C130.42,99.58,128.56,99.62,127.75,99.62z"/>
		</g>
		<g>
			<path class="st24" d="M127.75,100.91c-0.22,0-0.36,0-0.39,0c-0.07,0-0.13-0.06-0.13-0.13c0-0.07,0.07-0.12,0.13-0.13
				c0.03,0,2.76,0.05,3.88-0.34c0.07-0.03,0.14,0.01,0.16,0.08c0.02,0.07-0.01,0.14-0.08,0.17
				C130.41,100.87,128.55,100.91,127.75,100.91z"/>
		</g>
		<g>
			<path class="st24" d="M127.75,102.21c-0.22,0-0.37,0-0.39,0c-0.07,0-0.13-0.06-0.13-0.13c0-0.07,0.05-0.12,0.13-0.13
				c0.03,0,2.76,0.05,3.88-0.34c0.07-0.02,0.14,0.01,0.16,0.08c0.02,0.07-0.01,0.14-0.08,0.17
				C130.42,102.17,128.56,102.21,127.75,102.21z"/>
		</g>
		<g>
			<path class="st24" d="M127.75,103.38c-0.22,0-0.37,0-0.39,0c-0.07,0-0.13-0.06-0.13-0.13c0-0.07,0.05-0.13,0.13-0.13
				c0.03,0,2.76,0.05,3.88-0.34c0.07-0.02,0.14,0.01,0.16,0.08c0.02,0.07-0.01,0.14-0.08,0.17
				C130.42,103.35,128.56,103.38,127.75,103.38z"/>
		</g>
		<g>
			<path class="st24" d="M127.75,104.57c-0.22,0-0.37,0-0.39,0c-0.07,0-0.13-0.06-0.13-0.13c0-0.07,0.05-0.13,0.13-0.13
				c0.03,0,2.76,0.05,3.88-0.34c0.07-0.03,0.14,0.01,0.16,0.08c0.02,0.07-0.01,0.14-0.08,0.17
				C130.42,104.54,128.56,104.57,127.75,104.57z"/>
		</g>
		<g>
			<path class="st24" d="M127.75,105.69c-0.22,0-0.36,0-0.39,0c-0.07,0-0.13-0.06-0.13-0.13c0-0.07,0.07-0.12,0.13-0.13
				c0.03,0,2.76,0.05,3.88-0.34c0.07-0.02,0.14,0.01,0.16,0.08c0.02,0.07-0.01,0.14-0.08,0.17
				C130.41,105.65,128.55,105.69,127.75,105.69z"/>
		</g>
		<g>
			<path class="st24" d="M127.75,107.22c-0.22,0-0.37,0-0.39,0c-0.07,0-0.13-0.06-0.13-0.13c0-0.07,0.05-0.13,0.13-0.13
				c0.03,0,2.76,0.05,3.88-0.34c0.07-0.02,0.14,0.01,0.16,0.08c0.02,0.07-0.01,0.14-0.08,0.16
				C130.42,107.18,128.56,107.22,127.75,107.22z"/>
		</g>
	</g>
	<polygon class="st25" points="54.62,54.53 47.13,70.98 44.52,76.7 31.55,105.2 29.36,109.99 26.53,110.39 28.94,105.2 42.15,76.7 
		44.79,70.98 52.33,54.73 	"/>
	<polygon class="st5" points="26.54,110.39 17.13,113.63 33.63,113.91 32.08,112.79 29.43,109.84 	"/>
	<polygon class="st26" points="17.13,113.63 17.13,115.36 33.63,115.36 33.63,113.91 	"/>
	<polygon class="st15" points="47.13,70.98 44.52,76.7 42.15,76.7 44.79,70.98 	"/>
	<polygon class="st15" points="31.55,105.2 29.36,109.99 26.53,110.39 28.94,105.2 	"/>
	<path class="st17" d="M62.47,30.64c0,0.2-0.09,0.36-0.2,0.36c-0.11,0-0.2-0.16-0.2-0.36c0-0.2,0.09-0.36,0.2-0.36
		C62.38,30.28,62.47,30.44,62.47,30.64z"/>
	<path class="st17" d="M61.99,36.97c0,0.2-0.09,0.36-0.2,0.36c-0.11,0-0.2-0.16-0.2-0.36c0-0.2,0.09-0.36,0.2-0.36
		C61.9,36.61,61.99,36.77,61.99,36.97z"/>
	<path class="st17" d="M63.26,42.58c0.03,0.2-0.04,0.37-0.15,0.38c-0.11,0.01-0.22-0.13-0.25-0.33c-0.03-0.2,0.04-0.37,0.15-0.38
		C63.13,42.23,63.24,42.38,63.26,42.58z"/>
	<path class="st17" d="M64.73,47.86c0.03,0.2-0.04,0.37-0.15,0.38c-0.11,0.02-0.22-0.13-0.25-0.33c-0.03-0.2,0.04-0.37,0.15-0.38
		C64.6,47.51,64.71,47.66,64.73,47.86z"/>
	<path class="st17" d="M65.74,51.78c0.03,0.2-0.04,0.37-0.15,0.38c-0.11,0.01-0.22-0.13-0.25-0.33c-0.03-0.2,0.04-0.37,0.15-0.38
		C65.61,51.44,65.72,51.58,65.74,51.78z"/>
	<path class="st14" d="M126.23,113.14c0.61-2.13,2.64-3.42,4.54-2.88c1.9,0.54,2.96,2.71,2.35,4.84c-0.61,2.13-2.64,3.42-4.54,2.88
		C126.68,117.44,125.63,115.27,126.23,113.14z"/>
	<path class="st23" d="M129.46,117.07c-0.2,0-0.41-0.03-0.6-0.08c-0.63-0.18-1.15-0.63-1.46-1.28c-0.33-0.68-0.39-1.49-0.17-2.28
		c0.38-1.32,1.47-2.25,2.66-2.25c0.2,0,0.41,0.03,0.6,0.08c0.63,0.18,1.15,0.63,1.46,1.28c0.33,0.69,0.39,1.5,0.17,2.28
		C131.75,116.14,130.66,117.07,129.46,117.07z"/>
	<path class="st27" d="M126.06,91.12c0,0.23-0.18,0.41-0.4,0.41h-12.82c-0.22,0-0.41-0.18-0.41-0.41l0,0c0-0.22,0.18-0.4,0.41-0.4
		h12.82C125.88,90.72,126.06,90.9,126.06,91.12L126.06,91.12z"/>
	<g>
		<path class="st28" d="M126.06,91.27h-1.6l-0.46-2.92c0,0-6.4-0.92-9.75,0.29l-0.12,2.63h-1.73l0.19-2.84l0.1-1.4
			c0,0,8.71-1.1,12.98,0l0.1,1.04L126.06,91.27z"/>
		<path class="st29" d="M126.06,91.27h-1.6l-0.46-2.92c0,0-6.4-0.92-9.75,0.29l-0.12,2.63h-1.73l0.19-2.84
			c1.05-0.38,3.54-1.14,6.66-1.05c2.9,0.08,5.31,0.47,6.52,0.7L126.06,91.27z"/>
	</g>
	<path class="st30" d="M13.26,75.67l0.12,0.6c-0.04-0.19-0.07-0.38-0.11-0.58C13.27,75.69,13.26,75.68,13.26,75.67z"/>
	<path class="st30" d="M15.32,84.76h-0.67C14.65,84.76,14.88,84.76,15.32,84.76L15.32,84.76z"/>
	<path class="st30" d="M102.64,84.79c0.34-0.01,0.52-0.02,0.52-0.03h-0.52C102.64,84.77,102.64,84.78,102.64,84.79z"/>
	<path class="st30" d="M117.41,74.98c0,0,0-0.01-0.01-0.02C117.4,74.97,117.41,74.98,117.41,74.98L117.41,74.98z"/>
	<path class="st30" d="M104.65,75.59c0.13-0.44,0.29-0.86,0.49-1.26c-0.26,0.34-0.54,0.94-0.81,1.77l0.21-0.02
		C104.57,75.92,104.6,75.75,104.65,75.59z"/>
	<path class="st31" d="M116.38,72.79c0.63,1.13,0.96,2.02,1.02,2.17C117.18,74.17,116.84,73.44,116.38,72.79z"/>
	<polygon class="st32" points="110.35,95.62 114.36,96.08 112.68,112.7 110.35,111.65 	"/>
</g>
</svg>
