<?xml version="1.0" encoding="utf-8"?>
<!-- Generator: Adobe Illustrator 23.0.5, SVG Export Plug-In . SVG Version: 6.00 Build 0)  -->
<svg version="1.1" id="Capa_1" xmlns="http://www.w3.org/2000/svg" xmlns:xlink="http://www.w3.org/1999/xlink" x="0px" y="0px"
	 viewBox="0 0 111.37 123.95" style="enable-background:new 0 0 111.37 123.95;" xml:space="preserve">
<style type="text/css">
	.st0{fill:#C7672C;}
	.st1{fill:#B95627;}
	.st2{fill:#F4973B;}
	.st3{fill:#E28725;}
	.st4{fill:#273C7E;}
	.st5{fill:#252D5F;}
	.st6{fill:#F1B5AC;}
	.st7{fill:#F2958E;}
	.st8{fill:#A8DAE8;}
	.st9{fill:#D65027;}
	.st10{fill:#1E2E57;}
	.st11{fill:#A7D4B4;}
	.st12{fill:#983222;}
	.st13{fill:#CC3D28;}
	.st14{fill:#611919;}
	.st15{fill:#1F1725;}
	.st16{fill:#742725;}
	.st17{fill:#5A1A19;}
	.st18{fill:#6BC4CB;}
	.st19{fill:#4A415F;}
	.st20{fill:#5C1716;}
	.st21{fill:#A9D4B4;}
</style>
<g>
	<path class="st0" d="M36.78,120.82l-0.91,0.48l-0.07,0.03c0,0-9.64-15.23-10.73-18.96c-1.1-3.73,0.75-7.63,0.75-8.39
		c0-0.75-2.71-6.46-4.27-10.56c-1.53-4.03-6.42-17.29-6.58-17.7l0-0.01c0,0,0.29,17.26,0.23,23.14c-0.06,5.89-2.25,32.49-2.25,32.49
		l-0.67,0.27l-0.11,0.04l-0.13,0.05l-0.24,0.1c0,0-5.31-14.25-5.71-18.52c-0.4-4.27,1.33-6.58,1.62-6.92
		c0.29-0.35,0.46-1.56,0.46-1.56s-3.17-11.54-4.5-16.33C2.33,73.67-0.27,65.42,0.02,60c0.29-5.42,4.79-10.09,5.94-10.79
		c0,0,0.87,0.35,1.83,0.9c0.08,0.04,0.15,0.08,0.22,0.13c0.21,0.13,0.43,0.26,0.64,0.41c0.57,0.38,1.09,0.82,1.4,1.28
		c0.98,1.44,6.65,8.48,13.3,4.15c2.17,4.15,7.01,20.49,7.99,29.08C32.34,93.75,36.78,120.82,36.78,120.82z"/>
	<path class="st1" d="M12.17,121.65l-0.13,0.05l-0.24,0.1c0,0-5.31-14.25-5.71-18.52c-0.4-4.27,1.33-6.58,1.62-6.92
		c0.29-0.35,0.46-1.56,0.46-1.56s-3.17-11.54-4.5-16.33C2.33,73.67-0.27,65.42,0.02,60c0.29-5.42,4.79-10.09,5.94-10.79
		c0,0,0.87,0.35,1.83,0.9c0.08,0.04,0.15,0.08,0.22,0.13c0.21,0.13,0.43,0.26,0.64,0.41c-1.38,2.17-4.49,6.69-4.69,12.88
		c-0.21,6.74,5.14,27.44,5.69,31.94c0,0-1.52,3.39-0.67,9.74C9.65,110.11,11.41,118.23,12.17,121.65z"/>
	<path class="st1" d="M35.86,121.3l-0.07,0.03c0,0-9.64-15.23-10.73-18.96c-1.1-3.73,0.75-7.63,0.75-8.39
		c0-0.75-2.71-6.46-4.27-10.56c-1.53-4.03-6.42-17.29-6.58-17.7l12.71,27.14c0.25,4.93,1.39,13.24,2.81,16.88
		C31.52,112.39,34.39,118.29,35.86,121.3z"/>
	<path class="st2" d="M31.65,41.54c-1.5,0.23-2.79,1-3.71,1.71v0c-0.91,0.71-1.45,1.36-1.45,1.36c0-0.05-0.02-0.14-0.05-0.26
		c-0.15-0.78-0.65-2.86-0.76-3.34c-0.05-0.69-0.14-1.35-0.27-1.98c0,0,0.7-0.18,1.5-0.57c0.8-0.39,1.71-1.01,2.09-1.88
		c0.75-1.73,0.11-4.96-0.35-7.16c-0.46-2.19-0.98-5.08-1.04-5.83l1.71,1.85c0,0,1.17,3.98,1.75,7.04
		C31.65,35.54,31.65,41.54,31.65,41.54z"/>
	<path class="st3" d="M27.93,43.25L27.93,43.25c-0.91,0.71-1.45,1.36-1.45,1.36c0-0.05-0.02-0.14-0.05-0.26
		c-0.15-0.78-0.65-2.86-0.76-3.34c-0.05-0.69-0.14-1.35-0.27-1.98c0,0,0.7-0.18,1.5-0.57C27.52,39.83,27.83,42.25,27.93,43.25z"/>
	<path class="st2" d="M16.07,24.92c-1.15,2.85-4.57,7.42-4.63,7.5c-0.67,0.88-1.6,2.08-1.6,2.08C8.04,35.16,6,35.35,4.59,35.38
		c-1.04,0.03-1.74-0.02-1.74-0.02c-0.4-1.44-0.11-2.83,1.15-5.25c0.67-1.28,1.58-2.78,2.71-4.37c0,0,0,0,0,0
		c1-1.41,2.16-2.89,3.47-4.34c2.77-3.06,3.75-2.88,6.11-3.06C16.29,18.34,17.22,22.05,16.07,24.92z"/>
	<path class="st3" d="M4.99,31.15c-0.49,1.6-0.48,3.24-0.39,4.23c-1.04,0.03-1.74-0.02-1.74-0.02c-0.4-1.44-0.11-2.83,1.15-5.25
		c0.67-1.28,1.58-2.78,2.71-4.37C6.09,27.65,5.31,30.08,4.99,31.15z"/>
	<path class="st4" d="M28.99,36.58c-0.53,1.22-2.09,1.94-2.97,2.25c-0.37,0.13-0.62,0.2-0.62,0.2c0.13,0.63,0.21,1.3,0.27,1.98
		c0.5,6.63-2.3,15.07-2.3,15.07c-6.66,4.33-12.32-2.71-13.3-4.15c-0.29-0.44-0.79-0.86-1.33-1.23c-1.25-0.87-2.76-1.48-2.76-1.48
		c2.66-2.08,4.73-5.48,5.47-9.17c0.72-3.61,0.04-7.42,0-7.61c0,0,0-0.01,0-0.01l0,0c0,0,0,0,0.01-0.01c0-0.01,0.01-0.01,0.02-0.02
		c0.31-0.42,3.5-4.74,4.61-7.47c1.16-2.87,0.23-6.58,0.23-6.58l4.39,1.15l2.69,3.21l2.81-1.85l1.43,2.74
		c0.06,0.75,0.58,3.64,1.04,5.83c0.16,0.76,0.34,1.65,0.48,2.55C29.38,33.67,29.48,35.45,28.99,36.58z"/>
	<path class="st5" d="M12.95,35.02c0,0,1.11,2.94-0.43,6.98c-1.02,2.69-2.76,6.47-3.79,8.7c-1.25-0.87-2.76-1.48-2.76-1.48
		c2.66-2.08,4.73-5.48,5.47-9.17c0.72-3.61,0.04-7.42,0-7.61l0-0.01c0,0,0,0,0.01-0.01c0-0.01,0.01-0.01,0.02-0.02
		c0.24-0.31,2.17-2.77,2.46-3.37c-0.04,0.3-0.91,6.32,2.02,7.5C15.94,36.52,14.04,36.46,12.95,35.02z"/>
	<path class="st6" d="M38.25,8.43c-1.89,0.94-3.37,0.44-4.15-0.01c-0.36-0.16-0.53-0.33-0.62-0.45c-0.07-0.09-0.08-0.15-0.08-0.15
		s0.04,0.96-3.08,0.39c-1.38-0.25-2.21-0.63-2.7-0.98c-0.62-0.43-0.71-0.8-0.71-0.8s-1.17,1.78-1.9,2.9c0,0,0.43-1.86-0.74-2.12
		c-1.17-0.26-2.17,1.34-1.82,3.03c0.35,1.69,1.38,2.3,1.38,2.3s0,0.11,0,0.31c0,0.44,0.03,1.31,0.23,2.28
		c0.01,0.03,0.01,0.06,0.02,0.09c0.25,1.14,0.74,2.4,1.7,3.25c0.28,0.24,0.58,0.45,0.89,0.63c0.08,0.04,0.15,0.09,0.23,0.13
		c1.8,0.95,4.01,0.95,5.66,0.33c0.26-0.1,0.52-0.22,0.75-0.35c1.99-1.13,3.72-4.54,4.41-6.75c0.19-0.62,0.32-1.2,0.4-1.73
		C38.26,9.54,38.25,8.43,38.25,8.43z"/>
	<path class="st7" d="M27.62,7.24c-2.12,2.17-3.09,5.45-3.54,7.99c-0.01-0.03-0.01-0.06-0.02-0.09c-0.2-0.97-0.23-1.83-0.23-2.28
		c0-0.2,0-0.31,0-0.31s-1.04-0.61-1.38-2.3c-0.35-1.69,0.65-3.29,1.82-3.03c1.17,0.26,0.74,2.12,0.74,2.12
		c0.73-1.13,1.9-2.9,1.9-2.9S27,6.81,27.62,7.24z"/>
	<g>
		<path class="st6" d="M26.9,19.23c-0.19,0.27-0.5,0.71-0.87,1.19c-0.83,1.1-1.93,2.41-2.41,2.39c-0.82-0.05-1.6-2.73-1.52-3.33
			c0.04-0.28,0.47-1.16,0.91-2.05c0.53-1.06,1.08-2.15,1.05-2.28c0.25,1.17,0.73,2.47,1.72,3.34C26.13,18.77,26.51,19.02,26.9,19.23
			z"/>
		<path class="st7" d="M26.9,19.23c-0.19,0.27-0.5,0.71-0.87,1.19c-1.4-0.48-2.59-2.19-3.02-3c0.53-1.06,1.08-2.15,1.05-2.28
			c0.25,1.17,0.73,2.47,1.72,3.34C26.13,18.77,26.51,19.02,26.9,19.23z"/>
	</g>
	<g>
		<path class="st6" d="M10.67,37.25c-0.44,1.22-1.39,3.72-2.37,5.62c-0.15,0.29-0.3,0.56-0.45,0.82c-4.69-6.45-5-8.33-5-8.33
			c0.56,0.04,1.12,0.04,1.65,0.02c3-0.1,5.34-0.89,5.34-0.89s-0.12,0.35,0.17,1.04C10.21,36.04,10.52,36.85,10.67,37.25z"/>
		<path class="st7" d="M8.3,42.87c-0.15,0.29-0.3,0.56-0.45,0.82c-4.69-6.45-5-8.33-5-8.33c0.56,0.04,1.12,0.04,1.65,0.02
			C5.08,37.55,7.19,41.09,8.3,42.87z"/>
	</g>
	<g>
		<path class="st6" d="M31.65,49.04c-1.3,0.1-2.58,0.58-3.46,0.98c-0.67,0.32-1.1,0.58-1.1,0.58c-0.22-3.42-0.59-5.85-0.64-6.2
			c0.02,0.1,0.04,0.17,0.04,0.21c0,0,0.57-0.69,1.53-1.42c0.91-0.7,2.17-1.43,3.63-1.65C32.22,45.69,31.65,49.04,31.65,49.04z"/>
		<path class="st7" d="M28.19,50.02c-0.67,0.32-1.1,0.58-1.1,0.58c-0.22-3.42-0.59-5.85-0.64-6.2c0.02,0.1,0.04,0.17,0.04,0.21
			c0,0,0.57-0.69,1.53-1.42C28.12,44.75,28.3,47.7,28.19,50.02z"/>
	</g>
	<path class="st8" d="M58.01,123.87H77.2c0,0,0.66-0.34,1.96-0.14c1.3,0.2,2.91,0.39,2.94-0.06c0.03-0.46-1.12-0.77-3.12-0.9
		c-1.99-0.13-1.93-0.48-2.8-0.53c-0.87-0.06-2.02-0.17-2.45-0.49c-0.43-0.32-0.98-0.55-2.11-0.33c-1.13,0.22-1.93,0.97-3.72,0.77
		c-1.79-0.2-2.86-0.72-4.88,0.03c-2.02,0.75-2.88,0.55-3.75,0.29C58.42,122.23,56.37,123.61,58.01,123.87z"/>
	<path class="st9" d="M60.44,117.99c-1.32-0.45-3.09,0.17-3.95,1.3c-0.87,1.13-0.95,3.14-0.2,3.72c0.75,0.58,1.5,0.61,2.22,0.43
		c0.72-0.17,0.95-0.26,1.47-0.12s0.66,0.06,1.07-0.09c0.4-0.14,0.63,0.2,1.35,0.14c0.72-0.06,1.73-0.52,1.82-0.38
		c0.09,0.14,0.43,0.43,0.81,0.23c0.38-0.2,0.78-0.26,1.18-0.03c0.4,0.23,1.79,0,2.31-0.46c0.52-0.46,0.06-1.1,0-1.3
		c-0.06-0.2-0.14-0.56-0.87-1.1c-0.72-0.54-2.21-1.34-3.34-1.69C63.19,118.31,61.45,118.34,60.44,117.99z"/>
	<path class="st2" d="M22.28,18.96l-1.6,0.53l0.29,5.42l2.4-2.22C23.37,22.7,22.04,21.03,22.28,18.96z"/>
	<path class="st2" d="M24.07,22.6l1.75,2.6l0.92-2.41l-0.7-2.38C26.04,20.41,24.5,22.41,24.07,22.6z"/>
	<path class="st10" d="M11.79,121.8c0.31-0.12,2.02-1.33,3.23-0.98c1.21,0.35,2.19,1.95,2.19,1.95h-5.42V121.8z"/>
	<path class="st10" d="M35.8,121.34c0,0,1.04-1.04,2.71-1.04c1.67,0,2.54,2.19,2.54,2.19h-4.79L35.8,121.34z"/>
	<path class="st8" d="M12.2,40.32L12.2,40.32c-0.09,0.34-0.31,0.95-0.87,1.97c-0.39,0.7-0.85,1.44-1.27,2.07
		c-0.41,0.62-0.78,1.14-0.99,1.43c-0.12,0.17-0.19,0.27-0.19,0.27c-0.72-0.49-1.29-1.93-1.29-1.93c0.09-0.14,0.18-0.29,0.27-0.44
		c0.16-0.27,0.32-0.56,0.47-0.88c0.97-1.89,1.9-4.35,2.34-5.56c0.17-0.46,0.26-0.74,0.26-0.74l1.33,3.46
		C12.26,39.98,12.27,40.07,12.2,40.32z"/>
	<path class="st8" d="M31.13,56.28c-0.52,2.74-1.42,6.92-1.42,6.92s0.64,1.82,0.43,3.69c-0.2,1.88-1.15,2.22-1.47,2.02
		c-0.31-0.2,0.06-1.35,0-2.45c-0.06-1.1-0.57-2.11-0.57-2.11s-0.81,1.47-1.29,1.21c-0.01-0.01-0.03-0.02-0.04-0.03
		c-0.38-0.32,0.46-1.75,0.46-1.75s-0.03-1.99,0-3.69c0.03-1.7-0.27-6.89-0.25-6.92c0,0,0,0,0,0c0.28-0.13,0.61-0.36,0.97-0.63
		c0.7-0.51,1.5-1.14,2.19-1.38c0.79-0.28,1.38-0.42,1.75-0.48C31.86,51.08,31.6,53.76,31.13,56.28z"/>
	<path class="st8" d="M32.51,48.69l-0.17,1.9c0,0-0.16,0.01-0.44,0.06c-0.37,0.07-0.96,0.21-1.75,0.48
		c-0.69,0.24-1.49,0.88-2.19,1.38c-0.36,0.27-0.7,0.5-0.97,0.63c-0.26,0.13-0.47,0.16-0.59,0.03c-0.49-0.52-0.53-1.77-0.43-1.85
		c0.73-0.57,1.48-1.02,2.2-1.37C30.51,48.81,32.51,48.69,32.51,48.69z"/>
	<path class="st6" d="M38.25,8.43c0,0,0.01,1.11-0.12,2.3C38.34,9.37,38.25,8.43,38.25,8.43z"/>
	<g>
		<path class="st11" d="M61.57,118.91c-0.23,0-0.45-0.11-0.58-0.31L17.81,52.91c-0.21-0.32-0.12-0.75,0.2-0.96
			c0.32-0.21,0.75-0.12,0.96,0.2l43.18,65.69c0.21,0.32,0.12,0.75-0.2,0.96C61.84,118.88,61.7,118.91,61.57,118.91z"/>
	</g>
	<path class="st8" d="M19.24,53.51c-0.43,0.32-0.37-0.75-0.37-0.75s-0.09,1.21-0.47,1.27c-0.38,0.06-0.48-1.3-0.62-1.36
		c-0.14-0.06,0.46,1.38,0,1.36c-0.28-0.01-0.48-0.38-0.6-0.67c0.09,0.31,0.12,0.73-0.3,0.66c-0.12-0.02-0.29-0.08-0.51-0.2
		c-1.38-0.75-1.96-3.69-1.96-3.69c-2.52-1.23-4.88-3.7-5.32-4.34C9.01,45.71,8.99,45.67,9,45.65l0.85-1.41l2.35-3.92l4.7,7.59
		c0,0,1.56,1.24,2.34,2.34C20.02,51.34,19.67,53.19,19.24,53.51z"/>
	<g>
		<path class="st8" d="M18.82,37.3c0,0-0.01,0-0.01,0c-2.48-0.22-4.28-1.04-5.35-2.45c-1.39-1.83-1.03-3.95-1.01-4.04
			c0-0.02,0.02-0.05,0.03-0.07c3.82-4.06,1.77-8.41,1.75-8.45c-0.03-0.06,0-0.14,0.06-0.17c0.07-0.03,0.14,0,0.17,0.06
			c0.02,0.04,2.13,4.54-1.77,8.71c-0.04,0.29-0.25,2.19,0.97,3.8c1.02,1.34,2.76,2.13,5.16,2.34c0.07,0.01,0.12,0.07,0.12,0.14
			C18.94,37.24,18.89,37.3,18.82,37.3z"/>
	</g>
	<g>
		<path class="st4" d="M28.65,52.15c-0.04,0-0.07-0.01-0.1-0.04c-0.05-0.05-0.04-0.13,0.01-0.18c0.06-0.05,1.42-1.22,3.76-1.46
			c0.07-0.01,0.13,0.04,0.14,0.12c0.01,0.07-0.04,0.13-0.12,0.14c-2.25,0.22-3.6,1.38-3.61,1.39
			C28.71,52.14,28.68,52.15,28.65,52.15z"/>
	</g>
	<g>
		<path class="st2" d="M12.28,121.6l-0.24,0.1c-0.79-3.15-3.58-14.39-3.95-17.53c-0.26-2.2,0.1-5.02,0.43-7.51
			c0.21-1.68,0.4-3.13,0.35-4.05c-0.1-1.71-1.37-6.56-2.5-10.84c-0.38-1.44-0.74-2.82-1.04-4.02C3.4,70.12,2.8,64.46,3.5,60.43
			c0.87-4.97,3.63-9.32,4.29-10.31c0.08,0.04,0.15,0.08,0.22,0.13c-0.63,0.95-3.4,5.28-4.26,10.23c-0.69,3.99-0.1,9.62,1.81,17.21
			c0.31,1.2,0.67,2.58,1.05,4.02c1.13,4.29,2.41,9.16,2.51,10.9c0.05,0.95-0.14,2.41-0.35,4.1c-0.32,2.47-0.68,5.28-0.43,7.44
			C8.71,107.26,11.48,118.42,12.28,121.6z"/>
	</g>
	<g>
		<g>
			<path class="st12" d="M23.71,11.04c-0.01,0-0.02,0-0.03,0c-0.05-0.02-0.07-0.07-0.05-0.11c0.47-1.31,0-2.91,0-2.93
				c-0.01-0.05,0.01-0.09,0.06-0.11c0.05-0.01,0.09,0.01,0.11,0.06c0.02,0.07,0.49,1.67,0,3.04C23.78,11.02,23.75,11.04,23.71,11.04
				z"/>
		</g>
		<g>
			<path class="st12" d="M23.78,10.22c-0.09,0-0.21-0.02-0.32-0.1c-0.13-0.11-0.19-0.29-0.18-0.54c0.01-0.26,0.09-0.43,0.23-0.53
				c0.2-0.13,0.43-0.05,0.44-0.05c0.04,0.02,0.07,0.06,0.05,0.11c-0.02,0.05-0.06,0.07-0.11,0.05c0,0-0.17-0.06-0.29,0.03
				c-0.09,0.06-0.15,0.2-0.16,0.39c-0.01,0.19,0.03,0.33,0.12,0.4c0.12,0.1,0.3,0.05,0.3,0.05c0.05-0.01,0.09,0.02,0.11,0.06
				c0.01,0.05-0.02,0.09-0.06,0.11C23.92,10.2,23.86,10.22,23.78,10.22z"/>
		</g>
	</g>
	<g>
		<path class="st13" d="M30.98,17.93c-1.75,0-2.86-1.58-2.91-1.66c-0.04-0.06-0.03-0.14,0.03-0.18c0.06-0.04,0.14-0.03,0.18,0.03
			c0.01,0.02,1.19,1.69,2.94,1.53c0.07-0.01,0.13,0.05,0.14,0.12c0.01,0.07-0.05,0.13-0.12,0.14
			C31.16,17.93,31.07,17.93,30.98,17.93z"/>
	</g>
	<g>
		<path class="st12" d="M33.06,16.94c-0.29,0-0.88-0.26-1.75-0.78c-0.04-0.02-0.05-0.08-0.03-0.12c0.02-0.04,0.08-0.05,0.12-0.03
			c1.01,0.6,1.59,0.81,1.71,0.75c0.13-0.15,0.49-2.22,0.76-4.09c0.01-0.05,0.05-0.08,0.1-0.07c0.05,0.01,0.08,0.05,0.07,0.1
			c-0.22,1.52-0.62,4.1-0.85,4.22C33.15,16.93,33.11,16.94,33.06,16.94z"/>
	</g>
	<path class="st14" d="M28.18,9.94c0,0,0.92-1.08,2.22-0.89c1.3,0.2,1.62,1.55,1.62,1.55S31.68,10,30.1,9.82
		C28.51,9.63,28.18,9.94,28.18,9.94z"/>
	<path class="st14" d="M34.27,11.88c0,0,1.07-0.81,1.9-0.49c0.84,0.32,0.78,1.67,0.78,1.67s-0.26-0.45-1.18-0.87
		C34.84,11.76,34.27,11.88,34.27,11.88z"/>
	<path class="st15" d="M30.9,12.71c-0.36,0.52-0.81,0.84-1.01,0.7c-0.2-0.14-0.07-0.67,0.29-1.2c0.36-0.52,0.81-0.84,1.01-0.7
		C31.39,11.65,31.26,12.19,30.9,12.71z"/>
	<path class="st15" d="M35.42,14.61c-0.34,0.49-0.77,0.78-0.97,0.64c-0.2-0.14-0.09-0.65,0.25-1.14c0.34-0.49,0.77-0.78,0.97-0.64
		C35.86,13.61,35.75,14.12,35.42,14.61z"/>
	<g>
		<path class="st4" d="M10.66,43.55c-0.03,0-0.05-0.01-0.08-0.03c-0.06-0.04-0.07-0.13-0.03-0.18c1.61-2.15,1.57-3.35,1.57-3.36
			c0-0.07,0.05-0.13,0.12-0.14c0.07,0,0.13,0.05,0.14,0.12c0,0.05,0.06,1.3-1.62,3.53C10.74,43.54,10.7,43.55,10.66,43.55z"/>
	</g>
	<g>
		<path class="st16" d="M40.24,11.24c-0.73,2.6-2.77,1.97-2.77,1.97c0.26-0.76,0.56-1.54,0.66-2.49c0.21-1.35,0.12-2.29,0.12-2.29
			c-1.89,0.94-3.37,0.44-4.15-0.01c-0.4-0.23-0.62-0.45-0.62-0.45c-0.07-0.09-0.08-0.15-0.08-0.15s0.04,0.96-3.08,0.39
			c-3.11-0.56-3.41-1.78-3.41-1.78s-1.17,1.78-1.9,2.9c0,0,0.22-0.96-0.08-1.59c-0.12-0.26-0.32-0.46-0.66-0.53
			c-1.17-0.26-2.17,1.34-1.82,3.03c0.14,0.7,0.41,1.22,0.67,1.57c0.36,0.51,0.72,0.72,0.72,0.72s0,0.11,0,0.31
			c-0.11,0.66,0.35,2.03,0.23,2.86c-0.29,1.99-1.07,3.6-1.96,4.49c-0.51,0.51-1.5,0.81-2.55,0.91c-1.81,0.17-3.83-0.28-4.02-1.43
			c-0.3-1.82,0.69-4.76,4.67-10.04c3.98-5.28,7.88-8.23,11.44-9.31c3.56-1.08,4.31,0.78,4.31,0.78c1.04-0.82,2.42,0.52,3.12,1.95
			c0.29,0.6,0.67,1.67,0.96,2.9C40.43,7.69,40.67,9.73,40.24,11.24z"/>
		<path class="st17" d="M24.06,15.72c-0.29,1.99-1.07,3.6-1.96,4.49c-0.51,0.51-1.5,0.81-2.55,0.91c1.05-0.77,2.59-2.33,2.84-4.91
			c0.13-1.45,0.36-2.96,0.74-4.38c0.36,0.51,0.72,0.72,0.72,0.72s0,0.11,0,0.31C23.73,13.52,24.19,14.89,24.06,15.72z"/>
		<path class="st17" d="M40.24,11.24c-0.73,2.6-2.77,1.97-2.77,1.97c0.26-0.76,0.56-1.54,0.66-2.49c0.21-1.35,0.12-2.29,0.12-2.29
			c-1.89,0.94-3.37,0.44-4.15-0.01c-0.4-0.23-0.62-0.45-0.62-0.45c-0.07-0.09-0.08-0.15-0.08-0.15s0.04,0.96-3.08,0.39
			c-3.11-0.56-3.41-1.78-3.41-1.78s-1.17,1.78-1.9,2.9c0,0,0.22-0.96-0.08-1.59c0.5-0.68,1.1-1.25,1.81-1.66
			c0,0,0.66,1.08,3.36,1.13c2.7,0.04,3.38-0.48,3.38-0.48S34.27,9,36.95,8.19c1.45-0.43,2.45-1.42,3.08-2.23
			C40.43,7.69,40.67,9.73,40.24,11.24z"/>
	</g>
	<g>
		<path class="st16" d="M31.65,26.87c-1.62,0.84-3.61-1.75-4.48-2.85c-0.02-0.03-0.05-0.07-0.08-0.1c-0.82-1.04-1.17-3.12-0.99-3.58
			l0.58-1.24c0.08,0.04,0.15,0.09,0.23,0.13c1.8,0.95,4.01,0.95,5.66,0.33h0.01c0,0,0.02,0.2,0.05,0.53
			C32.76,21.65,33.02,26.15,31.65,26.87z"/>
		<path class="st17" d="M32.62,20.09c-1.52,0.27-5.04,1.18-5.46,3.93c-0.02-0.03-0.05-0.07-0.08-0.1c-0.82-1.04-1.17-3.12-0.99-3.58
			l0.58-1.24c0.08,0.04,0.15,0.09,0.23,0.13c1.8,0.95,4.01,0.95,5.66,0.33h0.01C32.57,19.55,32.6,19.75,32.62,20.09z"/>
	</g>
	<path class="st5" d="M28.99,36.58c-0.53,1.22-2.09,1.94-2.97,2.25c3.06-1.68,3.03-6.99,3.03-6.99s0.03,0.04,0.07,0.13
		C29.38,33.67,29.48,35.45,28.99,36.58z"/>
	<g>
		<path class="st8" d="M25.4,39.16c-0.06,0-0.11-0.04-0.13-0.1c-0.01-0.07,0.03-0.14,0.1-0.15c0.03-0.01,2.58-0.54,3.5-2.38
			c0.92-1.85-0.19-6.29-0.21-6.33c-0.02-0.07,0.03-0.14,0.1-0.16c0.07-0.02,0.14,0.03,0.16,0.09c0.05,0.19,1.15,4.57,0.19,6.51
			c-0.97,1.95-3.57,2.5-3.68,2.52C25.42,39.16,25.41,39.16,25.4,39.16z"/>
	</g>
	<path class="st18" d="M14.97,50.31c0,0,0.72,2.42,1.89,3.72c-0.12-0.02-0.29-0.08-0.51-0.2c-1.38-0.75-1.96-3.69-1.96-3.69
		c-2.52-1.23-4.88-3.7-5.32-4.34c-0.12,0.17-0.19,0.27-0.19,0.27c-0.72-0.49-1.29-1.93-1.29-1.93c0.09-0.14,0.18-0.29,0.27-0.44
		c0.16-0.27,0.32-0.56,0.47-0.88c0.37,0.46,0.89,1.03,1.52,1.42c0.07,0.04,0.14,0.09,0.22,0.12c0.19,0.1,0.39,0.19,0.6,0.25
		C10.67,44.61,13.42,49.44,14.97,50.31z"/>
	<path class="st18" d="M27.95,52.53c-0.01,0.16-0.02,0.26-0.02,0.26s0.03,10.65-0.55,11.71c-0.15,0.29-0.37,0.65-0.61,1.03
		c-0.38-0.32,0.46-1.75,0.46-1.75s-0.03-1.99,0-3.69c0.03-1.7-0.27-6.89-0.25-6.92c0,0,0,0,0,0c-0.26,0.13-0.47,0.16-0.59,0.03
		c-0.49-0.52-0.53-1.77-0.43-1.85c0.73-0.57,1.48-1.02,2.2-1.37C28.09,50.84,28,52.02,27.95,52.53z"/>
	<path class="st5" d="M58.73,118.91c-1.06,1.08-0.43,2.11,1.67,2.13c2.11,0.03,5.14,0.12,4.96-1.1c-0.18-1.21-1.68-1.79-3.8-1.76
		C59.46,118.22,59.02,118.62,58.73,118.91z"/>
	<g>
		<g>
			<g>
				<path class="st19" d="M76.45,119.65c-0.19,0-0.35-0.16-0.35-0.35v-2.81c0-0.19,0.16-0.35,0.35-0.35c0.19,0,0.35,0.16,0.35,0.35
					v2.81C76.8,119.49,76.64,119.65,76.45,119.65z"/>
			</g>
			<g>
				<path class="st19" d="M105.31,120.04c-0.19,0-0.35-0.15-0.35-0.35v-3.19c0-0.19,0.16-0.35,0.35-0.35c0.19,0,0.35,0.16,0.35,0.35
					v3.19C105.66,119.88,105.51,120.04,105.31,120.04z"/>
			</g>
		</g>
		<polygon class="st2" points="91.38,95.17 91.38,114.65 77.18,114.65 72.67,96.71 72.59,96.36 72.29,95.17 		"/>
		<polygon class="st9" points="111.2,95.17 110.84,96.36 110.74,96.71 105.31,114.65 91.38,114.65 91.38,95.17 		"/>
		<rect x="75.19" y="114.22" class="st11" width="31.25" height="2.6"/>
		<path class="st10" d="M77.7,120.42c0,0.99-0.56,1.79-1.25,1.79c-0.69,0-1.25-0.8-1.25-1.79c0-0.99,0.56-1.79,1.25-1.79
			C77.14,118.63,77.7,119.43,77.7,120.42z"/>
		<path class="st10" d="M106.7,120.47c0,0.99-0.56,1.79-1.26,1.79c-0.69,0-1.25-0.8-1.25-1.79c0-0.99,0.56-1.79,1.25-1.79
			C106.14,118.68,106.7,119.49,106.7,120.47z"/>
		<g>
			<path class="st5" d="M73.87,107.09c-0.04,0-0.08-0.01-0.11-0.04c-0.07-0.06-0.09-0.17-0.03-0.24l9.52-11.74
				c0.06-0.07,0.17-0.08,0.24-0.03c0.07,0.06,0.09,0.17,0.03,0.24L74,107.03C73.97,107.07,73.92,107.09,73.87,107.09z"/>
		</g>
		<g>
			<path class="st5" d="M108.72,107.09c-0.06,0-0.11-0.03-0.15-0.08l-7.43-11.74c-0.05-0.08-0.03-0.19,0.05-0.24
				c0.08-0.05,0.19-0.03,0.24,0.05l7.43,11.74c0.05,0.08,0.03,0.19-0.05,0.24C108.78,107.08,108.75,107.09,108.72,107.09z"/>
		</g>
		<g>
			<path class="st5" d="M76.06,95.35C76.06,95.35,76.05,95.35,76.06,95.35c-0.1-0.01-0.18-0.09-0.17-0.18
				c0-0.07,0.36-6.65,5.95-6.54c3.18,0.07,5.07,2.13,5.62,6.14c0.02,0.13,0.04,0.25,0.05,0.31c0.02,0.03,0.04,0.06,0.04,0.1
				c0,0.1-0.08,0.17-0.17,0.17c-0.18,0-0.19-0.13-0.25-0.54c-0.19-1.42-0.79-5.74-5.29-5.84c-5.25-0.12-5.6,6.15-5.6,6.21
				C76.23,95.28,76.15,95.35,76.06,95.35z"/>
		</g>
		<g>
			<path class="st5" d="M90.82,109.17c-0.07,0-0.14-0.04-0.16-0.11c-0.05-0.13-0.06-0.16,10.2-13.57
				c4.49-5.86,8.98-11.71,9.99-13.04h-8.27L93.51,95.3c-0.05,0.08-0.16,0.1-0.24,0.04c-0.08-0.05-0.1-0.16-0.04-0.24l9.12-12.93
				c0.03-0.05,0.08-0.07,0.14-0.07h8.71c0.07,0,0.13,0.04,0.16,0.1c0.03,0.06,0.02,0.13-0.02,0.18
				c-6.89,8.97-19.97,26.04-20.36,26.68c-0.02,0.04-0.05,0.08-0.1,0.09C90.86,109.16,90.84,109.17,90.82,109.17z"/>
		</g>
		<g>
			<polygon class="st5" points="110.84,96.36 110.74,96.71 72.67,96.71 72.59,96.36 			"/>
		</g>
		<g>
			<path class="st5" d="M77.16,98.38c-0.1,0-0.17-0.08-0.17-0.17v-1.67c0-0.1,0.08-0.17,0.17-0.17c0.09,0,0.17,0.08,0.17,0.17v1.67
				C77.33,98.3,77.25,98.38,77.16,98.38z"/>
		</g>
		<g>
			<path class="st20" d="M84.54,98.23c-0.1,0-0.17-0.07-0.17-0.16v-1.59c0-0.09,0.08-0.16,0.17-0.16s0.17,0.07,0.17,0.16v1.59
				C84.72,98.16,84.64,98.23,84.54,98.23z"/>
		</g>
		<g>
			<path class="st5" d="M96.14,98.38c-0.09,0-0.17-0.08-0.17-0.17v-1.67c0-0.1,0.08-0.17,0.17-0.17c0.1,0,0.17,0.08,0.17,0.17v1.67
				C96.31,98.3,96.24,98.38,96.14,98.38z"/>
		</g>
		<g>
			<path class="st5" d="M107.33,98.38c-0.09,0-0.17-0.08-0.17-0.17v-1.67c0-0.1,0.08-0.17,0.17-0.17c0.09,0,0.17,0.08,0.17,0.17
				v1.67C107.51,98.3,107.43,98.38,107.33,98.38z"/>
		</g>
		<path class="st21" d="M93.14,90.93h-4.33l-4.79,23.28H85l3.41-14.11h5.14l2.88,14.11h1.21L93.14,90.93z M89.22,94.8l0.4-2.65h2.83
			l0.29,2.65H89.22z"/>
	</g>
</g>
</svg>
