<?xml version="1.0" encoding="utf-8"?>
<!-- Generator: Adobe Illustrator 23.0.5, SVG Export Plug-In . SVG Version: 6.00 Build 0)  -->
<svg version="1.1" id="Capa_1" xmlns="http://www.w3.org/2000/svg" xmlns:xlink="http://www.w3.org/1999/xlink" x="0px" y="0px"
	 viewBox="0 0 247.5 123.54" style="enable-background:new 0 0 247.5 123.54;" xml:space="preserve">
<style type="text/css">
	.st0{fill:#BD2B2B;}
	.st1{fill:#020203;}
</style>
<g>
	<g>
		<g>
			<path class="st0" d="M103.41,0.05l-88.5,22.82c-3.76,0.97-6.74,5.35-6.64,9.75l2.2,90.92l-3.03,0c-4.07,0-7.41-3.33-7.41-7.4
				L0,7.49c0-4.07,3.33-7.41,7.4-7.41L103.41,0.05z"/>
			<path class="st0" d="M247.46,7.4l0.04,108.64c0,4.08-3.33,7.41-7.4,7.41l-96,0.03l88.5-22.82c3.76-0.97,6.74-5.35,6.64-9.75
				L237.02,0l3.03,0C244.13,0,247.46,3.33,247.46,7.4z"/>
		</g>
		<g>
			<path class="st0" d="M46.67,35.02l-10.34,0L20.96,65.9l7.66,0l3.41-6.67l18.79-0.01l3.1,6.67l8.09,0L46.67,35.02z M33.92,54.09
				l7.24-14.33h0.52l7.2,14.33L33.92,54.09z"/>
			<path class="st0" d="M97.39,60.26c-0.77,0.14-2.76,0.27-5.96,0.4c-3.2,0.12-7.71,0.19-13.52,0.19h-2.15
				c-1.58,0-2.67-0.32-3.28-0.97c-0.61-0.65-0.92-1.56-0.92-2.76l0-13.39c0-2.48,1.4-3.73,4.2-3.73h2.68
				c5.56,0,9.81,0.06,12.73,0.18c2.92,0.12,4.68,0.24,5.27,0.34l1.05-4.36c0-0.28-0.64-0.55-1.92-0.81
				c-1.28-0.26-3.12-0.39-5.54-0.39l-15.8,0c-3.4,0-5.84,0.8-7.35,2.39c-1.5,1.59-2.26,4.07-2.26,7.43l0,11.71
				c0,2.07,0.28,3.8,0.84,5.2c0.56,1.4,1.54,2.45,2.94,3.15c1.4,0.7,3.34,1.05,5.83,1.05l14.59,0c2.9,0,5.13-0.14,6.67-0.42
				c1.54-0.28,2.6-0.6,3.18-0.95c0.58-0.35,0.87-0.61,0.87-0.79L97.39,60.26z"/>
			<path class="st0" d="M139.75,44.34c0-2.06-0.3-3.79-0.89-5.17c-0.6-1.38-1.65-2.42-3.18-3.12c-1.52-0.7-3.7-1.05-6.54-1.05
				L104.79,35l0.53,4.2l0.01,26.67l23.83-0.01c2.87,0,5.07-0.35,6.59-1.05c1.52-0.7,2.57-1.74,3.15-3.12
				c0.58-1.38,0.86-3.13,0.86-5.23L139.75,44.34z M128.74,60.82l-16.49,0.01l-0.01-20.79l16.48-0.01c1.54,0,2.61,0.36,3.2,1.07
				c0.59,0.72,0.89,1.58,0.89,2.6l0,13.39C132.79,59.58,131.43,60.82,128.74,60.82z"/>
			<path class="st0" d="M179.97,60.81l-25.93,0.01l0-8.35l19.63-0.01l0-5.2l-19.63,0.01l0-7.24l25.72-0.01l0-5.04l-32.65,0.01
				l0.01,30.87l28.66-0.01c2.31,0,3.94-0.06,4.88-0.18c0.94-0.12,1.42-0.25,1.42-0.4L179.97,60.81z"/>
			<path class="st0" d="M226.53,34.96l-7.09,0l-12.28,21l-11.87-21l-7.98,0l0.53,4.2l0.01,26.67l6.93,0l-0.01-19.58h0.53l2.1,4.57
				l6.62,11.86l6.35,0l6.61-11.87l2.05-4.57h0.58l0.01,19.58l6.93,0L226.53,34.96z"/>
		</g>
	</g>
	<g>
		<path class="st1" d="M36.08,83.38h-2.72l-4.72,8.34l-4.56-8.34h-3.07l0.2,1.67l0,10.59h2.66l0-7.78h0.2l0.81,1.81l2.55,4.71
			l2.44,0l2.54-4.71l0.79-1.81h0.22l0,7.78h2.66L36.08,83.38z"/>
		<path class="st1" d="M52.4,83.37l-2.66,0l0,8.82c0,0.64-0.16,1.07-0.48,1.3c-0.32,0.23-0.7,0.34-1.13,0.34l-4.28,0
			c-0.46,0-0.84-0.11-1.15-0.33c-0.31-0.22-0.47-0.66-0.47-1.32l0-8.82h-2.66l0,8.74c0,1.13,0.24,2.03,0.73,2.71
			c0.49,0.68,1.34,1.02,2.56,1.02l6.28,0c0.83,0,1.49-0.16,1.96-0.47c0.47-0.31,0.81-0.75,1.01-1.3c0.2-0.56,0.3-1.21,0.3-1.96
			L52.4,83.37z"/>
		<path class="st1" d="M67.1,93.63l-8.35,0l0-10.26l-2.66,0l0,10.59l-0.2,1.67l9.61,0c0.89,0,1.51-0.02,1.88-0.07
			c0.36-0.05,0.55-0.1,0.55-0.16L67.1,93.63z"/>
		<path class="st1" d="M84.58,85.34l0-2l-13.2,0v2l5.25,0l0.02,10.28h2.66l0-10.28L84.58,85.34z"/>
		<path class="st1" d="M90.73,83.36l-2.66,0l0,12.26l2.66,0L90.73,83.36z"/>
		<path class="st1" d="M100.67,88.61l-6.46,0l0,2.42l6.46,0L100.67,88.61z"/>
		<path class="st1" d="M116.5,89.68c-0.32-0.48-0.79-0.81-1.39-0.99c-0.6-0.18-1.34-0.27-2.2-0.27l-4.48,0
			c-0.58,0-0.99-0.11-1.24-0.34c-0.25-0.23-0.37-0.57-0.37-1.03l0-0.36c0.01-0.39,0.13-0.71,0.34-0.97
			c0.21-0.26,0.63-0.39,1.25-0.39l0.22,0.02c2.08,0,3.75,0.02,4.98,0.07c1.24,0.05,2.03,0.09,2.38,0.13l0.4-1.75
			c0-0.11-0.28-0.22-0.85-0.31c-0.56-0.1-1.3-0.15-2.22-0.15l-5.49,0c-0.94,0-1.68,0.16-2.22,0.47c-0.54,0.31-0.92,0.73-1.14,1.24
			c-0.22,0.51-0.33,1.08-0.33,1.69v0.34c0,1.18,0.31,2.03,0.93,2.55c0.62,0.52,1.61,0.78,2.97,0.78l4.68,0
			c0.67,0,1.11,0.11,1.3,0.31c0.19,0.21,0.29,0.56,0.29,1.04v0.42c0,0.51-0.12,0.88-0.36,1.09c-0.24,0.22-0.65,0.32-1.23,0.32h-0.38
			c-2.15,0-3.84-0.02-5.07-0.07c-1.23-0.05-2-0.1-2.31-0.16l-0.81,1.81c0,0.11,0.22,0.21,0.65,0.29c0.43,0.08,1.1,0.12,2.02,0.12
			l6.7,0c1.28,0,2.17-0.32,2.69-0.96c0.52-0.64,0.78-1.48,0.78-2.52V91.8C116.98,90.87,116.82,90.16,116.5,89.68z"/>
		<path class="st1" d="M133.1,93.61l-9.97,0l0-3.32l7.55,0v-2.06l-7.55,0v-2.88l9.89,0v-2l-12.55,0l0,12.26l11.02,0
			c0.89,0,1.51-0.02,1.88-0.07c0.36-0.05,0.55-0.1,0.55-0.16L133.1,93.61z"/>
		<path class="st1" d="M151.85,93.89c-0.24-0.01-0.55-0.08-0.93-0.19c-0.38-0.11-0.81-0.31-1.29-0.6c-0.13-0.08-0.32-0.22-0.56-0.42
			c-0.24-0.19-0.51-0.41-0.8-0.65c-0.29-0.24-0.57-0.46-0.84-0.66c-0.27-0.2-0.49-0.35-0.67-0.45c0.69-0.04,1.24-0.19,1.67-0.44
			c0.42-0.25,0.75-0.56,0.98-0.92c0.23-0.36,0.38-0.73,0.46-1.11c0.08-0.38,0.12-0.72,0.12-1.02v-0.4c0-0.39-0.04-0.8-0.1-1.23
			c-0.07-0.43-0.22-0.84-0.46-1.22c-0.24-0.38-0.6-0.69-1.09-0.93c-0.49-0.24-1.17-0.35-2.03-0.35l-8.94,0l0.2,1.69l0,10.6l2.66,0
			l0-4.65h0.63c1.06,0,1.95,0.14,2.65,0.44c0.71,0.29,1.36,0.75,1.95,1.38l1.45,1.5c0.66,0.68,1.25,1.11,1.77,1.28
			c0.52,0.17,1.05,0.26,1.59,0.26c0.38,0,0.71-0.02,0.99-0.07c0.28-0.05,0.49-0.09,0.6-0.14l0.4-1.69
			C152.24,93.91,152.1,93.91,151.85,93.89z M144.65,89.03c-0.4,0.02-0.86,0.03-1.37,0.03c-0.43,0-0.89-0.01-1.39-0.02
			s-1.04-0.04-1.63-0.08v-3.63l5.51,0c0.59,0,1,0.15,1.23,0.46c0.23,0.31,0.34,0.68,0.34,1.13v0.48c0,0.43-0.12,0.78-0.35,1.05
			c-0.24,0.27-0.65,0.44-1.24,0.51C145.42,88.98,145.05,89.01,144.65,89.03z"/>
		<path class="st1" d="M167.46,83.36l-3.83,8.45l-0.52,1.5h-0.18l-0.54-1.5l-3.8-8.45l-2.82,0l5.63,12.24l3.23,0l5.26-10.99
			l0.32-1.25L167.46,83.36z"/>
		<path class="st1" d="M176.35,83.33l-2.66,0l0,12.26l2.66,0L176.35,83.33z"/>
		<path class="st1" d="M192.42,93.36c-0.3,0.06-1.06,0.11-2.29,0.16c-1.23,0.05-2.96,0.07-5.2,0.08h-0.83
			c-0.6,0-1.03-0.13-1.26-0.39c-0.23-0.26-0.35-0.62-0.35-1.09l0-5.32c0-0.99,0.54-1.48,1.61-1.48h1.03c2.14,0,3.77,0.02,4.89,0.07
			c1.12,0.05,1.8,0.09,2.03,0.13l0.4-1.73c0-0.11-0.25-0.22-0.74-0.32c-0.49-0.1-1.2-0.16-2.13-0.16l-6.07,0
			c-1.31,0-2.25,0.32-2.83,0.95c-0.58,0.63-0.87,1.62-0.87,2.95v4.65c0,0.82,0.11,1.51,0.32,2.06c0.22,0.56,0.59,0.97,1.13,1.25
			c0.54,0.28,1.29,0.42,2.24,0.42h5.61c1.12,0,1.97-0.06,2.56-0.17s1-0.24,1.22-0.38c0.22-0.14,0.33-0.24,0.33-0.31L192.42,93.36z"
			/>
		<path class="st1" d="M209.37,93.58l-9.97,0v-3.32l7.55,0V88.2l-7.55,0l0-2.88l9.89,0l0-2l-12.55,0l0,12.26l11.02,0
			c0.89,0,1.51-0.02,1.88-0.07c0.36-0.05,0.54-0.1,0.54-0.16L209.37,93.58z"/>
		<path class="st1" d="M226,89.65c-0.32-0.48-0.79-0.81-1.39-0.99s-1.34-0.27-2.2-0.27h-4.48c-0.58,0-0.99-0.11-1.24-0.34
			c-0.25-0.23-0.37-0.57-0.37-1.03v-0.36c0.01-0.39,0.13-0.71,0.34-0.97c0.22-0.26,0.63-0.38,1.25-0.38l0.22,0.02
			c2.09,0,3.75,0.02,4.98,0.07c1.24,0.05,2.03,0.09,2.38,0.13l0.4-1.75c0-0.11-0.28-0.21-0.85-0.31c-0.56-0.1-1.3-0.14-2.22-0.14
			l-5.49,0c-0.94,0-1.68,0.16-2.22,0.47c-0.54,0.31-0.92,0.73-1.14,1.24c-0.22,0.51-0.33,1.08-0.33,1.69v0.34
			c0,1.18,0.31,2.03,0.93,2.55c0.62,0.52,1.61,0.78,2.97,0.78l4.68,0c0.67,0,1.11,0.1,1.3,0.31c0.2,0.21,0.29,0.56,0.29,1.04v0.42
			c0,0.51-0.12,0.88-0.36,1.09c-0.24,0.22-0.65,0.32-1.23,0.32h-0.38c-2.15,0-3.84-0.02-5.07-0.07c-1.23-0.05-2-0.1-2.31-0.16
			l-0.8,1.81c0,0.11,0.21,0.21,0.65,0.29c0.43,0.08,1.1,0.13,2.02,0.13l6.7,0c1.28,0,2.18-0.32,2.69-0.96
			c0.52-0.64,0.78-1.48,0.78-2.53v-0.33C226.49,90.83,226.33,90.13,226,89.65z"/>
	</g>
</g>
</svg>
